# This file uses meters as units for non-parametric coordinates.

mtllib muro.mtl
g default
v -300.000000 -300.000000 10.000000
v 300.000000 -300.000000 10.000000
v -300.000000 300.000000 10.000000
v 300.000000 300.000000 10.000000
v -300.000000 300.000000 -10.000000
v 300.000000 300.000000 -10.000000
v -300.000000 -300.000000 -10.000000
v 300.000000 -300.000000 -10.000000
vt 0.587025 0.007812
vt 0.603300 0.007812
vt 0.603300 0.496060
vt 0.587025 0.496060
vt 0.559443 0.007812
vt 0.575718 0.007812
vt 0.575718 0.496060
vt 0.559443 0.496060
vt 0.504280 0.496060
vt 0.504280 0.007812
vt 0.520555 0.007812
vt 0.520555 0.496060
vt 0.531862 0.496060
vt 0.531862 0.007812
vt 0.548137 0.007812
vt 0.548137 0.496060
vt 0.007812 0.007812
vt 0.496060 0.007812
vt 0.496060 0.496060
vt 0.007812 0.496060
vt 0.007812 0.503940
vt 0.496060 0.503940
vt 0.496060 0.992188
vt 0.007812 0.992188
vn 0.000000 0.000000 1.000000
vn 0.000000 0.000000 1.000000
vn 0.000000 0.000000 1.000000
vn 0.000000 0.000000 1.000000
vn 0.000000 1.000000 0.000000
vn 0.000000 1.000000 0.000000
vn 0.000000 1.000000 0.000000
vn 0.000000 1.000000 0.000000
vn 0.000000 0.000000 -1.000000
vn 0.000000 0.000000 -1.000000
vn 0.000000 0.000000 -1.000000
vn 0.000000 0.000000 -1.000000
vn 0.000000 -1.000000 0.000000
vn 0.000000 -1.000000 0.000000
vn 0.000000 -1.000000 0.000000
vn 0.000000 -1.000000 0.000000
vn 1.000000 0.000000 0.000000
vn 1.000000 0.000000 0.000000
vn 1.000000 0.000000 0.000000
vn 1.000000 0.000000 0.000000
vn -1.000000 0.000000 0.000000
vn -1.000000 0.000000 0.000000
vn -1.000000 0.000000 0.000000
vn -1.000000 0.000000 0.000000
s off
g pCube13
usemtl initialShadingGroup
f 1/17/1 2/18/2 4/19/3 3/20/4
f 3/9/5 4/10/6 6/11/7 5/12/8
f 5/21/9 6/22/10 8/23/11 7/24/12
f 7/13/13 8/14/14 2/15/15 1/16/16
f 2/1/17 8/2/18 6/3/19 4/4/20
f 7/5/21 1/6/22 3/7/23 5/8/24
