# This file uses meters as units for non-parametric coordinates.

mtllib poster.mtl
g default
v -2.061720 78.424696 -1026.048529
v -2.061720 78.424669 -396.024115
v -2.061720 339.466933 -1026.048517
v -2.061720 339.466905 -396.024103
v 2.061720 78.424696 -1026.048529
v 2.061720 78.424669 -396.024115
v 2.061720 339.466933 -1026.048517
v 2.061720 339.466905 -396.024103
vt 0.803699 0.007812
vt 0.992188 0.007812
vt 0.992188 0.196301
vt 0.803699 0.196301
vt 0.196301 0.405194
vt 0.196301 0.593683
vt 0.007812 0.593683
vt 0.007812 0.405194
vt 0.007812 0.196301
vt 0.007812 0.007812
vt 0.196301 0.007812
vt 0.196301 0.196301
vt 0.594244 0.802576
vt 0.594244 0.991064
vt 0.405756 0.991064
vt 0.405756 0.802576
vt 0.604727 0.007812
vt 0.793216 0.007812
vt 0.793216 0.196301
vt 0.604727 0.196301
vt 0.594244 0.593683
vt 0.405756 0.593683
vt 0.405756 0.405194
vt 0.594244 0.405194
vn -1.000000 0.000000 0.000000
vn -1.000000 0.000000 0.000000
vn -1.000000 0.000000 0.000000
vn -1.000000 0.000000 0.000000
vn 0.000000 1.000000 0.000000
vn 0.000000 1.000000 0.000000
vn 0.000000 1.000000 0.000000
vn 0.000000 1.000000 0.000000
vn 1.000000 0.000000 0.000000
vn 1.000000 0.000000 0.000000
vn 1.000000 0.000000 0.000000
vn 1.000000 0.000000 0.000000
vn 0.000000 -1.000000 -0.000000
vn 0.000000 -1.000000 -0.000000
vn 0.000000 -1.000000 -0.000000
vn 0.000000 -1.000000 -0.000000
vn 0.000000 0.000000 -1.000000
vn 0.000000 0.000000 -1.000000
vn 0.000000 0.000000 -1.000000
vn 0.000000 0.000000 -1.000000
vn 0.000000 -0.000000 1.000000
vn 0.000000 -0.000000 1.000000
vn 0.000000 -0.000000 1.000000
vn 0.000000 -0.000000 1.000000
s off
g CubeFBXASC046002
usemtl CubeSG1
f 1/1/1 2/2/2 4/3/3 3/4/4
f 3/9/5 4/10/6 8/11/7 7/12/8
usemtl CubeFBXASC046002SG
f 7/5/9 8/6/10 6/7/11 5/8/12
usemtl CubeSG1
f 5/13/13 6/14/14 2/15/15 1/16/16
f 3/17/17 7/18/18 5/19/19 1/20/20
f 8/21/21 4/22/22 2/23/23 6/24/24
g default
v -2.061720 78.424691 -364.096090
v -2.061720 78.424674 13.712168
v -2.061720 339.466927 -364.096079
v -2.061720 339.466911 13.712179
v 2.061720 78.424691 -364.096090
v 2.061720 78.424674 13.712168
v 2.061720 339.466927 -364.096079
v 2.061720 339.466911 13.712179
vt 0.803699 0.206503
vt 0.992188 0.206503
vt 0.992188 0.394992
vt 0.803699 0.394992
vt 0.395273 0.405194
vt 0.395273 0.593683
vt 0.206784 0.593683
vt 0.206784 0.405194
vt 0.007812 0.394992
vt 0.007812 0.206503
vt 0.196301 0.206503
vt 0.196301 0.394992
vt 0.793216 0.802576
vt 0.793216 0.991064
vt 0.604727 0.991064
vt 0.604727 0.802576
vt 0.604727 0.206503
vt 0.793216 0.206503
vt 0.793216 0.394992
vt 0.604727 0.394992
vt 0.594244 0.792373
vt 0.405756 0.792373
vt 0.405756 0.603885
vt 0.594244 0.603885
vn -1.000000 0.000000 0.000000
vn -1.000000 0.000000 0.000000
vn -1.000000 0.000000 0.000000
vn -1.000000 0.000000 0.000000
vn 0.000000 1.000000 0.000000
vn 0.000000 1.000000 0.000000
vn 0.000000 1.000000 0.000000
vn 0.000000 1.000000 0.000000
vn 1.000000 0.000000 0.000000
vn 1.000000 0.000000 0.000000
vn 1.000000 0.000000 0.000000
vn 1.000000 0.000000 0.000000
vn 0.000000 -1.000000 -0.000000
vn 0.000000 -1.000000 -0.000000
vn 0.000000 -1.000000 -0.000000
vn 0.000000 -1.000000 -0.000000
vn 0.000000 0.000000 -1.000000
vn 0.000000 0.000000 -1.000000
vn 0.000000 0.000000 -1.000000
vn 0.000000 0.000000 -1.000000
vn 0.000000 -0.000000 1.000000
vn 0.000000 -0.000000 1.000000
vn 0.000000 -0.000000 1.000000
vn 0.000000 -0.000000 1.000000
s off
g CubeFBXASC046001
usemtl CubeSG1
f 9/25/25 10/26/26 12/27/27 11/28/28
f 11/33/29 12/34/30 16/35/31 15/36/32
usemtl CubeFBXASC046001SG
f 15/29/33 16/30/34 14/31/35 13/32/36
usemtl CubeSG1
f 13/37/37 14/38/38 10/39/39 9/40/40
f 11/41/41 15/42/42 13/43/43 9/44/44
f 16/45/45 12/46/46 10/47/47 14/48/48
g default
v -2.061720 20.041693 326.660538
v -2.061720 397.849951 326.660476
v -2.061720 20.041650 65.618302
v -2.061720 397.849909 65.618240
v 2.061720 20.041693 326.660538
v 2.061720 397.849951 326.660476
v 2.061720 20.041650 65.618302
v 2.061720 397.849909 65.618240
vt 0.803699 0.405194
vt 0.992188 0.405194
vt 0.992188 0.593682
vt 0.803699 0.593682
vt 0.594244 0.007812
vt 0.594244 0.196301
vt 0.405756 0.196301
vt 0.405756 0.007812
vt 0.206784 0.196301
vt 0.206784 0.007812
vt 0.395273 0.007812
vt 0.395273 0.196301
vt 0.196301 0.802576
vt 0.196301 0.991064
vt 0.007812 0.991064
vt 0.007812 0.802576
vt 0.604727 0.405194
vt 0.793216 0.405194
vt 0.793216 0.593683
vt 0.604727 0.593683
vt 0.196301 0.792373
vt 0.007812 0.792373
vt 0.007812 0.603885
vt 0.196301 0.603885
vn -1.000000 0.000000 -0.000000
vn -1.000000 0.000000 -0.000000
vn -1.000000 0.000000 -0.000000
vn -1.000000 0.000000 -0.000000
vn 0.000000 -0.000000 -1.000000
vn 0.000000 -0.000000 -1.000000
vn 0.000000 -0.000000 -1.000000
vn 0.000000 -0.000000 -1.000000
vn 1.000000 0.000000 0.000000
vn 1.000000 0.000000 0.000000
vn 1.000000 0.000000 0.000000
vn 1.000000 0.000000 0.000000
vn 0.000000 0.000000 1.000000
vn 0.000000 0.000000 1.000000
vn 0.000000 0.000000 1.000000
vn 0.000000 0.000000 1.000000
vn 0.000000 -1.000000 0.000000
vn 0.000000 -1.000000 0.000000
vn 0.000000 -1.000000 0.000000
vn 0.000000 -1.000000 0.000000
vn 0.000000 1.000000 -0.000000
vn 0.000000 1.000000 -0.000000
vn 0.000000 1.000000 -0.000000
vn 0.000000 1.000000 -0.000000
s off
g Cube
usemtl CubeSG1
f 17/49/49 18/50/50 20/51/51 19/52/52
f 19/57/53 20/58/54 24/59/55 23/60/56
usemtl CubeSG
f 23/53/57 24/54/58 22/55/59 21/56/60
usemtl CubeSG1
f 21/61/61 22/62/62 18/63/63 17/64/64
f 19/65/65 23/66/66 21/67/67 17/68/68
f 24/69/69 20/70/70 18/71/71 22/72/72
g default
v -2.061720 20.041697 682.182663
v -2.061720 397.849955 682.182602
v -2.061720 20.041646 368.117569
v -2.061720 397.849904 368.117508
v 2.061720 20.041697 682.182663
v 2.061720 397.849955 682.182602
v 2.061720 20.041646 368.117569
v 2.061720 397.849904 368.117508
vt 0.803699 0.603885
vt 0.992188 0.603885
vt 0.992188 0.792373
vt 0.803699 0.792373
vt 0.594244 0.206503
vt 0.594244 0.394992
vt 0.405756 0.394992
vt 0.405756 0.206503
vt 0.206784 0.394992
vt 0.206784 0.206503
vt 0.395273 0.206503
vt 0.395273 0.394992
vt 0.395273 0.802576
vt 0.395273 0.991064
vt 0.206784 0.991064
vt 0.206784 0.802576
vt 0.604727 0.603885
vt 0.793216 0.603885
vt 0.793216 0.792373
vt 0.604727 0.792373
vt 0.395273 0.792373
vt 0.206784 0.792373
vt 0.206784 0.603885
vt 0.395273 0.603885
vn -1.000000 0.000000 -0.000000
vn -1.000000 0.000000 -0.000000
vn -1.000000 0.000000 -0.000000
vn -1.000000 0.000000 -0.000000
vn 0.000000 -0.000000 -1.000000
vn 0.000000 -0.000000 -1.000000
vn 0.000000 -0.000000 -1.000000
vn 0.000000 -0.000000 -1.000000
vn 1.000000 0.000000 0.000000
vn 1.000000 0.000000 0.000000
vn 1.000000 0.000000 0.000000
vn 1.000000 0.000000 0.000000
vn 0.000000 0.000000 1.000000
vn 0.000000 0.000000 1.000000
vn 0.000000 0.000000 1.000000
vn 0.000000 0.000000 1.000000
vn 0.000000 -1.000000 0.000000
vn 0.000000 -1.000000 0.000000
vn 0.000000 -1.000000 0.000000
vn 0.000000 -1.000000 0.000000
vn 0.000000 1.000000 -0.000000
vn 0.000000 1.000000 -0.000000
vn 0.000000 1.000000 -0.000000
vn 0.000000 1.000000 -0.000000
s off
g CubeFBXASC046003
usemtl CubeSG1
f 25/73/73 26/74/74 28/75/75 27/76/76
f 27/81/77 28/82/78 32/83/79 31/84/80
usemtl CubeFBXASC046003SG
f 31/77/81 32/78/82 30/79/83 29/80/84
usemtl CubeSG1
f 29/85/85 30/86/86 26/87/87 25/88/88
f 27/89/89 31/90/90 29/91/91 25/92/92
f 32/93/93 28/94/94 26/95/95 30/96/96
