# This file uses meters as units for non-parametric coordinates.

mtllib proiettile.mtl
g default
v 156.983765 -24.983154 -1.889925
v 156.833160 -24.983154 -1.594032
v 156.598312 -24.983154 -1.359212
v 156.302414 -24.983154 -1.208456
v 155.974365 -24.983154 -1.156507
v 155.646317 -24.983154 -1.208456
v 155.350418 -24.983154 -1.359212
v 155.115631 -24.983154 -1.594032
v 154.964951 -24.983154 -1.889925
v 154.912979 -24.983154 -2.217927
v 154.964951 -24.983154 -2.545929
v 155.115631 -24.983154 -2.841820
v 155.350418 -24.983154 -3.076643
v 155.646317 -24.983154 -3.227398
v 155.974365 -24.983154 -3.279345
v 156.302414 -24.983154 -3.227398
v 156.598312 -24.983154 -3.076643
v 156.833160 -24.983154 -2.841820
v 156.983765 -24.983154 -2.545929
v 157.035736 -24.983154 -2.217927
v 162.299835 -88.028702 -0.162657
v 161.355133 -88.028702 1.691429
v 159.883728 -88.028702 3.162842
v 158.029663 -88.028702 4.107544
v 155.974365 -88.028702 4.433067
v 153.919128 -88.028702 4.107544
v 152.065002 -88.028702 3.162842
v 150.593597 -88.028702 1.691429
v 149.648895 -88.028702 -0.162659
v 149.323380 -88.028702 -2.217927
v 149.648895 -88.028702 -4.273199
v 150.593597 -88.028702 -6.127285
v 152.065002 -88.028702 -7.598698
v 153.919128 -88.028702 -8.543396
v 155.974365 -88.028702 -8.868919
v 158.029663 -88.028702 -8.543396
v 159.883713 -88.028702 -7.598698
v 161.355133 -88.028702 -6.127285
v 162.299835 -88.028702 -4.273199
v 162.625366 -88.028702 -2.217927
v 155.974365 -24.983154 -2.217927
v 164.503418 -65.513771 0.553331
v 164.942352 -65.513771 -2.217927
v 164.503418 -65.513771 -4.989185
v 163.229630 -65.513771 -7.489178
v 161.245636 -65.513771 -9.473175
v 158.745636 -65.513771 -10.746979
v 155.974365 -65.513771 -11.185913
v 153.203125 -65.513771 -10.746979
v 150.703110 -65.513771 -9.473175
v 148.719147 -65.513771 -7.489178
v 147.445312 -65.513771 -4.989185
v 147.006393 -65.513771 -2.217927
v 147.445312 -65.513771 0.553331
v 148.719147 -65.513771 3.053318
v 150.703110 -65.513771 5.037323
v 153.203125 -65.513771 6.311127
v 155.974365 -65.513771 6.750053
v 158.745636 -65.513771 6.311127
v 161.245636 -65.513771 5.037323
v 163.229630 -65.513771 3.053322
v 164.503418 -68.215813 0.553331
v 164.942352 -68.215813 -2.217927
v 164.503418 -68.215813 -4.989185
v 163.229630 -68.215813 -7.489178
v 161.245636 -68.215813 -9.473175
v 158.745636 -68.215813 -10.746979
v 155.974365 -68.215813 -11.185913
v 153.203125 -68.215813 -10.746979
v 150.703110 -68.215813 -9.473175
v 148.719147 -68.215813 -7.489178
v 147.445312 -68.215813 -4.989185
v 147.006393 -68.215813 -2.217927
v 147.445312 -68.215813 0.553331
v 148.719147 -68.215813 3.053318
v 150.703110 -68.215813 5.037323
v 153.203125 -68.215813 6.311127
v 155.974365 -68.215813 6.750053
v 158.745636 -68.215813 6.311127
v 161.245636 -68.215813 5.037323
v 163.229630 -68.215813 3.053322
v 164.503418 -70.647644 0.553331
v 164.942352 -70.647644 -2.217927
v 164.503418 -70.647644 -4.989185
v 163.229630 -70.647644 -7.489178
v 161.245636 -70.647644 -9.473175
v 158.745636 -70.647644 -10.746979
v 155.974365 -70.647644 -11.185913
v 153.203125 -70.647644 -10.746979
v 150.703110 -70.647644 -9.473175
v 148.719147 -70.647644 -7.489178
v 147.445312 -70.647644 -4.989185
v 147.006393 -70.647644 -2.217927
v 147.445312 -70.647644 0.553331
v 148.719147 -70.647644 3.053318
v 150.703110 -70.647644 5.037323
v 153.203125 -70.647644 6.311127
v 155.974365 -70.647644 6.750053
v 158.745636 -70.647644 6.311127
v 161.245636 -70.647644 5.037323
v 163.229630 -70.647644 3.053322
v 164.503418 -72.836304 0.553331
v 164.942352 -72.836304 -2.217927
v 164.503418 -72.836304 -4.989185
v 163.229630 -72.836304 -7.489178
v 161.245636 -72.836304 -9.473175
v 158.745636 -72.836304 -10.746979
v 155.974365 -72.836304 -11.185913
v 153.203125 -72.836304 -10.746979
v 150.703110 -72.836304 -9.473175
v 148.719147 -72.836304 -7.489178
v 147.445312 -72.836304 -4.989185
v 147.006393 -72.836304 -2.217927
v 147.445312 -72.836304 0.553331
v 148.719147 -72.836304 3.053318
v 150.703110 -72.836304 5.037323
v 153.203125 -72.836304 6.311127
v 155.974365 -72.836304 6.750053
v 158.745636 -72.836304 6.311127
v 161.245636 -72.836304 5.037323
v 163.229630 -72.836304 3.053322
v 162.566711 -44.630432 -0.075953
v 162.905945 -44.630432 -2.217927
v 162.566681 -44.630432 -4.359903
v 161.582153 -44.630432 -6.292206
v 160.048645 -44.630432 -7.825687
v 158.116333 -44.630432 -8.810257
v 155.974365 -44.630432 -9.149506
v 153.832382 -44.630432 -8.810257
v 151.900085 -44.630432 -7.825695
v 150.366608 -44.630432 -6.292206
v 149.382050 -44.630432 -4.359903
v 149.042786 -44.630432 -2.217927
v 149.382050 -44.630432 -0.075953
v 150.366608 -44.630432 1.856354
v 151.900085 -44.630432 3.389839
v 153.832382 -44.630432 4.374397
v 155.974365 -44.630432 4.713654
v 158.116333 -44.630432 4.374397
v 160.048645 -44.630432 3.389839
v 161.582153 -44.630432 1.856354
v 160.756287 -35.115784 -0.664185
v 161.002380 -35.115784 -2.217927
v 160.756287 -35.115784 -3.771667
v 160.042114 -35.115784 -5.173321
v 158.929779 -35.115784 -6.285675
v 157.528107 -35.115784 -6.999851
v 155.974365 -35.115784 -7.245937
v 154.420624 -35.115784 -6.999851
v 153.018967 -35.115784 -6.285675
v 151.906616 -35.115784 -5.173321
v 151.192444 -35.115784 -3.771667
v 150.946350 -35.115784 -2.217927
v 151.192444 -35.115784 -0.664185
v 151.906616 -35.115784 0.737465
v 153.018967 -35.115784 1.849819
v 154.420624 -35.115784 2.563999
v 155.974365 -35.115784 2.810089
v 157.528107 -35.115784 2.563999
v 158.929779 -35.115784 1.849823
v 160.042114 -35.115784 0.737465
v 163.966675 -55.999130 0.378931
v 164.377991 -55.999130 -2.217927
v 163.966675 -55.999130 -4.814789
v 162.773010 -55.999130 -7.157448
v 160.913910 -55.999130 -9.016594
v 158.571228 -55.999130 -10.210236
v 155.974365 -55.999130 -10.621536
v 153.377502 -55.999130 -10.210236
v 151.034882 -55.999130 -9.016594
v 149.175720 -55.999130 -7.157448
v 147.982056 -55.999130 -4.814789
v 147.570755 -55.999130 -2.217927
v 147.982056 -55.999130 0.378931
v 149.175720 -55.999130 2.721592
v 151.034882 -55.999130 4.580734
v 153.377502 -55.999130 5.774384
v 155.974365 -55.999130 6.185684
v 158.571228 -55.999130 5.774384
v 160.913910 -55.999130 4.580742
v 162.773041 -55.999130 2.721596
v 163.675354 -65.513771 0.284269
v 164.071625 -65.513771 -2.217927
v 163.675354 -68.215813 0.284269
v 164.071625 -68.215813 -2.217927
v 163.675354 -65.513771 -4.720127
v 163.675354 -68.215813 -4.720127
v 162.525177 -65.513771 -6.977379
v 162.525177 -68.215813 -6.977379
v 160.733810 -65.513771 -8.768753
v 160.733810 -68.215813 -8.768753
v 158.476562 -65.513771 -9.918877
v 158.476562 -68.215813 -9.918877
v 155.974365 -65.513771 -10.315186
v 155.974365 -68.215813 -10.315186
v 153.472183 -65.513771 -9.918877
v 153.472183 -68.215813 -9.918877
v 151.214920 -65.513771 -8.768753
v 151.214920 -68.215813 -8.768753
v 149.423569 -65.513771 -6.977379
v 149.423569 -68.215813 -6.977379
v 148.273422 -65.513771 -4.720119
v 148.273422 -68.215813 -4.720119
v 147.877090 -65.513771 -2.217927
v 147.877090 -68.215813 -2.217927
v 148.273422 -65.513771 0.284260
v 148.273422 -68.215813 0.284260
v 149.423538 -65.513771 2.541523
v 149.423538 -68.215813 2.541523
v 151.214920 -65.513771 4.332893
v 151.214920 -68.215813 4.332893
v 153.472183 -65.513771 5.483025
v 153.472183 -68.215813 5.483025
v 155.974365 -65.513771 5.879333
v 155.974365 -68.215813 5.879333
v 158.476562 -65.513771 5.483025
v 158.476562 -68.215813 5.483025
v 160.733826 -65.513771 4.332901
v 160.733826 -68.215813 4.332901
v 162.525177 -65.513771 2.541523
v 162.525177 -68.215813 2.541523
v 163.675354 -70.647644 0.284264
v 164.071625 -70.647644 -2.217927
v 163.675354 -72.836304 0.284264
v 164.071625 -72.836304 -2.217927
v 163.675354 -70.647644 -4.720119
v 163.675354 -72.836304 -4.720119
v 162.525177 -70.647644 -6.977379
v 162.525177 -72.836304 -6.977379
v 160.733810 -70.647644 -8.768753
v 160.733810 -72.836304 -8.768753
v 158.476562 -70.647644 -9.918869
v 158.476562 -72.836304 -9.918869
v 155.974365 -70.647644 -10.315186
v 155.974365 -72.836304 -10.315186
v 153.472183 -70.647644 -9.918877
v 153.472183 -72.836304 -9.918877
v 151.214920 -70.647644 -8.768753
v 151.214920 -72.836304 -8.768753
v 149.423569 -70.647644 -6.977379
v 149.423569 -72.836304 -6.977379
v 148.273438 -70.647644 -4.720116
v 148.273438 -72.836304 -4.720116
v 147.877106 -70.647644 -2.217927
v 147.877106 -72.836304 -2.217927
v 148.273392 -70.647644 0.284260
v 148.273392 -72.836304 0.284260
v 149.423538 -70.647644 2.541523
v 149.423538 -72.836304 2.541523
v 151.214920 -70.647644 4.332893
v 151.214920 -72.836304 4.332893
v 153.472183 -70.647644 5.483032
v 153.472183 -72.836304 5.483032
v 155.974365 -70.647644 5.879333
v 155.974365 -72.836304 5.879333
v 158.476562 -70.647644 5.483025
v 158.476562 -72.836304 5.483025
v 160.733826 -70.647644 4.332901
v 160.733826 -72.836304 4.332901
v 162.525177 -70.647644 2.541527
v 162.525177 -72.836304 2.541527
v 162.525604 -86.472198 -0.089302
v 162.862762 -86.472198 -2.217927
v 162.525604 -86.472198 -4.346554
v 161.547211 -86.472198 -6.266815
v 160.023254 -86.472198 -7.790745
v 158.102997 -86.472198 -8.769157
v 155.974365 -86.472198 -9.106308
v 153.845734 -86.472198 -8.769157
v 151.925461 -86.472198 -7.790745
v 150.401535 -86.472198 -6.266815
v 149.423126 -86.472198 -4.346554
v 149.085983 -86.472198 -2.217927
v 149.423126 -86.472198 -0.089304
v 150.401535 -86.472198 1.830956
v 151.925461 -86.472198 3.354889
v 153.845734 -86.472198 4.333305
v 155.974365 -86.472198 4.670448
v 158.102997 -86.472198 4.333305
v 160.023270 -86.472198 3.354889
v 161.547211 -86.472198 1.830956
v 162.776062 -84.745392 -0.007919
v 163.126129 -84.745392 -2.217927
v 162.776062 -84.745392 -4.427935
v 161.760254 -84.745392 -6.421612
v 160.178040 -84.745392 -8.003799
v 158.184372 -84.745392 -9.019623
v 155.974365 -84.745392 -9.369659
v 153.764374 -84.745392 -9.019623
v 151.770676 -84.745392 -8.003799
v 150.188507 -84.745392 -6.421612
v 149.172668 -84.745392 -4.427935
v 148.822617 -84.745392 -2.217927
v 149.172668 -84.745392 -0.007923
v 150.188507 -84.745392 1.985752
v 151.770676 -84.745392 3.567940
v 153.764374 -84.745392 4.583771
v 155.974365 -84.745392 4.933807
v 158.184372 -84.745392 4.583771
v 160.178070 -84.745392 3.567940
v 161.760254 -84.745392 1.985756
v 162.004089 -85.248932 -0.258749
v 162.314392 -85.248932 -2.217927
v 161.927216 -85.748917 -0.283724
v 162.233582 -85.748917 -2.217927
v 162.004089 -85.248932 -4.177101
v 161.927216 -85.748917 -4.152132
v 161.103561 -85.248932 -5.944500
v 161.038208 -85.748917 -5.896996
v 159.700958 -85.248932 -7.347126
v 159.653427 -85.748917 -7.281731
v 157.933548 -85.248932 -8.247650
v 157.908569 -85.748917 -8.170776
v 155.974365 -85.248932 -8.557953
v 155.974365 -85.748917 -8.477127
v 154.015213 -85.248932 -8.247650
v 154.040192 -85.748917 -8.170769
v 152.247772 -85.248932 -7.347118
v 152.295303 -85.748917 -7.281727
v 150.845169 -85.248932 -5.944508
v 150.910538 -85.748917 -5.896999
v 149.944641 -85.248932 -4.177109
v 150.021515 -85.748917 -4.152132
v 149.634338 -85.248932 -2.217927
v 149.715179 -85.748917 -2.217927
v 149.944641 -85.248932 -0.258751
v 150.021515 -85.748917 -0.283730
v 150.845169 -85.248932 1.508648
v 150.910568 -85.748917 1.461132
v 152.247772 -85.248932 2.911263
v 152.295303 -85.748917 2.845867
v 154.015213 -85.248932 3.811798
v 154.040192 -85.748917 3.734917
v 155.974365 -85.248932 4.122101
v 155.974365 -85.748917 4.041267
v 157.933548 -85.248932 3.811798
v 157.908569 -85.748917 3.734917
v 159.700989 -85.248932 2.911270
v 159.653442 -85.748917 2.845863
v 161.103561 -85.248932 1.508652
v 161.038208 -85.748917 1.461143
v 161.413971 -88.028702 -0.450497
v 160.601562 -88.028702 1.143925
v 159.336227 -88.028702 2.409267
v 157.741806 -88.028702 3.221664
v 155.974365 -88.028702 3.501598
v 154.206955 -88.028702 3.221664
v 152.612503 -88.028702 2.409267
v 151.347168 -88.028702 1.143925
v 150.534790 -88.028702 -0.450500
v 150.254837 -88.028702 -2.217927
v 150.534790 -88.028702 -3.985357
v 151.347168 -88.028702 -5.579784
v 152.612503 -88.028702 -6.845119
v 154.206955 -88.028702 -7.657520
v 155.974365 -88.028702 -7.937450
v 157.741806 -88.028702 -7.657520
v 159.336212 -88.028702 -6.845123
v 160.601562 -88.028702 -5.579781
v 161.413971 -88.028702 -3.985357
v 161.693893 -88.028702 -2.217927
v 161.413971 -87.468704 -0.450497
v 160.601562 -87.468704 1.143925
v 155.974365 -87.468704 -2.217927
v 159.336227 -87.468704 2.409267
v 157.741806 -87.468704 3.221664
v 155.974365 -87.468704 3.501598
v 154.206955 -87.468704 3.221664
v 152.612503 -87.468704 2.409267
v 151.347168 -87.468704 1.143925
v 150.534790 -87.468704 -0.450500
v 150.254837 -87.468704 -2.217927
v 150.534790 -87.468704 -3.985357
v 151.347168 -87.468704 -5.579784
v 152.612503 -87.468704 -6.845119
v 154.206955 -87.468704 -7.657520
v 155.974365 -87.468704 -7.937450
v 157.741806 -87.468704 -7.657520
v 159.336212 -87.468704 -6.845123
v 160.601562 -87.468704 -5.579781
v 161.413971 -87.468704 -3.985357
v 161.693893 -87.468704 -2.217927
vt 0.026532 0.015413
vt 0.025518 0.012626
vt 0.464124 0.399363
vt 0.482832 0.403806
vt 0.023690 0.010289
vt 0.445159 0.396537
vt 0.021230 0.008631
vt 0.426053 0.395321
vt 0.018377 0.007814
vt 0.406918 0.395710
vt 0.015411 0.007919
vt 0.387865 0.397695
vt 0.012624 0.008934
vt 0.369005 0.401268
vt 0.010287 0.010762
vt 0.350449 0.406418
vt 0.008629 0.013223
vt 0.332309 0.413135
vt 0.007812 0.016075
vt 0.314702 0.421408
vt 0.007917 0.019040
vt 0.297749 0.431226
vt 0.008933 0.021828
vt 0.281579 0.442580
vt 0.010760 0.024165
vt 0.266330 0.455462
vt 0.013220 0.025823
vt 0.252155 0.469870
vt 0.016073 0.026640
vt 0.239222 0.485807
vt 0.019039 0.026535
vt 0.568106 0.450469
vt 0.021826 0.025519
vt 0.552613 0.437851
vt 0.024164 0.023691
vt 0.536192 0.426886
vt 0.025821 0.021231
vt 0.518995 0.417562
vt 0.026637 0.018378
vt 0.501164 0.409871
vt 0.017225 0.017227
vt 0.917637 0.288019
vt 0.919844 0.308881
vt 0.852879 0.305415
vt 0.915495 0.329405
vt 0.905017 0.347580
vt 0.889436 0.361628
vt 0.870276 0.370173
vt 0.849413 0.372379
vt 0.828889 0.368031
vt 0.810714 0.357553
vt 0.796667 0.341971
vt 0.788121 0.322811
vt 0.785915 0.301949
vt 0.790264 0.281425
vt 0.800742 0.263250
vt 0.816323 0.249202
vt 0.835483 0.240657
vt 0.856346 0.238451
vt 0.876869 0.242799
vt 0.895044 0.253277
vt 0.909092 0.268859
vt 0.857689 0.659843
vt 0.857579 0.626973
vt 0.886294 0.622359
vt 0.886401 0.664244
vt 0.847582 0.691138
vt 0.873544 0.704198
vt 0.828288 0.717766
vt 0.848946 0.738207
vt 0.801704 0.737076
vt 0.815068 0.762908
vt 0.770506 0.747368
vt 0.775291 0.776015
vt 0.737623 0.747474
vt 0.733302 0.776202
vt 0.706318 0.737380
vt 0.693285 0.763347
vt 0.679708 0.718067
vt 0.659239 0.738707
vt 0.660333 0.691504
vt 0.634492 0.704784
vt 0.650177 0.660235
vt 0.621473 0.664838
vt 0.650206 0.627371
vt 0.621482 0.622879
vt 0.660409 0.596173
vt 0.634425 0.583058
vt 0.679572 0.569503
vt 0.658864 0.549132
vt 0.706082 0.550071
vt 0.692667 0.524302
vt 0.737316 0.539807
vt 0.732556 0.511145
vt 0.770188 0.539756
vt 0.774570 0.511020
vt 0.801496 0.549827
vt 0.814554 0.523875
vt 0.828130 0.569130
vt 0.848616 0.548516
vt 0.847464 0.595727
vt 0.873330 0.582479
vt 0.896653 0.665858
vt 0.896547 0.620746
vt 0.947743 0.304831
vt 0.944893 0.335227
vt 0.882796 0.708902
vt 0.932811 0.363177
vt 0.856288 0.745545
vt 0.912685 0.386025
vt 0.819800 0.772146
vt 0.886414 0.401570
vt 0.776957 0.786259
vt 0.856655 0.408282
vt 0.731717 0.786460
vt 0.826343 0.405462
vt 0.688588 0.772604
vt 0.798384 0.393400
vt 0.651902 0.746050
vt 0.775496 0.373242
vt 0.625239 0.709488
vt 0.759982 0.347000
vt 0.611216 0.666435
vt 0.753374 0.317288
vt 0.611234 0.621221
vt 0.756280 0.286998
vt 0.625175 0.578347
vt 0.768442 0.259010
vt 0.651497 0.541823
vt 0.788563 0.236058
vt 0.687910 0.515077
vt 0.814718 0.220503
vt 0.730899 0.500898
vt 0.844408 0.213798
vt 0.776173 0.500765
vt 0.874764 0.216624
vt 0.819259 0.514623
vt 0.902766 0.228712
vt 0.855965 0.541185
vt 0.925611 0.248849
vt 0.882593 0.577791
vt 0.941102 0.275057
vt 0.953609 0.337563
vt 0.956716 0.304415
vt 0.980613 0.302950
vt 0.976786 0.343472
vt 0.940365 0.368125
vt 0.960593 0.380918
vt 0.918313 0.393084
vt 0.933594 0.411504
vt 0.889623 0.409963
vt 0.898499 0.432200
vt 0.857166 0.417288
vt 0.858800 0.441149
vt 0.824004 0.414186
vt 0.818161 0.437389
vt 0.793426 0.400952
vt 0.780652 0.421188
vt 0.768474 0.378878
vt 0.750038 0.394145
vt 0.751536 0.350199
vt 0.729287 0.359002
vt 0.744350 0.317679
vt 0.720453 0.319129
vt 0.747592 0.284551
vt 0.724418 0.278541
vt 0.760925 0.254090
vt 0.740693 0.241255
vt 0.782850 0.229078
vt 0.767505 0.210733
vt 0.811470 0.212077
vt 0.802536 0.189879
vt 0.843964 0.204777
vt 0.842366 0.180900
vt 0.877119 0.207934
vt 0.883022 0.184737
vt 0.907703 0.221150
vt 0.920495 0.200931
vt 0.932673 0.243216
vt 0.951130 0.227975
vt 0.949566 0.271921
vt 0.971837 0.263160
vt 0.986790 0.346055
vt 0.990928 0.302342
vt 0.032801 0.588113
vt 0.057390 0.608563
vt 0.969309 0.386470
vt 0.087083 0.620507
vt 0.940161 0.419485
vt 0.119104 0.622673
vt 0.902300 0.441809
vt 0.150243 0.614787
vt 0.859472 0.451459
vt 0.177367 0.597662
vt 0.815607 0.447402
vt 0.197888 0.572996
vt 0.775107 0.429909
vt 0.209742 0.543165
vt 0.742060 0.400714
vt 0.211757 0.511183
vt 0.719665 0.362772
vt 0.203850 0.480264
vt 0.710135 0.319719
vt 0.186889 0.453189
vt 0.714425 0.275904
vt 0.162304 0.432612
vt 0.731982 0.235697
vt 0.132507 0.420661
vt 0.760902 0.202787
vt 0.100506 0.418538
vt 0.798706 0.180283
vt 0.069391 0.426400
vt 0.841712 0.170586
vt 0.042231 0.443547
vt 0.885599 0.174729
vt 0.021757 0.468245
vt 0.926048 0.192216
vt 0.009953 0.497961
vt 0.959121 0.221422
vt 0.007812 0.529895
vt 0.981470 0.259414
vt 0.015683 0.560992
vt 0.536212 0.290541
vt 0.509297 0.283910
vt 0.529421 0.138738
vt 0.563754 0.145249
vt 0.562731 0.298933
vt 0.597659 0.153499
vt 0.588776 0.309011
vt 0.631073 0.163334
vt 0.614284 0.320688
vt 0.663967 0.174570
vt 0.639210 0.333861
vt 0.696347 0.186999
vt 0.145870 0.380684
vt 0.064049 0.244105
vt 0.168453 0.363523
vt 0.093941 0.226949
vt 0.191740 0.347548
vt 0.124380 0.210623
vt 0.215738 0.332896
vt 0.155447 0.195335
vt 0.240428 0.319693
vt 0.187183 0.181292
vt 0.265766 0.308046
vt 0.219594 0.168679
vt 0.291691 0.298049
vt 0.252653 0.157667
vt 0.318128 0.289784
vt 0.286300 0.148400
vt 0.344989 0.283313
vt 0.320453 0.140996
vt 0.372176 0.278688
vt 0.355007 0.135548
vt 0.399587 0.275943
vt 0.389843 0.132117
vt 0.427113 0.275096
vt 0.424834 0.130735
vt 0.454645 0.276153
vt 0.459846 0.131403
vt 0.482075 0.279100
vt 0.494749 0.134092
vt 0.848819 0.628234
vt 0.848916 0.658378
vt 0.839704 0.687000
vt 0.822100 0.711372
vt 0.797763 0.729148
vt 0.769153 0.738580
vt 0.739093 0.738695
vt 0.710469 0.729503
vt 0.686061 0.711873
vt 0.668315 0.687565
vt 0.658991 0.658996
vt 0.658961 0.628951
vt 0.668250 0.600286
vt 0.685839 0.575810
vt 0.710065 0.558031
vt 0.738604 0.548615
vt 0.768701 0.548504
vt 0.797369 0.557713
vt 0.821738 0.575325
vt 0.839457 0.599605
vt 0.071236 0.585547
vt 0.053030 0.570417
vt 0.988490 0.063090
vt 0.977401 0.040928
vt 0.093201 0.594323
vt 0.960007 0.023278
vt 0.116777 0.595876
vt 0.938010 0.011867
vt 0.139681 0.590059
vt 0.913563 0.007812
vt 0.159683 0.577424
vt 0.889060 0.011510
vt 0.174787 0.559224
vt 0.866899 0.022599
vt 0.183503 0.537271
vt 0.849249 0.039993
vt 0.185005 0.513708
vt 0.837838 0.061990
vt 0.179132 0.490786
vt 0.833783 0.086437
vt 0.166537 0.470762
vt 0.837481 0.110940
vt 0.148400 0.455639
vt 0.848570 0.133101
vt 0.126471 0.446865
vt 0.865964 0.150751
vt 0.102871 0.445309
vt 0.887961 0.162162
vt 0.079944 0.451138
vt 0.912407 0.166217
vt 0.059968 0.463763
vt 0.936911 0.162519
vt 0.044882 0.481939
vt 0.959072 0.151431
vt 0.036145 0.503922
vt 0.976722 0.134036
vt 0.034599 0.527541
vt 0.988133 0.112039
vt 0.040420 0.550440
vt 0.992188 0.087593
vt 0.063042 0.599093
vt 0.041079 0.580830
vt 0.045317 0.577106
vt 0.065931 0.594251
vt 0.089555 0.609756
vt 0.090819 0.604257
vt 0.118112 0.611686
vt 0.117605 0.606065
vt 0.145880 0.604658
vt 0.143650 0.599475
vt 0.170082 0.589381
vt 0.166356 0.585146
vt 0.188394 0.567379
vt 0.183537 0.564505
vt 0.198973 0.540782
vt 0.193464 0.539562
vt 0.200784 0.512246
vt 0.195169 0.512788
vt 0.193716 0.484615
vt 0.188535 0.486844
vt 0.178565 0.460427
vt 0.174307 0.464131
vt 0.156634 0.442075
vt 0.153733 0.446917
vt 0.130065 0.431416
vt 0.128813 0.436919
vt 0.101513 0.429521
vt 0.102029 0.435138
vt 0.073754 0.436531
vt 0.075985 0.441715
vt 0.049532 0.451814
vt 0.053266 0.456045
vt 0.031259 0.473838
vt 0.036119 0.476702
vt 0.020714 0.500377
vt 0.026216 0.501609
vt 0.018798 0.528893
vt 0.024417 0.528379
vt 0.025814 0.556631
vt 0.030998 0.554400
vt 0.926381 0.309199
vt 0.923953 0.286301
vt 0.921614 0.331727
vt 0.910119 0.351680
vt 0.893021 0.367104
vt 0.871994 0.376489
vt 0.849095 0.378917
vt 0.826567 0.374150
vt 0.806614 0.362655
vt 0.791191 0.345557
vt 0.781806 0.324529
vt 0.779378 0.301631
vt 0.784144 0.279103
vt 0.795640 0.259150
vt 0.812738 0.243727
vt 0.833765 0.234341
vt 0.856664 0.231913
vt 0.879192 0.236680
vt 0.899144 0.248175
vt 0.914568 0.265273
vt 0.968379 0.047383
vt 0.977915 0.066440
vt 0.953421 0.032205
vt 0.934505 0.022392
vt 0.913482 0.018905
vt 0.892411 0.022085
vt 0.873353 0.031621
vt 0.858175 0.046579
vt 0.848362 0.065495
vt 0.844875 0.086518
vt 0.848055 0.107589
vt 0.857591 0.126647
vt 0.872549 0.141825
vt 0.891465 0.151638
vt 0.912488 0.155125
vt 0.933560 0.151945
vt 0.952617 0.142409
vt 0.967795 0.127451
vt 0.977608 0.108535
vt 0.981095 0.087512
vt 0.386680 0.752507
vt 0.411494 0.746894
vt 0.361629 0.756944
vt 0.336396 0.760194
vt 0.311038 0.762251
vt 0.285612 0.763110
vt 0.260173 0.762768
vt 0.234779 0.761228
vt 0.209485 0.758492
vt 0.184349 0.754566
vt 0.159425 0.749459
vt 0.134771 0.743182
vt 0.110440 0.735750
vt 0.086486 0.727178
vt 0.552361 0.689390
vt 0.530102 0.701710
vt 0.507287 0.712967
vt 0.483966 0.723135
vt 0.460192 0.732192
vt 0.436016 0.740117
vt 0.826791 0.945158
vt 0.850276 0.942658
vt 0.803214 0.946548
vt 0.779597 0.946824
vt 0.755994 0.945986
vt 0.732456 0.944036
vt 0.709037 0.940978
vt 0.685788 0.936820
vt 0.662761 0.931569
vt 0.640007 0.925238
vt 0.617577 0.917842
vt 0.595521 0.909396
vt 0.573888 0.899919
vt 0.552725 0.889432
vt 0.532081 0.877959
vt 0.964511 0.913784
vt 0.942261 0.921703
vt 0.919661 0.928565
vt 0.896763 0.934352
vt 0.873618 0.939054
vt 0.413741 0.886780
vt 0.444857 0.879742
vt 0.382328 0.892344
vt 0.350687 0.896419
vt 0.318889 0.898998
vt 0.287005 0.900075
vt 0.255106 0.899647
vt 0.223263 0.897716
vt 0.191545 0.894284
vt 0.160025 0.889361
vt 0.128773 0.882957
vt 0.097856 0.875087
vt 0.067346 0.865767
vt 0.037309 0.855019
vt 0.007812 0.842866
vt 0.593586 0.823083
vt 0.564976 0.837198
vt 0.535733 0.849948
vt 0.505921 0.861305
vt 0.475606 0.871244
vt 0.539415 0.532750
vt 0.570035 0.519235
vt 0.508794 0.546266
vt 0.478174 0.559781
vt 0.447554 0.573297
vt 0.416934 0.586812
vt 0.386314 0.600328
vt 0.355694 0.613844
vt 0.325073 0.627359
vt 0.294453 0.640875
vt 0.263833 0.654390
vt 0.233213 0.667906
vt 0.202593 0.681421
vt 0.171973 0.694937
vt 0.753756 0.438141
vt 0.723135 0.451657
vt 0.692515 0.465172
vt 0.661895 0.478688
vt 0.631275 0.492203
vt 0.600655 0.505719
vt 0.551129 0.559289
vt 0.581749 0.545773
vt 0.520509 0.572805
vt 0.489888 0.586320
vt 0.459268 0.599836
vt 0.428648 0.613351
vt 0.398028 0.626867
vt 0.367408 0.640383
vt 0.336788 0.653898
vt 0.306167 0.667414
vt 0.275547 0.680929
vt 0.244927 0.694445
vt 0.214307 0.707960
vt 0.183687 0.721476
vt 0.153067 0.734992
vt 0.734850 0.478196
vt 0.704229 0.491711
vt 0.673609 0.505227
vt 0.642989 0.518742
vt 0.612369 0.532258
vt 0.502780 0.010979
vt 0.543090 0.015794
vt 0.462085 0.008288
vt 0.421197 0.007814
vt 0.380316 0.009601
vt 0.339644 0.013645
vt 0.299374 0.019901
vt 0.259689 0.028274
vt 0.220749 0.038631
vt 0.182692 0.050795
vt 0.145623 0.064546
vt 0.109607 0.079627
vt 0.074666 0.095733
vt 0.040767 0.112509
vt 0.768681 0.077526
vt 0.733457 0.064898
vt 0.697239 0.052672
vt 0.660021 0.041307
vt 0.621855 0.031178
vt 0.582834 0.022591
vt 0.870583 0.922068
vt 0.848046 0.925548
vt 0.892930 0.917529
vt 0.915039 0.911940
vt 0.936860 0.905316
vt 0.958344 0.897669
vt 0.979443 0.889018
vt 0.560749 0.874156
vt 0.581182 0.884282
vt 0.602070 0.893432
vt 0.623366 0.901587
vt 0.645023 0.908729
vt 0.666993 0.914841
vt 0.689226 0.919911
vt 0.711674 0.923926
vt 0.734287 0.926879
vt 0.757012 0.928761
vt 0.779803 0.929570
vt 0.802605 0.929304
vt 0.825370 0.927962
vt 0.437528 0.540661
vt 0.433234 0.539064
vt 0.441596 0.542668
vt 0.445386 0.545071
vt 0.448843 0.547854
vt 0.451912 0.550995
vt 0.377312 0.559587
vt 0.379551 0.555797
vt 0.382264 0.552279
vt 0.385396 0.549066
vt 0.388896 0.546185
vt 0.392714 0.543658
vt 0.396798 0.541504
vt 0.401099 0.539741
vt 0.405570 0.538380
vt 0.410161 0.537433
vt 0.414825 0.536905
vt 0.419514 0.536804
vt 0.424178 0.537130
vt 0.428768 0.537884
vt 0.986364 0.904824
vt 0.540816 0.863079
vt 0.728264 0.200388
vt 0.007812 0.129536
vt 0.582498 0.464756
vt 0.663531 0.348413
vt 0.621498 0.807634
vt 0.062963 0.717487
vt 0.765470 0.464680
vt 0.141353 0.708453
vt 0.454534 0.554466
vn 0.885628 0.364530 0.287718
vn 0.753372 0.364533 0.547309
vn 0.782045 0.256090 0.568175
vn 0.919346 0.256090 0.298700
vn 0.547334 0.364532 0.753354
vn 0.568181 0.256090 0.782041
vn 0.287746 0.364529 0.885619
vn 0.298709 0.256090 0.919343
vn -0.000000 0.364526 0.931193
vn -0.000000 0.256089 0.966653
vn -0.287748 0.364529 0.885618
vn -0.298710 0.256089 0.919342
vn -0.547343 0.364531 0.753348
vn -0.568186 0.256089 0.782038
vn -0.753368 0.364530 0.547316
vn -0.782045 0.256089 0.568176
vn -0.885620 0.364533 0.287737
vn -0.919343 0.256090 0.298708
vn -0.931189 0.364536 -0.000000
vn -0.966653 0.256092 -0.000000
vn -0.885620 0.364532 -0.287737
vn -0.919343 0.256090 -0.298708
vn -0.753368 0.364531 -0.547315
vn -0.782045 0.256089 -0.568176
vn -0.547343 0.364530 -0.753348
vn -0.568186 0.256089 -0.782038
vn -0.287746 0.364527 -0.885620
vn -0.298709 0.256089 -0.919343
vn 0.000000 0.364526 -0.931193
vn 0.000000 0.256090 -0.966653
vn 0.287744 0.364531 -0.885619
vn 0.298708 0.256090 -0.919343
vn 0.547334 0.364532 -0.753354
vn 0.568181 0.256090 -0.782041
vn 0.753372 0.364531 -0.547309
vn 0.782047 0.256089 -0.568174
vn 0.885628 0.364529 -0.287718
vn 0.919346 0.256089 -0.298700
vn 0.931189 0.364536 0.000000
vn 0.966653 0.256092 -0.000003
vn 0.000000 1.000000 0.000003
vn 0.000000 1.000000 0.000000
vn 0.000000 1.000000 0.000001
vn 0.000000 1.000000 0.000000
vn 0.000000 1.000000 -0.000003
vn 0.000000 1.000000 0.000000
vn 0.000000 1.000000 -0.000003
vn 0.000000 1.000000 -0.000003
vn 0.000000 1.000000 0.000000
vn 0.000000 1.000000 0.000000
vn 0.000000 1.000000 0.000000
vn 0.000000 1.000000 0.000000
vn 0.000000 1.000000 0.000003
vn 0.000000 1.000000 0.000005
vn 0.000000 1.000000 0.000003
vn 0.000000 1.000000 0.000000
vn 0.000000 1.000000 0.000003
vn 0.000000 1.000000 0.000003
vn 0.000000 1.000000 0.000000
vn 0.000000 1.000000 0.000000
vn 0.000000 1.000000 0.000000
vn 0.000000 -1.000000 -0.000003
vn 0.000000 -1.000000 -0.000003
vn 0.000000 -1.000000 -0.000000
vn 0.000000 -1.000000 0.000000
vn 0.000000 -1.000000 0.000000
vn 0.000000 -1.000000 0.000000
vn 0.000000 -1.000000 0.000000
vn 0.000000 -1.000000 0.000000
vn 0.000000 -1.000000 0.000000
vn 0.000000 -1.000000 0.000000
vn 0.000000 -1.000000 0.000000
vn 0.000000 -1.000000 0.000000
vn 0.000000 -1.000000 0.000000
vn 0.000000 -1.000000 0.000000
vn 0.000000 -1.000000 0.000000
vn 0.000000 -1.000000 0.000000
vn 0.000000 -1.000000 -0.000002
vn 0.000000 -1.000000 -0.000002
vn 0.000000 -1.000000 0.000003
vn 0.000000 -1.000000 0.000003
vn 0.000000 -1.000000 0.000000
vn 1.000000 0.000000 -0.000000
vn 0.951056 0.000000 0.309019
vn 0.951056 0.000000 0.309019
vn 1.000000 0.000000 -0.000000
vn 0.951056 0.000000 -0.309018
vn 0.951056 0.000000 -0.309018
vn 0.809013 0.000000 -0.587791
vn 0.809013 0.000000 -0.587791
vn 0.587787 0.000000 -0.809016
vn 0.587787 0.000000 -0.809016
vn 0.309016 0.000000 -0.951057
vn 0.309016 0.000000 -0.951057
vn -0.000000 0.000000 -1.000000
vn -0.000000 0.000000 -1.000000
vn -0.309016 0.000000 -0.951057
vn -0.309016 0.000000 -0.951057
vn -0.587786 0.000000 -0.809017
vn -0.587786 0.000000 -0.809017
vn -0.809018 0.000000 -0.587785
vn -0.809018 0.000000 -0.587785
vn -0.951054 0.000000 -0.309024
vn -0.951054 0.000000 -0.309024
vn -1.000000 0.000000 -0.000000
vn -1.000000 0.000000 -0.000000
vn -0.951056 0.000000 0.309018
vn -0.951056 0.000000 0.309018
vn -0.809018 0.000000 0.587785
vn -0.809018 0.000000 0.587785
vn -0.587783 0.000000 0.809018
vn -0.587783 0.000000 0.809018
vn -0.309017 0.000000 0.951057
vn -0.309017 0.000000 0.951057
vn -0.000000 0.000000 1.000000
vn -0.000000 0.000000 1.000000
vn 0.309015 0.000000 0.951057
vn 0.309015 0.000000 0.951057
vn 0.587786 0.000000 0.809016
vn 0.587786 0.000000 0.809016
vn 0.809015 0.000000 0.587789
vn 0.809015 0.000000 0.587789
vn 1.000000 0.000000 0.000000
vn 0.951057 0.000000 0.309015
vn 0.951057 0.000000 0.309015
vn 1.000000 0.000000 0.000000
vn 0.951057 0.000000 -0.309015
vn 0.951057 0.000000 -0.309015
vn 0.809020 0.000000 -0.587782
vn 0.809020 0.000000 -0.587782
vn 0.587784 0.000000 -0.809018
vn 0.587784 0.000000 -0.809018
vn 0.309017 0.000000 -0.951057
vn 0.309017 0.000000 -0.951057
vn 0.000000 0.000000 -1.000000
vn 0.000000 0.000000 -1.000000
vn -0.309017 0.000000 -0.951057
vn -0.309017 0.000000 -0.951057
vn -0.587785 0.000000 -0.809017
vn -0.587785 0.000000 -0.809017
vn -0.809018 0.000000 -0.587784
vn -0.809018 0.000000 -0.587784
vn -0.951056 0.000000 -0.309020
vn -0.951056 0.000000 -0.309020
vn -1.000000 0.000000 -0.000000
vn -1.000000 0.000000 -0.000000
vn -0.951055 0.000000 0.309020
vn -0.951055 0.000000 0.309020
vn -0.809018 0.000000 0.587784
vn -0.809018 0.000000 0.587784
vn -0.587786 0.000000 0.809016
vn -0.587786 0.000000 0.809016
vn -0.309016 0.000000 0.951057
vn -0.309016 0.000000 0.951057
vn 0.000000 0.000000 1.000000
vn 0.000000 0.000000 1.000000
vn 0.309015 0.000000 0.951057
vn 0.309015 0.000000 0.951057
vn 0.587785 0.000000 0.809017
vn 0.587785 0.000000 0.809017
vn 0.809020 0.000000 0.587782
vn 0.809020 0.000000 0.587782
vn 1.000000 0.000000 0.000000
vn 0.951056 0.000000 0.309018
vn 0.951056 0.000000 0.309018
vn 1.000000 0.000000 0.000000
vn 0.951056 0.000000 -0.309019
vn 0.951056 0.000000 -0.309019
vn 0.809013 0.000000 -0.587790
vn 0.809013 0.000000 -0.587790
vn 0.587786 0.000000 -0.809017
vn 0.587786 0.000000 -0.809017
vn 0.309016 0.000000 -0.951057
vn 0.309016 0.000000 -0.951057
vn 0.000002 0.000000 -1.000000
vn 0.000002 0.000000 -1.000000
vn -0.309016 0.000000 -0.951057
vn -0.309016 0.000000 -0.951057
vn -0.587786 0.000000 -0.809016
vn -0.587786 0.000000 -0.809016
vn -0.809019 0.000000 -0.587782
vn -0.809019 0.000000 -0.587782
vn -0.951055 0.000000 -0.309022
vn -0.951055 0.000000 -0.309022
vn -1.000000 0.000000 -0.000009
vn -1.000000 0.000000 -0.000009
vn -0.951057 0.000000 0.309015
vn -0.951057 0.000000 0.309015
vn -0.809015 0.000000 0.587788
vn -0.809015 0.000000 0.587788
vn -0.587785 0.000000 0.809017
vn -0.587785 0.000000 0.809017
vn -0.309017 0.000000 0.951056
vn -0.309017 0.000000 0.951056
vn 0.000001 0.000000 1.000000
vn 0.000001 0.000000 1.000000
vn 0.309015 0.000000 0.951057
vn 0.309015 0.000000 0.951057
vn 0.587786 0.000000 0.809016
vn 0.587786 0.000000 0.809016
vn 0.809015 0.000000 0.587788
vn 0.809015 0.000000 0.587788
vn 0.988570 -0.150765 0.000000
vn 0.940185 -0.150765 0.305485
vn 0.940185 -0.150765 0.305485
vn 0.988570 -0.150765 0.000000
vn 0.940185 -0.150765 -0.305485
vn 0.940185 -0.150765 -0.305485
vn 0.799770 -0.150767 -0.581065
vn 0.799771 -0.150767 -0.581065
vn 0.581065 -0.150767 -0.799771
vn 0.581064 -0.150767 -0.799771
vn 0.305485 -0.150766 -0.940185
vn 0.305485 -0.150766 -0.940185
vn 0.000000 -0.150766 -0.988569
vn 0.000000 -0.150766 -0.988569
vn -0.305485 -0.150766 -0.940185
vn -0.305485 -0.150766 -0.940185
vn -0.581066 -0.150766 -0.799770
vn -0.581066 -0.150766 -0.799770
vn -0.799771 -0.150766 -0.581065
vn -0.799771 -0.150766 -0.581065
vn -0.940184 -0.150765 -0.305489
vn -0.940184 -0.150765 -0.305489
vn -0.988570 -0.150765 0.000000
vn -0.988570 -0.150765 0.000000
vn -0.940184 -0.150766 0.305490
vn -0.940184 -0.150766 0.305490
vn -0.799771 -0.150766 0.581065
vn -0.799771 -0.150766 0.581065
vn -0.581067 -0.150766 0.799769
vn -0.581067 -0.150766 0.799769
vn -0.305485 -0.150766 0.940185
vn -0.305485 -0.150766 0.940185
vn 0.000000 -0.150766 0.988569
vn 0.000000 -0.150766 0.988569
vn 0.305484 -0.150767 0.940186
vn 0.305484 -0.150767 0.940186
vn 0.581065 -0.150767 0.799771
vn 0.581065 -0.150767 0.799770
vn 0.799772 -0.150767 0.581063
vn 0.799772 -0.150767 0.581063
vn 0.987927 0.154919 -0.000004
vn 0.939575 0.154919 0.305284
vn 0.946794 0.094579 0.307630
vn 0.995517 0.094579 -0.000002
vn 0.939575 0.154919 -0.305286
vn 0.946793 0.094579 -0.307633
vn 0.799252 0.154919 -0.580687
vn 0.805392 0.094580 -0.585148
vn 0.580688 0.154919 -0.799250
vn 0.585151 0.094580 -0.805390
vn 0.305286 0.154919 -0.939575
vn 0.307631 0.094580 -0.946794
vn 0.000000 0.154919 -0.987927
vn 0.000000 0.094579 -0.995517
vn -0.305286 0.154919 -0.939575
vn -0.307633 0.094579 -0.946793
vn -0.580691 0.154918 -0.799249
vn -0.585152 0.094579 -0.805390
vn -0.799250 0.154918 -0.580690
vn -0.805389 0.094579 -0.585152
vn -0.939574 0.154919 -0.305288
vn -0.946792 0.094579 -0.307635
vn -0.987927 0.154920 -0.000000
vn -0.995517 0.094578 0.000000
vn -0.939574 0.154919 0.305288
vn -0.946792 0.094579 0.307635
vn -0.799249 0.154919 0.580690
vn -0.805389 0.094579 0.585152
vn -0.580691 0.154918 0.799249
vn -0.585152 0.094579 0.805389
vn -0.305287 0.154919 0.939574
vn -0.307633 0.094579 0.946793
vn -0.000000 0.154919 0.987927
vn -0.000000 0.094579 0.995517
vn 0.305285 0.154919 0.939575
vn 0.307630 0.094579 0.946794
vn 0.580687 0.154919 0.799251
vn 0.585149 0.094580 0.805391
vn 0.799250 0.154919 0.580688
vn 0.805392 0.094579 0.585148
vn 0.949388 0.059211 0.308474
vn 0.998246 0.059211 -0.000000
vn 0.949387 0.059212 -0.308477
vn 0.807600 0.059213 -0.586751
vn 0.586754 0.059213 -0.807597
vn 0.308474 0.059212 -0.949388
vn 0.000000 0.059212 -0.998245
vn -0.308476 0.059212 -0.949388
vn -0.586755 0.059213 -0.807597
vn -0.807596 0.059213 -0.586755
vn -0.949387 0.059210 -0.308478
vn -0.998246 0.059209 0.000000
vn -0.949387 0.059210 0.308478
vn -0.807596 0.059212 0.586756
vn -0.586756 0.059213 0.807596
vn -0.308476 0.059212 0.949388
vn 0.000000 0.059212 0.998246
vn 0.308473 0.059211 0.949388
vn 0.586753 0.059212 0.807598
vn 0.807600 0.059212 0.586750
vn 0.000000 -1.000000 -0.000001
vn 0.000000 -1.000000 0.000000
vn 0.000000 -1.000000 -0.000000
vn 0.000000 -1.000000 -0.000001
vn 0.000000 1.000000 0.000001
vn 0.000000 1.000000 -0.000001
vn 0.000000 1.000000 -0.000001
vn 0.000000 1.000000 0.000001
vn 0.000000 -1.000000 0.000000
vn 0.000000 -1.000000 0.000000
vn 0.000000 1.000000 -0.000003
vn 0.000000 1.000000 -0.000003
vn 0.000000 -1.000000 0.000002
vn 0.000000 -1.000000 0.000002
vn 0.000000 1.000000 -0.000004
vn 0.000000 1.000000 -0.000004
vn 0.000000 -1.000000 0.000001
vn 0.000000 -1.000000 0.000001
vn 0.000000 1.000000 -0.000005
vn 0.000000 1.000000 -0.000005
vn 0.000000 -1.000000 -0.000000
vn 0.000000 -1.000000 -0.000000
vn 0.000000 1.000000 -0.000001
vn 0.000000 1.000000 -0.000001
vn 0.000000 -1.000000 -0.000001
vn 0.000000 -1.000000 -0.000001
vn 0.000000 1.000000 0.000002
vn 0.000000 1.000000 0.000002
vn 0.000000 -1.000000 -0.000001
vn 0.000000 -1.000000 -0.000001
vn 0.000000 1.000000 0.000002
vn 0.000000 1.000000 0.000002
vn 0.000000 -1.000000 0.000001
vn 0.000000 -1.000000 0.000001
vn 0.000000 1.000000 0.000003
vn 0.000000 1.000000 0.000003
vn 0.000000 -1.000000 0.000002
vn 0.000000 -1.000000 0.000002
vn 0.000000 1.000000 0.000000
vn 0.000000 1.000000 -0.000000
vn 0.000000 -1.000000 0.000001
vn 0.000000 -1.000000 0.000001
vn 0.000000 1.000000 0.000000
vn 0.000000 1.000000 -0.000000
vn 0.000000 -1.000000 0.000001
vn 0.000000 -1.000000 0.000001
vn 0.000000 1.000000 -0.000000
vn 0.000000 1.000000 -0.000000
vn 0.000000 -1.000000 0.000001
vn 0.000000 -1.000000 0.000001
vn 0.000000 1.000000 -0.000000
vn 0.000000 1.000000 -0.000000
vn 0.000000 -1.000000 -0.000002
vn 0.000000 -1.000000 -0.000002
vn 0.000000 1.000000 0.000001
vn 0.000000 1.000000 0.000001
vn 0.000000 -1.000000 -0.000003
vn 0.000000 -1.000000 -0.000003
vn 0.000000 1.000000 -0.000002
vn 0.000000 1.000000 -0.000002
vn 0.000000 -1.000000 -0.000001
vn 0.000000 -1.000000 -0.000001
vn 0.000000 1.000000 -0.000004
vn 0.000000 1.000000 -0.000004
vn 0.000000 -1.000000 -0.000000
vn 0.000000 -1.000000 -0.000000
vn 0.000000 1.000000 -0.000005
vn 0.000000 1.000000 -0.000005
vn 0.000000 -1.000000 -0.000000
vn 0.000000 -1.000000 -0.000000
vn 0.000000 1.000000 -0.000005
vn 0.000000 1.000000 -0.000005
vn 0.000000 -1.000000 -0.000001
vn 0.000000 -1.000000 -0.000001
vn 0.000000 1.000000 -0.000000
vn 0.000000 1.000000 -0.000000
vn 0.000000 -1.000000 0.000000
vn 0.000000 -1.000000 -0.000000
vn 0.000000 1.000000 0.000002
vn 0.000000 1.000000 0.000002
vn 0.000000 -1.000000 -0.000000
vn 0.000000 -1.000000 0.000002
vn 0.000000 -1.000000 0.000002
vn 0.000000 -1.000000 -0.000000
vn 0.000000 1.000000 0.000001
vn 0.000000 1.000000 0.000000
vn 0.000000 1.000000 0.000000
vn 0.000000 1.000000 0.000001
vn 0.000000 -1.000000 -0.000001
vn 0.000000 -1.000000 -0.000001
vn 0.000000 1.000000 -0.000002
vn 0.000000 1.000000 -0.000002
vn 0.000000 -1.000000 0.000000
vn 0.000000 -1.000000 0.000000
vn 0.000000 1.000000 -0.000002
vn 0.000000 1.000000 -0.000002
vn 0.000000 -1.000000 -0.000002
vn 0.000000 -1.000000 -0.000002
vn 0.000000 1.000000 -0.000000
vn 0.000000 1.000000 0.000000
vn 0.000000 -1.000000 0.000002
vn 0.000000 -1.000000 0.000002
vn 0.000000 1.000000 -0.000001
vn 0.000000 1.000000 -0.000001
vn 0.000000 -1.000000 0.000004
vn 0.000000 -1.000000 0.000004
vn 0.000000 1.000000 -0.000002
vn 0.000000 1.000000 -0.000002
vn 0.000000 -1.000000 0.000003
vn 0.000000 -1.000000 0.000003
vn 0.000000 1.000000 -0.000002
vn 0.000000 1.000000 -0.000002
vn 0.000000 -1.000000 0.000001
vn 0.000000 -1.000000 0.000001
vn 0.000000 1.000000 -0.000002
vn 0.000000 1.000000 -0.000002
vn 0.000000 -1.000000 -0.000002
vn 0.000000 -1.000000 -0.000002
vn 0.000000 1.000000 -0.000001
vn 0.000000 1.000000 -0.000001
vn 0.000000 -1.000000 0.000000
vn 0.000000 -1.000000 0.000000
vn 0.000000 1.000000 0.000000
vn 0.000000 1.000000 0.000000
vn 0.000000 -1.000000 0.000000
vn 0.000000 -1.000000 0.000000
vn 0.000000 1.000000 0.000000
vn 0.000000 1.000000 0.000000
vn 0.000000 -1.000000 0.000001
vn 0.000000 -1.000000 0.000001
vn 0.000000 1.000000 0.000002
vn 0.000000 1.000000 0.000002
vn 0.000000 -1.000000 0.000002
vn 0.000000 -1.000000 0.000002
vn 0.000000 1.000000 0.000002
vn 0.000000 1.000000 0.000002
vn 0.000000 -1.000000 -0.000002
vn 0.000000 -1.000000 -0.000002
vn 0.000000 1.000000 0.000002
vn 0.000000 1.000000 0.000002
vn 0.000000 -1.000000 -0.000003
vn 0.000000 -1.000000 -0.000003
vn 0.000000 1.000000 0.000001
vn 0.000000 1.000000 0.000001
vn 0.000000 -1.000000 -0.000002
vn 0.000000 -1.000000 -0.000002
vn 0.000000 1.000000 0.000002
vn 0.000000 1.000000 0.000002
vn 0.000000 -1.000000 -0.000001
vn 0.000000 -1.000000 -0.000001
vn 0.000000 1.000000 0.000005
vn 0.000000 1.000000 0.000005
vn 0.000000 -1.000000 -0.000000
vn 0.000000 -1.000000 0.000000
vn 0.000000 1.000000 0.000002
vn 0.000000 1.000000 0.000002
vn 0.000000 -1.000000 0.000000
vn 0.000000 -1.000000 -0.000000
vn 0.000000 1.000000 0.000002
vn 0.000000 1.000000 0.000002
vn 0.988568 -0.150775 -0.000000
vn 0.940184 -0.150780 0.305483
vn 0.940184 -0.150780 0.305484
vn 0.988568 -0.150775 -0.000000
vn 0.940185 -0.150771 -0.305483
vn 0.940185 -0.150771 -0.305484
vn 0.799769 -0.150774 -0.581066
vn 0.799767 -0.150774 -0.581068
vn 0.581066 -0.150768 -0.799769
vn 0.581065 -0.150768 -0.799770
vn 0.305484 -0.150766 -0.940186
vn 0.305486 -0.150766 -0.940185
vn -0.000000 -0.150770 -0.988569
vn -0.000000 -0.150770 -0.988569
vn -0.305485 -0.150774 -0.940184
vn -0.305481 -0.150774 -0.940185
vn -0.581062 -0.150775 -0.799771
vn -0.581061 -0.150775 -0.799772
vn -0.799770 -0.150773 -0.581065
vn -0.799769 -0.150773 -0.581065
vn -0.940185 -0.150778 -0.305481
vn -0.940185 -0.150778 -0.305481
vn -0.988567 -0.150781 0.000000
vn -0.988567 -0.150781 0.000000
vn -0.940184 -0.150781 0.305481
vn -0.940184 -0.150781 0.305482
vn -0.799770 -0.150777 0.581064
vn -0.799769 -0.150777 0.581065
vn -0.581063 -0.150776 0.799770
vn -0.581062 -0.150776 0.799771
vn -0.305485 -0.150773 0.940184
vn -0.305481 -0.150773 0.940186
vn 0.000000 -0.150767 0.988569
vn 0.000000 -0.150767 0.988569
vn 0.305483 -0.150765 0.940186
vn 0.305485 -0.150765 0.940185
vn 0.581067 -0.150772 0.799768
vn 0.581066 -0.150772 0.799769
vn 0.799770 -0.150778 0.581063
vn 0.799768 -0.150778 0.581065
vn 0.987186 -0.159571 0.000001
vn 0.938871 -0.159570 0.305055
vn 0.938871 -0.159570 0.305056
vn 0.987186 -0.159571 0.000001
vn 0.938871 -0.159572 -0.305053
vn 0.938870 -0.159572 -0.305056
vn 0.798650 -0.159557 -0.580258
vn 0.798654 -0.159557 -0.580253
vn 0.580255 -0.159585 -0.798647
vn 0.580250 -0.159585 -0.798650
vn 0.305054 -0.159603 -0.938866
vn 0.305054 -0.159603 -0.938866
vn -0.000001 -0.159593 -0.987183
vn -0.000001 -0.159593 -0.987183
vn -0.305056 -0.159600 -0.938866
vn -0.305056 -0.159600 -0.938866
vn -0.580248 -0.159587 -0.798652
vn -0.580242 -0.159587 -0.798656
vn -0.798648 -0.159586 -0.580254
vn -0.798651 -0.159586 -0.580250
vn -0.938866 -0.159609 -0.305050
vn -0.938866 -0.159609 -0.305050
vn -0.987178 -0.159623 -0.000001
vn -0.987178 -0.159623 -0.000001
vn -0.938863 -0.159621 0.305053
vn -0.938863 -0.159621 0.305053
vn -0.798646 -0.159609 0.580249
vn -0.798646 -0.159609 0.580249
vn -0.580249 -0.159608 0.798646
vn -0.580245 -0.159608 0.798650
vn -0.305055 -0.159610 0.938864
vn -0.305056 -0.159610 0.938864
vn 0.000000 -0.159604 0.987181
vn 0.000000 -0.159604 0.987181
vn 0.305052 -0.159613 0.938865
vn 0.305053 -0.159613 0.938865
vn 0.580249 -0.159625 0.798643
vn 0.580242 -0.159625 0.798648
vn 0.798646 -0.159603 0.580251
vn 0.798651 -0.159603 0.580244
vn 0.527142 -0.849778 0.000000
vn 0.501347 -0.849774 0.162897
vn 0.501347 -0.849774 0.162897
vn 0.527142 -0.849778 0.000000
vn 0.717556 0.656320 0.233144
vn 0.754479 0.656324 0.000000
vn 0.754479 0.656324 0.000000
vn 0.717556 0.656320 0.233145
vn 0.501350 -0.849772 -0.162899
vn 0.501350 -0.849772 -0.162899
vn 0.717558 0.656318 -0.233147
vn 0.717557 0.656318 -0.233147
vn 0.426478 -0.849769 -0.309855
vn 0.426478 -0.849769 -0.309855
vn 0.610392 0.656315 -0.443477
vn 0.610393 0.656315 -0.443476
vn 0.309854 -0.849768 -0.426481
vn 0.309855 -0.849768 -0.426480
vn 0.443473 0.656314 -0.610397
vn 0.443472 0.656314 -0.610397
vn 0.162899 -0.849769 -0.501355
vn 0.162900 -0.849769 -0.501354
vn 0.233148 0.656317 -0.717558
vn 0.233148 0.656317 -0.717558
vn 0.000000 -0.849769 -0.527155
vn 0.000000 -0.849769 -0.527155
vn -0.000001 0.656323 -0.754480
vn -0.000001 0.656323 -0.754480
vn -0.162899 -0.849769 -0.501355
vn -0.162898 -0.849769 -0.501355
vn -0.233147 0.656328 -0.717549
vn -0.233143 0.656328 -0.717550
vn -0.309850 -0.849771 -0.426478
vn -0.309850 -0.849771 -0.426477
vn -0.443468 0.656326 -0.610387
vn -0.443466 0.656326 -0.610389
vn -0.426479 -0.849767 -0.309856
vn -0.426480 -0.849767 -0.309855
vn -0.610389 0.656321 -0.443473
vn -0.610389 0.656321 -0.443472
vn -0.501355 -0.849768 -0.162903
vn -0.501355 -0.849768 -0.162904
vn -0.717551 0.656327 -0.233143
vn -0.717551 0.656327 -0.233143
vn -0.527155 -0.849769 -0.000002
vn -0.527155 -0.849769 -0.000002
vn -0.754472 0.656333 -0.000000
vn -0.754472 0.656333 -0.000000
vn -0.501358 -0.849766 0.162902
vn -0.501358 -0.849766 0.162902
vn -0.717545 0.656334 0.233143
vn -0.717544 0.656334 0.233143
vn -0.426482 -0.849766 0.309857
vn -0.426483 -0.849766 0.309856
vn -0.610382 0.656331 0.443467
vn -0.610381 0.656331 0.443468
vn -0.309852 -0.849771 0.426476
vn -0.309852 -0.849771 0.426476
vn -0.443468 0.656331 0.610382
vn -0.443466 0.656331 0.610383
vn -0.162899 -0.849772 0.501350
vn -0.162898 -0.849772 0.501351
vn -0.233146 0.656329 0.717548
vn -0.233142 0.656329 0.717550
vn 0.000000 -0.849770 0.527153
vn 0.000000 -0.849770 0.527153
vn -0.000000 0.656325 0.754479
vn -0.000000 0.656325 0.754479
vn 0.162899 -0.849768 0.501357
vn 0.162899 -0.849768 0.501357
vn 0.233147 0.656324 0.717552
vn 0.233147 0.656324 0.717552
vn 0.309856 -0.849765 0.426484
vn 0.309858 -0.849765 0.426484
vn 0.443466 0.656326 0.610389
vn 0.443466 0.656326 0.610389
vn 0.426484 -0.849766 0.309853
vn 0.426484 -0.849766 0.309853
vn 0.610387 0.656325 0.443471
vn 0.610387 0.656325 0.443471
vn 0.000000 -1.000000 0.000000
vn 0.000000 -1.000000 -0.000000
vn 0.000000 -1.000000 -0.000000
vn 0.000000 -1.000000 -0.000000
vn 0.000000 -1.000000 0.000001
vn 0.000000 -1.000000 0.000001
vn 0.000000 -1.000000 0.000005
vn 0.000000 -1.000000 0.000005
vn 0.000000 -1.000000 -0.000002
vn 0.000000 -1.000000 -0.000002
vn 0.000000 -1.000000 -0.000006
vn 0.000000 -1.000000 -0.000006
vn 0.000000 -1.000000 -0.000003
vn 0.000000 -1.000000 -0.000003
vn 0.000000 -1.000000 -0.000001
vn 0.000000 -1.000000 -0.000001
vn 0.000000 -1.000000 0.000000
vn 0.000000 -1.000000 0.000000
vn 0.000000 -1.000000 0.000002
vn 0.000000 -1.000000 0.000002
vn 0.000000 -1.000000 -0.000000
vn 0.000000 -1.000000 -0.000000
vn 0.000000 -1.000000 0.000000
vn 0.000000 -1.000000 -0.000000
vn 0.000000 -1.000000 0.000003
vn 0.000000 -1.000000 0.000003
vn 0.000000 -1.000000 0.000004
vn 0.000000 -1.000000 0.000004
vn 0.000000 -1.000000 -0.000002
vn 0.000000 -1.000000 -0.000002
vn 0.000000 -1.000000 -0.000006
vn 0.000000 -1.000000 -0.000006
vn 0.000000 -1.000000 -0.000001
vn 0.000000 -1.000000 -0.000001
vn 0.000000 -1.000000 0.000001
vn 0.000000 -1.000000 0.000001
vn 0.000000 -1.000000 0.000002
vn 0.000000 -1.000000 0.000002
vn 0.000000 -1.000000 0.000000
vn 0.000000 -1.000000 0.000000
vn -0.951058 0.000000 -0.309014
vn -0.809019 0.000000 -0.587782
vn -0.809019 0.000000 -0.587782
vn -0.951058 0.000000 -0.309014
vn -0.587788 0.000000 -0.809015
vn -0.587788 0.000000 -0.809015
vn -0.309014 0.000000 -0.951057
vn -0.309014 0.000000 -0.951057
vn 0.000000 0.000000 -1.000000
vn 0.000000 0.000000 -1.000000
vn 0.309019 0.000000 -0.951056
vn 0.309019 0.000000 -0.951056
vn 0.587785 0.000000 -0.809017
vn 0.587785 0.000000 -0.809017
vn 0.809023 0.000000 -0.587777
vn 0.809023 0.000000 -0.587777
vn 0.951057 0.000000 -0.309015
vn 0.951057 0.000000 -0.309015
vn 1.000000 0.000000 0.000000
vn 1.000000 0.000000 0.000000
vn 0.951057 0.000000 0.309014
vn 0.951057 0.000000 0.309014
vn 0.809023 0.000000 0.587778
vn 0.809023 0.000000 0.587778
vn 0.587784 0.000000 0.809018
vn 0.587784 0.000000 0.809018
vn 0.309019 0.000000 0.951056
vn 0.309019 0.000000 0.951056
vn 0.000000 0.000000 1.000000
vn 0.000000 0.000000 1.000000
vn -0.309013 0.000000 0.951058
vn -0.309013 0.000000 0.951058
vn -0.587786 0.000000 0.809016
vn -0.587786 0.000000 0.809016
vn -0.809017 0.000000 0.587785
vn -0.809017 0.000000 0.587785
vn -0.951058 0.000000 0.309014
vn -0.951058 0.000000 0.309014
vn -1.000000 0.000000 -0.000000
vn -1.000000 0.000000 -0.000000
s 1
g pCylinder8
usemtl initialShadingGroup
f 1/544/1 2/562/2 161/3/3 142/4/4
f 2/562/2 3/561/5 160/6/6 161/3/3
f 3/561/5 4/560/7 159/8/8 160/6/6
f 4/560/7 5/559/9 158/10/10 159/8/8
f 5/559/9 6/558/11 157/12/12 158/10/10
f 6/558/11 7/557/13 156/14/14 157/12/12
f 7/557/13 8/556/15 155/16/16 156/14/14
f 8/556/15 9/555/17 154/18/18 155/16/16
f 9/555/17 10/554/19 153/20/20 154/18/18
f 10/554/19 11/553/21 152/22/22 153/20/20
f 11/553/21 12/552/23 151/24/24 152/22/22
f 12/552/23 13/551/25 150/26/26 151/24/24
f 13/551/25 14/550/27 149/28/28 150/26/26
f 14/550/27 15/549/29 148/30/30 149/28/28
f 15/573/29 16/548/31 147/32/32 148/567/30
f 16/548/31 17/547/33 146/34/34 147/32/32
f 17/547/33 18/546/35 145/36/36 146/34/34
f 18/546/35 19/545/37 144/38/38 145/36/36
f 19/545/37 20/543/39 143/40/40 144/38/38
f 20/543/39 1/544/1 142/4/4 143/40/40
s 2
f 2/2/41 1/1/42 41/41/43
f 3/5/44 2/2/41 41/41/43
f 4/7/45 3/5/44 41/41/43
f 5/9/46 4/7/45 41/41/43
f 6/11/47 5/9/46 41/41/43
f 7/13/48 6/11/47 41/41/43
f 8/15/49 7/13/48 41/41/43
f 9/17/50 8/15/49 41/41/43
f 10/19/51 9/17/50 41/41/43
f 11/21/52 10/19/51 41/41/43
f 12/23/53 11/21/52 41/41/43
f 13/25/54 12/23/53 41/41/43
f 14/27/55 13/25/54 41/41/43
f 15/29/56 14/27/55 41/41/43
f 16/31/57 15/29/56 41/41/43
f 17/33/58 16/31/57 41/41/43
f 18/35/59 17/33/58 41/41/43
f 19/37/60 18/35/59 41/41/43
f 20/39/61 19/37/60 41/41/43
f 1/1/42 20/39/61 41/41/43
s 3
f 362/42/62 363/43/63 364/44/64
f 363/43/63 365/45/65 364/44/64
f 365/45/65 366/46/66 364/44/64
f 366/46/66 367/47/67 364/44/64
f 367/47/67 368/48/68 364/44/64
f 368/48/68 369/49/69 364/44/64
f 369/49/69 370/50/70 364/44/64
f 370/50/70 371/51/71 364/44/64
f 371/51/71 372/52/72 364/44/64
f 372/52/72 373/53/73 364/44/64
f 373/53/73 374/54/74 364/44/64
f 374/54/74 375/55/75 364/44/64
f 375/55/75 376/56/76 364/44/64
f 376/56/76 377/57/77 364/44/64
f 377/57/77 378/58/78 364/44/64
f 378/58/78 379/59/79 364/44/64
f 379/59/79 380/60/80 364/44/64
f 380/60/80 381/61/81 364/44/64
f 381/61/81 382/62/82 364/44/64
f 382/62/82 362/42/62 364/44/64
s 4
f 183/63/83 182/64/84 184/65/85 185/66/86
f 186/67/87 183/63/83 185/66/86 187/68/88
f 188/69/89 186/67/87 187/68/88 189/70/90
f 190/71/91 188/69/89 189/70/90 191/72/92
f 192/73/93 190/71/91 191/72/92 193/74/94
f 194/75/95 192/73/93 193/74/94 195/76/96
f 196/77/97 194/75/95 195/76/96 197/78/98
f 198/79/99 196/77/97 197/78/98 199/80/100
f 200/81/101 198/79/99 199/80/100 201/82/102
f 202/83/103 200/81/101 201/82/102 203/84/104
f 204/85/105 202/83/103 203/84/104 205/86/106
f 206/87/107 204/85/105 205/86/106 207/88/108
f 208/89/109 206/87/107 207/88/108 209/90/110
f 210/91/111 208/89/109 209/90/110 211/92/112
f 212/93/113 210/91/111 211/92/112 213/94/114
f 214/95/115 212/93/113 213/94/114 215/96/116
f 216/97/117 214/95/115 215/96/116 217/98/118
f 218/99/119 216/97/117 217/98/118 219/100/120
f 220/101/121 218/99/119 219/100/120 221/102/122
f 182/64/84 220/101/121 221/102/122 184/65/85
s 5
f 63/502/123 62/484/124 82/464/125 83/482/126
f 64/501/127 63/502/123 83/482/126 84/481/128
f 65/500/129 64/501/127 84/481/128 85/480/130
f 66/499/131 65/500/129 85/480/130 86/479/132
f 67/498/133 66/499/131 86/479/132 87/478/134
f 68/571/135 67/498/133 87/478/134 88/477/136
f 69/496/137 68/497/135 88/572/136 89/476/138
f 70/495/139 69/496/137 89/476/138 90/475/140
f 71/494/141 70/495/139 90/475/140 91/474/142
f 72/493/143 71/494/141 91/474/142 92/473/144
f 73/492/145 72/493/143 92/473/144 93/472/146
f 74/491/147 73/492/145 93/472/146 94/471/148
f 75/490/149 74/491/147 94/471/148 95/470/150
f 76/489/151 75/490/149 95/470/150 96/469/152
f 77/488/153 76/489/151 96/469/152 97/468/154
f 78/487/155 77/488/153 97/468/154 98/467/156
f 79/486/157 78/487/155 98/467/156 99/466/158
f 80/485/159 79/486/157 99/466/158 100/465/160
f 81/483/161 80/485/159 100/465/160 101/463/162
f 62/484/124 81/483/161 101/463/162 82/464/125
s 6
f 223/143/163 222/144/164 224/145/165 225/146/166
f 226/147/167 223/143/163 225/146/166 227/148/168
f 228/149/169 226/147/167 227/148/168 229/150/170
f 230/151/171 228/149/169 229/150/170 231/152/172
f 232/153/173 230/151/171 231/152/172 233/154/174
f 234/155/175 232/153/173 233/154/174 235/156/176
f 236/157/177 234/155/175 235/156/176 237/158/178
f 238/159/179 236/157/177 237/158/178 239/160/180
f 240/161/181 238/159/179 239/160/180 241/162/182
f 242/163/183 240/161/181 241/162/182 243/164/184
f 244/165/185 242/163/183 243/164/184 245/166/186
f 246/167/187 244/165/185 245/166/186 247/168/188
f 248/169/189 246/167/187 247/168/188 249/170/190
f 250/171/191 248/169/189 249/170/190 251/172/192
f 252/173/193 250/171/191 251/172/192 253/174/194
f 254/175/195 252/173/193 253/174/194 255/176/196
f 256/177/197 254/175/195 255/176/196 257/178/198
f 258/179/199 256/177/197 257/178/198 259/180/200
f 260/181/201 258/179/199 259/180/200 261/182/202
f 222/144/164 260/181/201 261/182/202 224/145/165
s 7
f 103/462/203 102/444/204 282/404/205 283/422/206
f 104/461/207 103/462/203 283/422/206 284/421/208
f 105/460/209 104/461/207 284/421/208 285/420/210
f 106/459/211 105/460/209 285/420/210 286/419/212
f 107/458/213 106/459/211 286/419/212 287/418/214
f 108/569/215 107/458/213 287/418/214 288/417/216
f 109/456/217 108/457/215 288/570/216 289/416/218
f 110/455/219 109/456/217 289/416/218 290/415/220
f 111/454/221 110/455/219 290/415/220 291/414/222
f 112/453/223 111/454/221 291/414/222 292/413/224
f 113/452/225 112/453/223 292/413/224 293/412/226
f 114/451/227 113/452/225 293/412/226 294/411/228
f 115/450/229 114/451/227 294/411/228 295/410/230
f 116/449/231 115/450/229 295/410/230 296/409/232
f 117/448/233 116/449/231 296/409/232 297/408/234
f 118/447/235 117/448/233 297/408/234 298/407/236
f 119/446/237 118/447/235 298/407/236 299/406/238
f 120/445/239 119/446/237 299/406/238 300/405/240
f 121/443/241 120/445/239 300/405/240 301/403/242
f 102/444/204 121/443/241 301/403/242 282/404/205
s 1
f 123/223/243 122/224/244 162/225/245 163/226/246
f 124/227/247 123/223/243 163/226/246 164/228/248
f 125/229/249 124/227/247 164/228/248 165/230/250
f 126/231/251 125/229/249 165/230/250 166/232/252
f 127/233/253 126/231/251 166/232/252 167/234/254
f 128/568/255 127/233/253 167/234/254 168/565/256
f 129/237/257 128/235/255 168/236/256 169/238/258
f 130/239/259 129/237/257 169/238/258 170/240/260
f 131/241/261 130/239/259 170/240/260 171/242/262
f 132/243/263 131/241/261 171/242/262 172/244/264
f 133/245/265 132/243/263 172/244/264 173/246/266
f 134/247/267 133/245/265 173/246/266 174/248/268
f 135/249/269 134/247/267 174/248/268 175/250/270
f 136/251/271 135/249/269 175/250/270 176/252/272
f 137/253/273 136/251/271 176/252/272 177/254/274
f 138/255/275 137/253/273 177/254/274 178/256/276
f 139/257/277 138/255/275 178/256/276 179/258/278
f 140/259/279 139/257/277 179/258/278 180/260/280
f 141/261/281 140/259/279 180/260/280 181/262/282
f 122/224/244 141/261/281 181/262/282 162/225/245
f 143/40/40 142/4/4 122/224/244 123/223/243
f 144/38/38 143/40/40 123/223/243 124/227/247
f 145/36/36 144/38/38 124/227/247 125/229/249
f 146/34/34 145/36/36 125/229/249 126/231/251
f 147/32/32 146/34/34 126/231/251 127/233/253
f 148/567/30 147/32/32 127/233/253 128/568/255
f 149/28/28 148/30/30 128/235/255 129/237/257
f 150/26/26 149/28/28 129/237/257 130/239/259
f 151/24/24 150/26/26 130/239/259 131/241/261
f 152/22/22 151/24/24 131/241/261 132/243/263
f 153/20/20 152/22/22 132/243/263 133/245/265
f 154/18/18 153/20/20 133/245/265 134/247/267
f 155/16/16 154/18/18 134/247/267 135/249/269
f 156/14/14 155/16/16 135/249/269 136/251/271
f 157/12/12 156/14/14 136/251/271 137/253/273
f 158/10/10 157/12/12 137/253/273 138/255/275
f 159/8/8 158/10/10 138/255/275 139/257/277
f 160/6/6 159/8/8 139/257/277 140/259/279
f 161/3/3 160/6/6 140/259/279 141/261/281
f 142/4/4 161/3/3 141/261/281 122/224/244
f 163/226/246 162/225/245 42/504/283 43/522/284
f 164/228/248 163/226/246 43/522/284 44/521/285
f 165/230/250 164/228/248 44/521/285 45/520/286
f 166/232/252 165/230/250 45/520/286 46/519/287
f 167/234/254 166/232/252 46/519/287 47/518/288
f 168/565/256 167/234/254 47/518/288 48/517/289
f 169/238/258 168/236/256 48/566/289 49/516/290
f 170/240/260 169/238/258 49/516/290 50/515/291
f 171/242/262 170/240/260 50/515/291 51/514/292
f 172/244/264 171/242/262 51/514/292 52/513/293
f 173/246/266 172/244/264 52/513/293 53/512/294
f 174/248/268 173/246/266 53/512/294 54/511/295
f 175/250/270 174/248/268 54/511/295 55/510/296
f 176/252/272 175/250/270 55/510/296 56/509/297
f 177/254/274 176/252/272 56/509/297 57/508/298
f 178/256/276 177/254/274 57/508/298 58/507/299
f 179/258/278 178/256/276 58/507/299 59/506/300
f 180/260/280 179/258/278 59/506/300 60/505/301
f 181/262/282 180/260/280 60/505/301 61/503/302
f 162/225/245 181/262/282 61/503/302 42/504/283
s 8
f 43/264/303 42/263/304 182/64/305 183/63/306
s 9
f 62/104/307 63/103/308 185/66/309 184/65/310
s 8
f 44/265/311 43/264/303 183/63/306 186/67/312
s 9
f 63/103/308 64/107/313 187/68/314 185/66/309
s 8
f 45/266/315 44/265/311 186/67/312 188/69/316
s 9
f 64/107/313 65/109/317 189/70/318 187/68/314
s 8
f 46/267/319 45/266/315 188/69/316 190/71/320
s 9
f 65/109/317 66/111/321 191/72/322 189/70/318
s 8
f 47/268/323 46/267/319 190/71/320 192/73/324
s 9
f 66/111/321 67/113/325 193/74/326 191/72/322
s 8
f 48/269/327 47/268/323 192/73/324 194/75/328
s 9
f 67/113/325 68/115/329 195/76/330 193/74/326
s 8
f 49/270/331 48/269/327 194/75/328 196/77/332
s 9
f 68/115/329 69/117/333 197/78/334 195/76/330
s 8
f 50/271/335 49/270/331 196/77/332 198/79/336
s 9
f 69/117/333 70/119/337 199/80/338 197/78/334
s 8
f 51/272/339 50/271/335 198/79/336 200/81/340
s 9
f 70/119/337 71/121/341 201/82/342 199/80/338
s 8
f 52/273/343 51/272/339 200/81/340 202/83/344
s 9
f 71/121/341 72/123/345 203/84/346 201/82/342
s 8
f 53/274/347 52/273/343 202/83/344 204/85/348
s 9
f 72/123/345 73/125/349 205/86/350 203/84/346
s 8
f 54/275/351 53/274/347 204/85/348 206/87/352
s 9
f 73/125/349 74/127/353 207/88/354 205/86/350
s 8
f 55/276/355 54/275/351 206/87/352 208/89/356
s 9
f 74/127/353 75/129/357 209/90/358 207/88/354
s 8
f 56/277/359 55/276/355 208/89/356 210/91/360
s 9
f 75/129/357 76/131/361 211/92/362 209/90/358
s 8
f 57/278/363 56/277/359 210/91/360 212/93/364
s 9
f 76/131/361 77/133/365 213/94/366 211/92/362
s 8
f 58/279/367 57/278/363 212/93/364 214/95/368
s 9
f 77/133/365 78/135/369 215/96/370 213/94/366
s 8
f 59/280/371 58/279/367 214/95/368 216/97/372
s 9
f 78/135/369 79/137/373 217/98/374 215/96/370
s 8
f 60/281/375 59/280/371 216/97/372 218/99/376
s 9
f 79/137/373 80/139/377 219/100/378 217/98/374
s 8
f 61/282/379 60/281/375 218/99/376 220/101/380
s 9
f 80/139/377 81/141/381 221/102/382 219/100/378
s 8
f 42/263/304 61/282/379 220/101/380 182/64/305
s 9
f 81/141/381 62/104/307 184/65/310 221/102/382
s 10
f 83/106/383 82/105/384 222/144/385 223/143/386
s 11
f 102/184/387 103/183/388 225/146/389 224/145/390
s 10
f 84/108/391 83/106/383 223/143/386 226/147/392
s 11
f 103/183/388 104/187/393 227/148/394 225/146/389
s 10
f 85/110/395 84/108/391 226/147/392 228/149/396
s 11
f 104/187/393 105/189/397 229/150/398 227/148/394
s 10
f 86/112/399 85/110/395 228/149/396 230/151/400
s 11
f 105/189/397 106/191/401 231/152/402 229/150/398
s 10
f 87/114/403 86/112/399 230/151/400 232/153/404
s 11
f 106/191/401 107/193/405 233/154/406 231/152/402
s 10
f 88/116/407 87/114/403 232/153/404 234/155/408
s 11
f 107/193/405 108/195/409 235/156/410 233/154/406
s 10
f 89/118/411 88/116/407 234/155/408 236/157/412
s 11
f 108/195/409 109/197/413 237/158/414 235/156/410
s 10
f 90/120/415 89/118/411 236/157/412 238/159/416
s 11
f 109/197/413 110/199/417 239/160/418 237/158/414
s 10
f 91/122/419 90/120/415 238/159/416 240/161/420
s 11
f 110/199/417 111/201/421 241/162/422 239/160/418
s 10
f 92/124/423 91/122/419 240/161/420 242/163/424
s 11
f 111/201/421 112/203/425 243/164/426 241/162/422
s 10
f 93/126/427 92/124/423 242/163/424 244/165/428
s 11
f 112/203/425 113/205/429 245/166/430 243/164/426
s 10
f 94/128/431 93/126/427 244/165/428 246/167/432
s 11
f 113/205/429 114/207/433 247/168/434 245/166/430
s 10
f 95/130/435 94/128/431 246/167/432 248/169/436
s 11
f 114/207/433 115/209/437 249/170/438 247/168/434
s 10
f 96/132/439 95/130/435 248/169/436 250/171/440
s 11
f 115/209/437 116/211/441 251/172/442 249/170/438
s 10
f 97/134/443 96/132/439 250/171/440 252/173/444
s 11
f 116/211/441 117/213/445 253/174/446 251/172/442
s 10
f 98/136/447 97/134/443 252/173/444 254/175/448
s 11
f 117/213/445 118/215/449 255/176/450 253/174/446
s 10
f 99/138/451 98/136/447 254/175/448 256/177/452
s 11
f 118/215/449 119/217/453 257/178/454 255/176/450
s 10
f 100/140/455 99/138/451 256/177/452 258/179/456
s 11
f 119/217/453 120/219/457 259/180/458 257/178/454
s 10
f 101/142/459 100/140/455 258/179/456 260/181/460
s 11
f 120/219/457 121/221/461 261/182/462 259/180/458
s 10
f 82/105/384 101/142/459 260/181/460 222/144/385
s 11
f 121/221/461 102/184/387 224/145/390 261/182/462
s 12
f 263/442/463 262/424/464 21/524/465 40/523/466
f 264/441/467 263/442/463 40/523/466 39/525/468
f 265/440/469 264/441/467 39/525/468 38/526/470
f 266/439/471 265/440/469 38/526/470 37/527/472
f 267/438/473 266/439/471 37/527/472 36/528/474
f 268/563/475 267/438/473 36/528/474 35/529/476
f 269/436/477 268/437/475 35/564/476 34/530/478
f 270/435/479 269/436/477 34/530/478 33/531/480
f 271/434/481 270/435/479 33/531/480 32/532/482
f 272/433/483 271/434/481 32/532/482 31/533/484
f 273/432/485 272/433/483 31/533/484 30/534/486
f 274/431/487 273/432/485 30/534/486 29/535/488
f 275/430/489 274/431/487 29/535/488 28/536/490
f 276/429/491 275/430/489 28/536/490 27/537/492
f 277/428/493 276/429/491 27/537/492 26/538/494
f 278/427/495 277/428/493 26/538/494 25/539/496
f 279/426/497 278/427/495 25/539/496 24/540/498
f 280/425/499 279/426/497 24/540/498 23/541/500
f 281/423/501 280/425/499 23/541/500 22/542/502
f 262/424/464 281/423/501 22/542/502 21/524/465
s 13
f 303/323/503 302/324/504 304/325/505 305/326/506
f 306/327/507 303/323/503 305/326/506 307/328/508
f 308/329/509 306/327/507 307/328/508 309/330/510
f 310/331/511 308/329/509 309/330/510 311/332/512
f 312/333/513 310/331/511 311/332/512 313/334/514
f 314/335/515 312/333/513 313/334/514 315/336/516
f 316/337/517 314/335/515 315/336/516 317/338/518
f 318/339/519 316/337/517 317/338/518 319/340/520
f 320/341/521 318/339/519 319/340/520 321/342/522
f 322/343/523 320/341/521 321/342/522 323/344/524
f 324/345/525 322/343/523 323/344/524 325/346/526
f 326/347/527 324/345/525 325/346/526 327/348/528
f 328/349/529 326/347/527 327/348/528 329/350/530
f 330/351/531 328/349/529 329/350/530 331/352/532
f 332/353/533 330/351/531 331/352/532 333/354/534
f 334/355/535 332/353/533 333/354/534 335/356/536
f 336/357/537 334/355/535 335/356/536 337/358/538
f 338/359/539 336/357/537 337/358/538 339/360/540
f 340/361/541 338/359/539 339/360/540 341/362/542
f 302/324/504 340/361/541 341/362/542 304/325/505
s 14
f 283/186/543 282/185/544 302/324/545 303/323/546
s 15
f 262/284/547 263/283/548 305/326/549 304/325/550
s 14
f 284/188/551 283/186/543 303/323/546 306/327/552
s 15
f 263/283/548 264/287/553 307/328/554 305/326/549
s 14
f 285/190/555 284/188/551 306/327/552 308/329/556
s 15
f 264/287/553 265/289/557 309/330/558 307/328/554
s 14
f 286/192/559 285/190/555 308/329/556 310/331/560
s 15
f 265/289/557 266/291/561 311/332/562 309/330/558
s 14
f 287/194/563 286/192/559 310/331/560 312/333/564
s 15
f 266/291/561 267/293/565 313/334/566 311/332/562
s 14
f 288/196/567 287/194/563 312/333/564 314/335/568
s 15
f 267/293/565 268/295/569 315/336/570 313/334/566
s 14
f 289/198/571 288/196/567 314/335/568 316/337/572
s 15
f 268/295/569 269/297/573 317/338/574 315/336/570
s 14
f 290/200/575 289/198/571 316/337/572 318/339/576
s 15
f 269/297/573 270/299/577 319/340/578 317/338/574
s 14
f 291/202/579 290/200/575 318/339/576 320/341/580
s 15
f 270/299/577 271/301/581 321/342/582 319/340/578
s 14
f 292/204/583 291/202/579 320/341/580 322/343/584
s 15
f 271/301/581 272/303/585 323/344/586 321/342/582
s 14
f 293/206/587 292/204/583 322/343/584 324/345/588
s 15
f 272/303/585 273/305/589 325/346/590 323/344/586
s 14
f 294/208/591 293/206/587 324/345/588 326/347/592
s 15
f 273/305/589 274/307/593 327/348/594 325/346/590
s 14
f 295/210/595 294/208/591 326/347/592 328/349/596
s 15
f 274/307/593 275/309/597 329/350/598 327/348/594
s 14
f 296/212/599 295/210/595 328/349/596 330/351/600
s 15
f 275/309/597 276/311/601 331/352/602 329/350/598
s 14
f 297/214/603 296/212/599 330/351/600 332/353/604
s 15
f 276/311/601 277/313/605 333/354/606 331/352/602
s 14
f 298/216/607 297/214/603 332/353/604 334/355/608
s 15
f 277/313/605 278/315/609 335/356/610 333/354/606
s 14
f 299/218/611 298/216/607 334/355/608 336/357/612
s 15
f 278/315/609 279/317/613 337/358/614 335/356/610
s 14
f 300/220/615 299/218/611 336/357/612 338/359/616
s 15
f 279/317/613 280/319/617 339/360/618 337/358/614
s 14
f 301/222/619 300/220/615 338/359/616 340/361/620
s 15
f 280/319/617 281/321/621 341/362/622 339/360/618
s 14
f 282/185/544 301/222/619 340/361/620 302/324/545
s 15
f 281/321/621 262/284/547 304/325/550 341/362/622
s 16
f 21/285/623 22/322/624 343/402/625 342/384/626
f 22/322/624 23/320/627 344/401/628 343/402/625
f 23/320/627 24/318/629 345/400/630 344/401/628
f 24/318/629 25/316/631 346/399/632 345/400/630
f 25/316/631 26/314/633 347/398/634 346/399/632
f 26/314/633 27/312/635 348/397/636 347/398/634
f 27/312/635 28/310/637 349/396/638 348/397/636
f 28/310/637 29/308/639 350/395/640 349/396/638
f 29/308/639 30/306/641 351/394/642 350/395/640
f 30/306/641 31/304/643 352/393/644 351/394/642
f 31/304/643 32/302/645 353/392/646 352/393/644
f 32/302/645 33/300/647 354/391/648 353/392/646
f 33/300/647 34/298/649 355/390/650 354/391/648
f 34/298/649 35/296/651 356/389/652 355/390/650
f 35/296/651 36/294/653 357/388/654 356/389/652
f 36/294/653 37/292/655 358/387/656 357/388/654
f 37/292/655 38/290/657 359/386/658 358/387/656
f 38/290/657 39/288/659 360/385/660 359/386/658
f 39/288/659 40/286/661 361/383/662 360/385/660
f 40/286/661 21/285/623 342/384/626 361/383/662
s 17
f 342/364/663 343/363/664 363/43/665 362/42/666
f 343/363/664 344/365/667 365/45/668 363/43/665
f 344/365/667 345/366/669 366/46/670 365/45/668
f 345/366/669 346/367/671 367/47/672 366/46/670
f 346/367/671 347/368/673 368/48/674 367/47/672
f 347/368/673 348/369/675 369/49/676 368/48/674
f 348/369/675 349/370/677 370/50/678 369/49/676
f 349/370/677 350/371/679 371/51/680 370/50/678
f 350/371/679 351/372/681 372/52/682 371/51/680
f 351/372/681 352/373/683 373/53/684 372/52/682
f 352/373/683 353/374/685 374/54/686 373/53/684
f 353/374/685 354/375/687 375/55/688 374/54/686
f 354/375/687 355/376/689 376/56/690 375/55/688
f 355/376/689 356/377/691 377/57/692 376/56/690
f 356/377/691 357/378/693 378/58/694 377/57/692
f 357/378/693 358/379/695 379/59/696 378/58/694
f 358/379/695 359/380/697 380/60/698 379/59/696
f 359/380/697 360/381/699 381/61/700 380/60/698
f 360/381/699 361/382/701 382/62/702 381/61/700
f 361/382/701 342/364/663 362/42/666 382/62/702
