# This file uses meters as units for non-parametric coordinates.

mtllib razzo3.mtl
g default
v 85.832706 -50.032778 -3.783356
v 84.093685 -50.032778 -7.196371
v 81.385104 -50.032778 -9.904955
v 77.972090 -50.032778 -11.643973
v 74.188732 -50.032778 -12.243197
v 74.188732 -50.032778 12.243193
v 77.972090 -50.032778 11.643967
v 81.385096 -50.032778 9.904950
v 84.093678 -50.032778 7.196368
v 85.832698 -50.032778 3.783354
v 86.431923 -50.032778 -0.000000
v 85.832706 -24.565400 -3.783356
v 84.093685 -24.565400 -7.196371
v 81.385104 -24.565400 -9.904955
v 77.972090 -24.565400 -11.643973
v 74.188732 -24.565400 -12.243197
v 74.188732 -24.565400 12.243193
v 77.972090 -24.565400 11.643967
v 81.385096 -24.565400 9.904950
v 84.093678 -24.565400 7.196368
v 85.832698 -24.565400 3.783354
v 86.431923 -24.565400 -0.000000
v 78.303734 -6.368925 -1.337033
v 77.689131 -6.368925 -2.543184
v 76.731914 -6.368925 -3.500398
v 75.525761 -6.368925 -4.114962
v 74.188732 -6.368925 -4.326724
v 74.188732 -6.368925 4.326719
v 75.525761 -6.368925 4.114957
v 76.731914 -6.368925 3.500393
v 77.689123 -6.368925 2.543180
v 78.303734 -6.368925 1.337029
v 78.515456 -6.368925 -0.000002
v 75.571957 -86.144351 -0.449439
v 75.365376 -86.144351 -0.854876
v 74.188732 -86.144351 -0.000002
v 75.043670 -86.144351 -1.176632
v 74.638167 -86.144351 -1.383218
v 74.188732 -86.144351 -1.454407
v 74.188732 -86.144351 1.454402
v 74.638167 -86.144351 1.383226
v 75.043603 -86.144351 1.176628
v 75.365376 -86.144351 0.854872
v 75.571957 -86.144351 0.449434
v 75.643149 -86.144351 -0.000002
v 74.188732 -2.149969 -0.000002
v 75.729189 -2.505943 -0.500523
v 75.444302 -2.244240 -0.407958
v 75.074958 -2.149969 -0.287954
v 74.942603 -2.149969 -0.547708
v 75.256813 -2.244240 -0.775978
v 75.499128 -2.505947 -0.952050
v 74.736447 -2.149969 -0.753858
v 74.964744 -2.244240 -1.068042
v 75.140785 -2.505947 -1.310385
v 74.476683 -2.149969 -0.886214
v 74.596694 -2.244240 -1.255557
v 74.689258 -2.505943 -1.540447
v 74.188732 -2.149969 -0.931822
v 74.188732 -2.244240 -1.320174
v 74.188732 -2.505947 -1.619725
v 74.188732 -2.149969 0.931817
v 74.188732 -2.244240 1.320169
v 74.188732 -2.505947 1.619720
v 74.476683 -2.149969 0.886209
v 74.596694 -2.244240 1.255552
v 74.689258 -2.505947 1.540442
v 74.736447 -2.149969 0.753855
v 74.964744 -2.244240 1.068038
v 75.140785 -2.505947 1.310380
v 74.942595 -2.149969 0.547707
v 75.256813 -2.244240 0.775975
v 75.499121 -2.505947 0.952046
v 75.074951 -2.149969 0.287946
v 75.444294 -2.244240 0.407953
v 75.729182 -2.505943 0.500519
v 75.120557 -2.149969 -0.000006
v 75.508910 -2.244240 -0.000003
v 75.808451 -2.505947 -0.000002
v 83.061608 -15.467162 -2.882961
v 83.518187 -15.467162 -0.000001
v 83.061608 -15.467162 2.882958
v 81.736408 -15.467162 5.483711
v 79.672447 -15.467162 7.547684
v 77.071688 -15.467162 8.872834
v 74.188732 -15.467162 9.329448
v 74.188732 -15.467162 -9.329453
v 77.071688 -15.467162 -8.872838
v 79.672447 -15.467162 -7.547689
v 81.736423 -15.467162 -5.483714
v 82.596226 -65.030242 -2.731761
v 81.340582 -65.030242 -5.196115
v 79.384862 -65.030242 -7.151837
v 76.920494 -65.030242 -8.407489
v 74.188732 -65.030242 -8.840160
v 74.188732 -65.030242 8.840155
v 76.920494 -65.030242 8.407491
v 79.384847 -65.030242 7.151832
v 81.340574 -65.030242 5.196110
v 82.596226 -65.030242 2.731758
v 83.028907 -65.030242 -0.000001
v 79.543917 -73.971486 -1.740006
v 78.744120 -73.971486 -3.309683
v 77.498451 -73.971486 -4.555384
v 75.928739 -73.971486 -5.355178
v 74.188732 -73.971486 -5.630772
v 74.188732 -73.971486 5.630767
v 75.928739 -73.971486 5.355183
v 77.498451 -73.971486 4.555380
v 78.744120 -73.971486 3.309678
v 79.543910 -73.971486 1.740002
v 79.819554 -73.971486 -0.000001
v 62.544751 -50.032778 -3.783356
v 64.283771 -50.032778 -7.196371
v 66.992353 -50.032778 -9.904955
v 70.405366 -50.032778 -11.643973
v 70.405366 -50.032778 11.643967
v 66.992360 -50.032778 9.904950
v 64.283778 -50.032778 7.196368
v 62.544758 -50.032778 3.783354
v 61.945534 -50.032778 0.000000
v 62.544751 -24.565400 -3.783356
v 64.283771 -24.565400 -7.196371
v 66.992353 -24.565400 -9.904955
v 70.405366 -24.565400 -11.643973
v 70.405366 -24.565400 11.643967
v 66.992360 -24.565400 9.904950
v 64.283778 -24.565400 7.196368
v 62.544758 -24.565400 3.783354
v 61.945534 -24.565400 -0.000000
v 70.073738 -6.368925 -1.337033
v 70.688326 -6.368925 -2.543184
v 71.645542 -6.368925 -3.500398
v 72.851695 -6.368925 -4.114962
v 72.851695 -6.368925 4.114957
v 71.645542 -6.368925 3.500393
v 70.688333 -6.368925 2.543180
v 70.073738 -6.368925 1.337029
v 69.862037 -6.368925 -0.000002
v 72.805499 -86.144351 -0.449439
v 73.012081 -86.144351 -0.854876
v 73.333801 -86.144351 -1.176632
v 73.739289 -86.144351 -1.383218
v 73.739289 -86.144351 1.383226
v 73.333853 -86.144351 1.176628
v 73.012081 -86.144351 0.854872
v 72.805499 -86.144351 0.449434
v 72.734308 -86.144351 -0.000002
v 72.648267 -2.505943 -0.500523
v 72.933155 -2.244240 -0.407958
v 73.302520 -2.149969 -0.287954
v 73.434913 -2.149969 -0.547708
v 73.120659 -2.244240 -0.775978
v 72.878328 -2.505947 -0.952050
v 73.641009 -2.149969 -0.753858
v 73.412727 -2.244240 -1.068042
v 73.236686 -2.505947 -1.310385
v 73.900773 -2.149969 -0.886214
v 73.780815 -2.244240 -1.255557
v 73.688199 -2.505943 -1.540447
v 73.900773 -2.149969 0.886209
v 73.780815 -2.244240 1.255552
v 73.688199 -2.505947 1.540442
v 73.641009 -2.149969 0.753855
v 73.412727 -2.244240 1.068038
v 73.236686 -2.505947 1.310380
v 73.434913 -2.149969 0.547707
v 73.120659 -2.244240 0.775975
v 72.878335 -2.505947 0.952046
v 73.302520 -2.149969 0.287946
v 72.933162 -2.244240 0.407953
v 72.648275 -2.505943 0.500519
v 73.256900 -2.149969 -0.000006
v 72.868599 -2.244240 -0.000003
v 72.569005 -2.505947 -0.000002
v 65.315849 -15.467162 -2.882961
v 64.859270 -15.467162 -0.000001
v 65.315849 -15.467162 2.882958
v 66.641048 -15.467162 5.483711
v 68.705024 -15.467162 7.547684
v 71.305768 -15.467162 8.872834
v 71.305768 -15.467162 -8.872838
v 68.705024 -15.467162 -7.547689
v 66.641034 -15.467162 -5.483714
v 65.781223 -65.030242 -2.731761
v 67.036875 -65.030242 -5.196115
v 68.992594 -65.030242 -7.151837
v 71.456977 -65.030242 -8.407489
v 71.456977 -65.030242 8.407491
v 68.992609 -65.030242 7.151832
v 67.036882 -65.030242 5.196110
v 65.781238 -65.030242 2.731758
v 65.348564 -65.030242 -0.000001
v 68.833539 -73.971486 -1.740006
v 69.633337 -73.971486 -3.309683
v 70.879028 -73.971486 -4.555384
v 72.448718 -73.971486 -5.355178
v 72.448718 -73.971486 5.355183
v 70.879050 -73.971486 4.555380
v 69.633337 -73.971486 3.309678
v 68.833547 -73.971486 1.740002
v 68.557903 -73.971486 -0.000001
v 77.557933 -80.057922 -1.094722
v 77.054748 -80.057922 -2.082280
v 76.271061 -80.057922 -2.866008
v 75.283453 -80.057922 -3.369198
v 74.188732 -80.057922 -3.542589
v 73.094004 -80.057922 -3.369198
v 72.106411 -80.057922 -2.866008
v 71.322739 -80.057922 -2.082280
v 70.819523 -80.057922 -1.094722
v 70.646105 -80.057922 -0.000002
v 70.819523 -80.057922 1.094718
v 71.322739 -80.057922 2.082275
v 72.106448 -80.057922 2.866004
v 73.094004 -80.057922 3.369204
v 74.188732 -80.057922 3.542584
v 75.283453 -80.057922 3.369204
v 76.271023 -80.057922 2.866004
v 77.054748 -80.057922 2.082275
v 77.557933 -80.057922 1.094718
v 77.731351 -80.057922 -0.000002
v 87.027725 -35.584412 -4.171641
v 87.037491 -38.033910 -4.174805
v 87.698679 -38.033910 0.000000
v 87.688441 -35.584412 0.000000
v 87.037484 -38.033910 4.174803
v 87.027717 -35.584412 4.171639
v 85.118507 -38.033910 7.940948
v 85.110220 -35.584412 7.934929
v 82.129671 -38.033910 10.929776
v 82.123656 -35.584412 10.921493
v 78.363537 -38.033910 12.848724
v 78.360377 -35.584412 12.838986
v 74.188732 -38.033910 13.509948
v 74.188732 -35.584412 13.499709
v 74.188732 -35.584412 -13.499713
v 74.188732 -38.033910 -13.509952
v 78.363537 -38.033910 -12.848729
v 78.360377 -35.584412 -12.838992
v 82.129686 -38.033910 -10.929782
v 82.123671 -35.584412 -10.921498
v 85.118522 -38.033910 -7.940951
v 85.110227 -35.584412 -7.934933
v 61.340006 -38.033910 -4.174805
v 61.349732 -35.584412 -4.171641
v 63.258949 -38.033910 -7.940951
v 63.267229 -35.584412 -7.934933
v 66.247770 -38.033910 -10.929782
v 66.253786 -35.584412 -10.921498
v 70.013919 -38.033910 -12.848729
v 70.017080 -35.584412 -12.838992
v 70.013919 -38.033910 12.848724
v 70.017080 -35.584412 12.838986
v 66.247785 -38.033910 10.929776
v 66.253801 -35.584412 10.921493
v 63.258957 -38.033910 7.940948
v 63.267236 -35.584412 7.934929
v 61.340014 -38.033910 4.174803
v 61.349739 -35.584412 4.171639
v 60.678777 -38.033910 0.000000
v 60.689019 -35.584412 0.000000
v 86.064821 -35.588653 -3.858776
v 86.074573 -38.038150 -3.861940
v 84.299430 -38.038150 -7.345844
v 84.291135 -35.588653 -7.339827
v 86.675994 -35.588653 -0.000001
v 86.686224 -38.038150 -0.000001
v 86.064806 -35.588653 3.858771
v 86.074573 -38.038150 3.861936
v 84.291128 -35.588653 7.339822
v 84.299415 -38.038150 7.345841
v 81.528549 -35.588649 10.102402
v 81.534564 -38.038147 10.110686
v 78.047512 -35.588649 11.876084
v 78.050672 -38.038147 11.885821
v 74.188732 -35.588649 12.487253
v 74.188732 -38.038147 12.497492
v 70.329945 -35.588653 11.876084
v 70.326784 -38.038150 11.885819
v 74.188732 -35.588649 -12.487258
v 74.188732 -38.038147 -12.497496
v 70.326784 -38.038147 -11.885826
v 70.329945 -35.588649 -11.876089
v 78.047512 -35.588649 -11.876087
v 78.050672 -38.038147 -11.885827
v 81.528564 -35.588649 -10.102403
v 81.534579 -38.038147 -10.110690
v 62.302906 -38.038147 -3.861939
v 62.312635 -35.588649 -3.858775
v 64.086321 -35.588649 -7.339826
v 64.078056 -38.038147 -7.345845
v 61.691236 -38.038147 -0.000001
v 61.701473 -35.588649 -0.000001
v 66.848908 -35.588649 -10.102406
v 66.842877 -38.038147 -10.110689
v 66.848923 -35.588649 10.102398
v 66.842892 -38.038147 10.110685
v 64.086329 -35.588649 7.339821
v 64.078064 -38.038147 7.345842
v 62.312643 -35.588649 3.858772
v 62.302910 -38.038147 3.861937
vt 0.366028 0.016103
vt 0.362971 0.018331
vt 0.235739 0.019580
vt 0.368814 0.013592
vt 0.371298 0.010820
vt 0.308243 0.008379
vt 0.344882 0.024629
vt 0.340976 0.024843
vt 0.348746 0.024056
vt 0.352526 0.023131
vt 0.356182 0.021860
vt 0.359677 0.020255
vt 0.523457 0.573949
vt 0.546396 0.594219
vt 0.493991 0.650507
vt 0.478197 0.634635
vt 0.567237 0.616791
vt 0.507789 0.668447
vt 0.586066 0.641252
vt 0.519298 0.688270
vt 0.603200 0.667162
vt 0.199297 0.726564
vt 0.353521 0.518058
vt 0.383956 0.518608
vt 0.379020 0.591998
vt 0.357268 0.591558
vt 0.414084 0.522765
vt 0.400562 0.595217
vt 0.443483 0.530532
vt 0.421562 0.601180
vt 0.471746 0.541799
vt 0.441702 0.609817
vt 0.498504 0.556363
vt 0.460676 0.621016
vt 0.545744 0.268070
vt 0.518860 0.282602
vt 0.464407 0.171574
vt 0.482938 0.160328
vt 0.571727 0.251823
vt 0.500658 0.147512
vt 0.596813 0.234039
vt 0.517459 0.133173
vt 0.063855 0.219021
vt 0.150217 0.120220
vt 0.373539 0.324270
vt 0.343256 0.325573
vt 0.342356 0.203788
vt 0.363419 0.202821
vt 0.403641 0.320488
vt 0.384351 0.200059
vt 0.433376 0.314322
vt 0.405031 0.195526
vt 0.462581 0.305871
vt 0.425343 0.189253
vt 0.491114 0.295253
vt 0.445172 0.181281
vt 0.460023 0.026224
vt 0.462572 0.028167
vt 0.460171 0.030479
vt 0.458344 0.027845
vt 0.389144 0.720773
vt 0.392008 0.724072
vt 0.454061 0.021720
vt 0.456247 0.028867
vt 0.453937 0.029193
vt 0.451639 0.028794
vt 0.456479 0.014660
vt 0.458550 0.015753
vt 0.460178 0.017436
vt 0.461204 0.019541
vt 0.461528 0.021859
vt 0.461121 0.024162
vt 0.419704 0.695495
vt 0.426625 0.703649
vt 0.432210 0.712789
vt 0.394201 0.727725
vt 0.436253 0.722749
vt 0.395632 0.731639
vt 0.290827 0.740861
vt 0.333182 0.738918
vt 0.361439 0.673358
vt 0.372134 0.673522
vt 0.368200 0.711856
vt 0.458569 0.008556
vt 0.382704 0.675150
vt 0.372933 0.712482
vt 0.392948 0.678218
vt 0.377496 0.713718
vt 0.402664 0.682679
vt 0.381787 0.715539
vt 0.411650 0.688468
vt 0.385704 0.717907
vt 0.457176 0.031934
vt 0.453881 0.032395
vt 0.450600 0.031828
vt 0.457516 0.011630
vt 0.460481 0.013188
vt 0.462809 0.015604
vt 0.464273 0.018619
vt 0.464732 0.021934
vt 0.464145 0.025223
vt 0.435949 0.097321
vt 0.447097 0.088235
vt 0.457273 0.078103
vt 0.216369 0.068904
vt 0.341793 0.128308
vt 0.356156 0.127524
vt 0.370397 0.125500
vt 0.384410 0.122239
vt 0.423977 0.105319
vt 0.393945 0.061448
vt 0.401380 0.056168
vt 0.408206 0.050188
vt 0.414338 0.043555
vt 0.262470 0.037558
vt 0.341396 0.076796
vt 0.350668 0.076286
vt 0.359849 0.074938
vt 0.368852 0.072763
vt 0.398086 0.117754
vt 0.377594 0.069774
vt 0.411314 0.112065
vt 0.385987 0.065994
vt 0.315787 0.016540
vt 0.318878 0.018715
vt 0.312962 0.014078
vt 0.310438 0.011349
vt 0.337066 0.024697
vt 0.333193 0.024192
vt 0.329398 0.023333
vt 0.325722 0.022126
vt 0.322202 0.020582
vt 0.190150 0.590942
vt 0.241347 0.646711
vt 0.227249 0.664106
vt 0.169391 0.613440
vt 0.215347 0.683357
vt 0.150954 0.638015
vt 0.205914 0.704247
vt 0.134711 0.664263
vt 0.335674 0.594208
vt 0.323299 0.521700
vt 0.314571 0.599601
vt 0.293750 0.528900
vt 0.294286 0.607669
vt 0.265294 0.539617
vt 0.275128 0.618309
vt 0.238324 0.553700
vt 0.257392 0.631380
vt 0.213185 0.570910
vt 0.139935 0.271085
vt 0.201136 0.162437
vt 0.219833 0.173397
vt 0.167032 0.285218
vt 0.113716 0.255223
vt 0.183228 0.149890
vt 0.088371 0.237808
vt 0.166217 0.135804
vt 0.312956 0.324723
vt 0.321281 0.203143
vt 0.282801 0.321392
vt 0.300310 0.200704
vt 0.252977 0.315669
vt 0.279564 0.196491
vt 0.223649 0.307652
vt 0.259161 0.190538
vt 0.194963 0.297457
vt 0.239213 0.182802
vt 0.446590 0.021624
vt 0.446924 0.023935
vt 0.443866 0.024896
vt 0.443385 0.021597
vt 0.440817 0.025880
vt 0.338699 0.723345
vt 0.447954 0.026028
vt 0.449578 0.027701
vt 0.454172 0.014254
vt 0.451854 0.014586
vt 0.449754 0.015620
vt 0.448077 0.017253
vt 0.446987 0.019322
vt 0.305726 0.701306
vt 0.299671 0.710121
vt 0.442741 0.029753
vt 0.295044 0.719782
vt 0.445760 0.032836
vt 0.292035 0.730102
vt 0.454240 0.007836
vt 0.350815 0.674609
vt 0.449917 0.008477
vt 0.340465 0.677304
vt 0.446015 0.010417
vt 0.330586 0.681397
vt 0.442909 0.013464
vt 0.321375 0.686823
vt 0.440901 0.017316
vt 0.313025 0.693496
vt 0.445340 0.027881
vt 0.447661 0.030265
vt 0.454219 0.011044
vt 0.450899 0.011525
vt 0.447894 0.013011
vt 0.445500 0.015348
vt 0.443947 0.018308
vt 0.235895 0.089876
vt 0.247180 0.098798
vt 0.225566 0.079897
vt 0.327421 0.127738
vt 0.313151 0.125924
vt 0.299090 0.122867
vt 0.281093 0.057118
vt 0.288610 0.062281
vt 0.259271 0.106624
vt 0.274174 0.051246
vt 0.267938 0.044709
vt 0.332118 0.076431
vt 0.322917 0.075228
vt 0.313880 0.073194
vt 0.285349 0.118577
vt 0.305092 0.070344
vt 0.272035 0.113192
vt 0.296639 0.066699
vt 0.788897 0.058489
vt 0.455910 0.904455
vt 0.958045 0.336216
vt 0.473037 0.937599
vt 0.802956 0.086789
vt 0.428667 0.888394
vt 0.807582 0.118048
vt 0.401403 0.872368
vt 0.802322 0.149206
vt 0.374117 0.856378
vt 0.787690 0.177215
vt 0.346811 0.840424
vt 0.765120 0.199330
vt 0.319484 0.824505
vt 0.736821 0.213389
vt 0.292137 0.808622
vt 0.705562 0.218015
vt 0.264768 0.792775
vt 0.676356 0.020653
vt 0.564672 0.969057
vt 0.846849 0.378117
vt 0.035343 0.684544
vt 0.707615 0.016028
vt 0.537513 0.952853
vt 0.738773 0.021288
vt 0.510333 0.936685
vt 0.779022 0.316285
vt 0.117812 0.731293
vt 0.610855 0.084836
vt 0.100124 0.698445
vt 0.772637 0.285311
vt 0.145261 0.746948
vt 0.625486 0.056828
vt 0.072612 0.682849
vt 0.674403 0.212755
vt 0.237379 0.776964
vt 0.646395 0.198124
vt 0.209969 0.761188
vt 0.624279 0.175554
vt 0.182539 0.745449
vt 0.964886 0.340719
vt 0.978983 0.309573
vt 0.941854 0.365983
vt 0.912142 0.382895
vt 0.878658 0.389797
vt 0.902542 0.175271
vt 0.868565 0.171488
vt 0.933688 0.189368
vt 0.958953 0.212400
vt 0.975864 0.242112
vt 0.982766 0.275595
vt 0.810770 0.084338
vt 0.795571 0.053743
vt 0.815771 0.118131
vt 0.810084 0.151816
vt 0.794266 0.182095
vt 0.769866 0.206004
vt 0.739272 0.221203
vt 0.707698 0.007839
vt 0.673904 0.012840
vt 0.741383 0.013526
vt 0.771662 0.029343
vt 0.771359 0.319173
vt 0.788270 0.348884
vt 0.813535 0.371916
vt 0.844681 0.386014
vt 0.835081 0.178390
vt 0.805369 0.195301
vt 0.782337 0.220566
vt 0.768240 0.251711
vt 0.764457 0.285689
vt 0.602407 0.149705
vt 0.597406 0.115912
vt 0.617605 0.180299
vt 0.641515 0.204699
vt 0.671793 0.220517
vt 0.705478 0.226204
vt 0.643310 0.028039
vt 0.618910 0.051948
vt 0.603092 0.082227
vt 0.155088 0.729745
vt 0.776137 0.253880
vt 0.172690 0.762639
vt 0.610220 0.147254
vt 0.789178 0.225068
vt 0.200098 0.778366
vt 0.810483 0.201697
vt 0.227485 0.794129
vt 0.837969 0.186053
vt 0.254852 0.809927
vt 0.045079 0.667289
vt 0.818037 0.365076
vt 0.062853 0.700091
vt 0.648056 0.034712
vt 0.794666 0.343770
vt 0.090343 0.715674
vt 0.605594 0.115995
vt 0.127616 0.714077
vt 0.483132 0.920552
vt 0.936739 0.359588
vt 0.500216 0.953719
vt 0.766781 0.035919
vt 0.909254 0.375232
vt 0.527373 0.969874
vt 0.878280 0.381616
vt 0.007812 0.669033
vt 0.868943 0.179668
vt 0.282198 0.825761
vt 0.900374 0.183168
vt 0.309523 0.841631
vt 0.929186 0.196208
vt 0.336828 0.857536
vt 0.952557 0.217514
vt 0.364111 0.873478
vt 0.968201 0.244999
vt 0.391374 0.889454
vt 0.974585 0.275974
vt 0.418616 0.905467
vt 0.971086 0.307405
vt 0.445837 0.921515
vt 0.162400 0.388396
vt 0.197143 0.400452
vt 0.197662 0.476177
vt 0.164544 0.497585
vt 0.232892 0.410067
vt 0.233214 0.458585
vt 0.269439 0.417075
vt 0.270705 0.445269
vt 0.306550 0.421369
vt 0.309562 0.436583
vt 0.036142 0.321109
vt 0.065682 0.340087
vt 0.082748 0.578428
vt 0.061353 0.608305
vt 0.096573 0.357901
vt 0.106964 0.549443
vt 0.134237 0.522234
vt 0.128835 0.374119
vt 0.590372 0.354247
vt 0.620998 0.335982
vt 0.629030 0.550576
vt 0.601991 0.524205
vt 0.650256 0.316573
vt 0.653352 0.578123
vt 0.007812 0.301516
vt 0.675430 0.605810
vt 0.343970 0.422911
vt 0.349173 0.432782
vt 0.381363 0.420812
vt 0.388965 0.432535
vt 0.418405 0.415967
vt 0.428504 0.437224
vt 0.454843 0.408418
vt 0.467155 0.446658
vt 0.490444 0.398275
vt 0.504312 0.460543
vt 0.525004 0.385707
vt 0.539436 0.478471
vt 0.558354 0.370938
vt 0.572093 0.499910
vt 0.226658 0.027059
vt 0.224792 0.023887
vt 0.229414 0.029498
vt 0.232788 0.030967
vt 0.236452 0.031322
vt 0.240045 0.030527
vt 0.243217 0.028660
vt 0.225820 0.013255
vt 0.228260 0.010500
vt 0.224351 0.016630
vt 0.223997 0.020293
vt 0.244819 0.012101
vt 0.242063 0.009661
vt 0.246685 0.015273
vt 0.247480 0.018867
vt 0.247126 0.022530
vt 0.245657 0.025905
vt 0.231432 0.008633
vt 0.235026 0.007838
vt 0.238689 0.008192
vt 0.341830 0.720144
vt 0.440181 0.021594
vt 0.345485 0.717389
vt 0.349569 0.715141
vt 0.353983 0.713448
vt 0.358627 0.712344
vt 0.363401 0.711852
vt 0.333350 0.734815
vt 0.449573 0.034827
vt 0.334375 0.730775
vt 0.336185 0.726918
vt 0.467933 0.022033
vt 0.467159 0.026307
vt 0.467347 0.017722
vt 0.465454 0.013797
vt 0.462430 0.010640
vt 0.453807 0.035592
vt 0.458081 0.035006
vt 0.461976 0.033125
vt 0.465106 0.030129
vt 0.554510 0.986064
vt 0.017526 0.651765
vt 0.042205 0.638094
vt 0.120300 0.691782
vt 0.621051 0.214895
vt 0.678296 0.296569
vt 0.419690 0.036320
vt 0.373450 0.007813
vt 0.466303 0.066972
vt 0.533228 0.117354
vt 0.528150 0.709797
vt 0.438549 0.733330
vt 0.396216 0.735705
vn 0.000000 -1.000000 0.000006
vn 0.000000 -1.000000 -0.000011
vn 0.000000 -1.000000 0.000000
vn 0.000000 -1.000000 0.000006
vn 0.000000 -1.000000 0.000000
vn 0.000000 -1.000000 0.000000
vn 0.000000 -1.000000 0.000000
vn 0.000000 -1.000000 0.000000
vn 0.000000 -1.000000 -0.000006
vn 0.000000 -1.000000 -0.000006
vn 0.000000 -1.000000 0.000011
vn 0.000000 -1.000000 -0.000000
vn 0.933250 0.192603 -0.303231
vn 0.793869 0.192603 -0.576781
vn 0.749856 0.375369 -0.544807
vn 0.881511 0.375368 -0.286420
vn 0.576780 0.192604 -0.793869
vn 0.544803 0.375369 -0.749858
vn 0.303231 0.192604 -0.933250
vn 0.286420 0.375369 -0.881511
vn -0.000000 0.192604 -0.981277
vn 0.000000 0.375369 -0.926875
vn -0.000000 0.192604 0.981277
vn 0.303231 0.192604 0.933249
vn 0.286420 0.375369 0.881511
vn -0.000000 0.375369 0.926875
vn 0.576780 0.192604 0.793869
vn 0.544804 0.375369 0.749858
vn 0.793869 0.192603 0.576781
vn 0.749856 0.375369 0.544807
vn 0.933249 0.192603 0.303232
vn 0.881511 0.375368 0.286421
vn 0.981277 0.192603 0.000001
vn 0.926876 0.375368 0.000000
vn 0.798102 -0.163708 -0.579856
vn 0.938226 -0.163708 -0.304847
vn 0.919610 -0.255020 -0.298801
vn 0.782268 -0.255020 -0.568349
vn 0.579855 -0.163707 -0.798103
vn 0.568350 -0.255020 -0.782268
vn 0.304848 -0.163707 -0.938226
vn 0.298799 -0.255020 -0.919611
vn 0.000000 -0.163707 -0.986509
vn -0.000000 -0.255020 -0.966936
vn 0.304848 -0.163707 0.938226
vn 0.000000 -0.163707 0.986509
vn -0.000000 -0.255020 0.966936
vn 0.298800 -0.255020 0.919610
vn 0.579856 -0.163707 0.798102
vn 0.568351 -0.255020 0.782267
vn 0.798102 -0.163707 0.579856
vn 0.782268 -0.255020 0.568350
vn 0.938225 -0.163708 0.304849
vn 0.919610 -0.255020 0.298802
vn 0.986509 -0.163708 0.000001
vn 0.966936 -0.255020 0.000001
vn 0.126117 0.991169 -0.040975
vn 0.481318 0.862484 -0.156377
vn 0.409438 0.862481 -0.297468
vn 0.107277 0.991169 -0.077944
vn 0.774234 0.580757 -0.251559
vn 0.658598 0.580754 -0.478511
vn 0.000000 1.000000 0.000001
vn 0.077940 0.991169 -0.107279
vn 0.040977 0.991169 -0.126117
vn 0.000000 0.991168 -0.132608
vn 0.000000 0.991169 0.132607
vn 0.040977 0.991169 0.126117
vn 0.077941 0.991169 0.107280
vn 0.107278 0.991170 0.077938
vn 0.126115 0.991169 0.040976
vn 0.132605 0.991169 0.000008
vn 0.825767 0.496105 -0.268307
vn 0.702435 0.496103 -0.510359
vn 0.510352 0.496103 -0.702440
vn 0.478502 0.580754 -0.658605
vn 0.268307 0.496104 -0.825768
vn 0.251563 0.580755 -0.774235
vn 0.000000 0.496104 -0.868263
vn 0.000000 0.580755 -0.814079
vn 0.000000 0.496104 0.868263
vn 0.268307 0.496104 0.825768
vn 0.251563 0.580755 0.774235
vn 0.000000 0.580755 0.814078
vn 0.510353 0.496104 0.702439
vn 0.478503 0.580754 0.658604
vn 0.702436 0.496103 0.510359
vn 0.658600 0.580753 0.478510
vn 0.825767 0.496105 0.268309
vn 0.774233 0.580758 0.251562
vn 0.868264 0.496103 0.000000
vn 0.814078 0.580756 0.000002
vn 0.297467 0.862483 -0.409434
vn 0.156384 0.862485 -0.481315
vn -0.000000 0.862482 -0.506087
vn -0.000000 0.862483 0.506086
vn 0.156385 0.862485 0.481313
vn 0.297467 0.862483 0.409435
vn 0.409442 0.862480 0.297467
vn 0.481316 0.862485 0.156378
vn 0.506085 0.862483 0.000004
vn 0.762553 -0.334026 -0.554021
vn 0.554025 -0.334026 -0.762550
vn 0.291267 -0.334026 -0.896432
vn 0.000000 -0.334026 -0.942564
vn 0.000000 -0.334026 0.942564
vn 0.291268 -0.334026 0.896432
vn 0.554027 -0.334026 0.762549
vn 0.762552 -0.334026 0.554023
vn 0.896429 -0.334025 -0.291276
vn 0.899580 -0.324520 -0.292305
vn 0.765241 -0.324519 -0.555963
vn 0.555973 -0.324520 -0.765232
vn 0.292289 -0.324519 -0.899586
vn 0.000000 -0.324520 -0.945879
vn 0.000000 -0.324519 0.945879
vn 0.292294 -0.324520 0.899584
vn 0.555976 -0.324521 0.765230
vn 0.765233 -0.324520 0.555972
vn 0.896429 -0.334025 0.291277
vn 0.899580 -0.324519 0.292305
vn 0.942564 -0.334026 0.000001
vn 0.945878 -0.324522 0.000001
vn 0.000000 -1.000000 -0.000001
vn 0.000000 -1.000000 -0.000002
vn 0.000000 -1.000000 0.000003
vn 0.000000 -1.000000 0.000000
vn 0.000000 -1.000000 0.000003
vn 0.000000 -1.000000 0.000000
vn 0.000000 -1.000000 0.000001
vn 0.000000 -1.000000 0.000002
vn 0.000000 -1.000000 0.000000
vn -0.933250 0.192603 -0.303231
vn -0.881512 0.375369 -0.286418
vn -0.749855 0.375369 -0.544807
vn -0.793869 0.192603 -0.576781
vn -0.544803 0.375369 -0.749858
vn -0.576780 0.192604 -0.793869
vn -0.286420 0.375369 -0.881511
vn -0.303231 0.192604 -0.933250
vn -0.286420 0.375369 0.881511
vn -0.303231 0.192604 0.933249
vn -0.544804 0.375369 0.749858
vn -0.576780 0.192604 0.793869
vn -0.749855 0.375369 0.544808
vn -0.793869 0.192603 0.576781
vn -0.881511 0.375369 0.286420
vn -0.933249 0.192603 0.303232
vn -0.926876 0.375368 0.000000
vn -0.981277 0.192603 0.000001
vn -0.798103 -0.163707 -0.579855
vn -0.782268 -0.255020 -0.568350
vn -0.919610 -0.255020 -0.298800
vn -0.938226 -0.163707 -0.304847
vn -0.579855 -0.163707 -0.798103
vn -0.568350 -0.255020 -0.782268
vn -0.304848 -0.163707 -0.938226
vn -0.298799 -0.255020 -0.919611
vn -0.304848 -0.163707 0.938226
vn -0.298800 -0.255020 0.919610
vn -0.579856 -0.163707 0.798102
vn -0.568351 -0.255020 0.782267
vn -0.798103 -0.163707 0.579856
vn -0.782267 -0.255020 0.568351
vn -0.938226 -0.163707 0.304848
vn -0.919610 -0.255020 0.298801
vn -0.986509 -0.163707 0.000001
vn -0.966936 -0.255020 0.000002
vn -0.126115 0.991169 -0.040982
vn -0.107270 0.991170 -0.077939
vn -0.409425 0.862488 -0.297465
vn -0.481312 0.862490 -0.156367
vn -0.658598 0.580755 -0.478511
vn -0.774238 0.580757 -0.251550
vn -0.077947 0.991168 -0.107288
vn -0.040979 0.991168 -0.126120
vn -0.040978 0.991168 0.126120
vn -0.077947 0.991168 0.107287
vn -0.107271 0.991170 0.077936
vn -0.126115 0.991169 0.040980
vn -0.132613 0.991168 -0.000000
vn -0.825768 0.496105 -0.268302
vn -0.702436 0.496104 -0.510358
vn -0.478501 0.580755 -0.658605
vn -0.510352 0.496103 -0.702440
vn -0.251563 0.580756 -0.774234
vn -0.268307 0.496103 -0.825768
vn -0.251563 0.580755 0.774234
vn -0.268307 0.496103 0.825768
vn -0.478502 0.580755 0.658604
vn -0.510353 0.496103 0.702440
vn -0.658599 0.580754 0.478510
vn -0.702436 0.496103 0.510358
vn -0.774236 0.580757 0.251554
vn -0.825768 0.496105 0.268304
vn -0.814080 0.580753 0.000001
vn -0.868263 0.496104 -0.000000
vn -0.297462 0.862482 -0.409440
vn -0.156378 0.862486 -0.481314
vn -0.156378 0.862486 0.481314
vn -0.297462 0.862481 0.409442
vn -0.409430 0.862486 0.297463
vn -0.481312 0.862490 0.156367
vn -0.506064 0.862496 0.000003
vn -0.554025 -0.334026 -0.762550
vn -0.762551 -0.334027 -0.554024
vn -0.291268 -0.334026 -0.896432
vn -0.291269 -0.334026 0.896431
vn -0.554027 -0.334026 0.762549
vn -0.762549 -0.334027 0.554026
vn -0.765237 -0.324519 -0.555968
vn -0.899578 -0.324520 -0.292311
vn -0.896429 -0.334026 -0.291276
vn -0.555976 -0.324520 -0.765230
vn -0.292290 -0.324519 -0.899585
vn -0.292295 -0.324520 0.899583
vn -0.555979 -0.324520 0.765228
vn -0.765230 -0.324520 0.555977
vn -0.896429 -0.334025 0.291277
vn -0.899578 -0.324520 0.292310
vn -0.942564 -0.334026 0.000002
vn -0.945878 -0.324522 0.000001
vn 0.899581 -0.324520 -0.292304
vn 0.765246 -0.324518 -0.555955
vn 0.555972 -0.324521 -0.765233
vn 0.292286 -0.324519 -0.899587
vn 0.000000 -0.324520 -0.945879
vn -0.292288 -0.324519 -0.899586
vn -0.555976 -0.324520 -0.765230
vn -0.765243 -0.324516 -0.555961
vn -0.899578 -0.324519 -0.292312
vn -0.945878 -0.324522 -0.000000
vn -0.899578 -0.324519 0.292312
vn -0.765229 -0.324518 0.555980
vn -0.555981 -0.324519 0.765227
vn -0.292296 -0.324521 0.899583
vn 0.000000 -0.324519 0.945879
vn 0.292297 -0.324521 0.899583
vn 0.555976 -0.324520 0.765230
vn 0.765230 -0.324520 0.555977
vn 0.899581 -0.324520 0.292304
vn 0.945878 -0.324522 -0.000000
vn 0.951048 0.004183 -0.309014
vn 0.951048 0.004183 -0.309014
vn 0.809010 0.004183 -0.587780
vn 0.809009 0.004183 -0.587781
vn 0.999991 0.004183 0.000001
vn 0.999991 0.004183 0.000001
vn 0.951048 0.004185 0.309015
vn 0.951048 0.004185 0.309015
vn 0.809009 0.004183 0.587781
vn 0.809009 0.004183 0.587781
vn 0.587781 0.004180 0.809009
vn 0.587781 0.004180 0.809010
vn 0.309014 0.004179 0.951048
vn 0.309014 0.004179 0.951048
vn -0.000000 0.004179 0.999991
vn -0.000000 0.004179 0.999991
vn -0.309015 0.004180 0.951048
vn -0.309014 0.004180 0.951048
vn -0.000000 0.004180 -0.999991
vn -0.000000 0.004180 -0.999991
vn -0.309014 0.004180 -0.951048
vn -0.309014 0.004180 -0.951048
vn 0.309014 0.004180 -0.951048
vn 0.309014 0.004180 -0.951048
vn 0.587780 0.004181 -0.809010
vn 0.587780 0.004181 -0.809010
vn -0.951048 0.004177 -0.309015
vn -0.951048 0.004177 -0.309014
vn -0.809010 0.004177 -0.587780
vn -0.809010 0.004177 -0.587780
vn -0.999991 0.004179 0.000001
vn -0.999991 0.004179 0.000001
vn -0.587781 0.004180 -0.809010
vn -0.587781 0.004180 -0.809009
vn -0.587781 0.004180 0.809009
vn -0.587781 0.004180 0.809009
vn -0.809010 0.004178 0.587781
vn -0.809009 0.004178 0.587781
vn -0.951048 0.004178 0.309016
vn -0.951048 0.004178 0.309016
vn 0.804545 -0.104990 -0.584538
vn 0.945801 -0.104991 -0.307308
vn 0.584537 -0.104990 -0.804546
vn 0.307309 -0.104989 -0.945800
vn 0.000000 -0.104989 -0.994473
vn 0.307310 -0.104989 0.945800
vn 0.000000 -0.104989 0.994473
vn 0.584537 -0.104989 0.804546
vn 0.804545 -0.104990 0.584538
vn 0.945800 -0.104991 0.307309
vn 0.994473 -0.104991 0.000001
vn 0.993561 0.113298 0.000001
vn 0.944933 0.113298 -0.307027
vn 0.944933 0.113297 0.307028
vn 0.803808 0.113297 0.584001
vn 0.584001 0.113297 0.803807
vn 0.307028 0.113297 0.944933
vn -0.000000 0.113297 0.993561
vn 0.307027 0.113298 -0.944933
vn -0.000000 0.113297 -0.993561
vn 0.584001 0.113298 -0.803808
vn 0.803808 0.113298 -0.584000
vn -0.945801 -0.104989 -0.307309
vn -0.804546 -0.104989 -0.584536
vn -0.584537 -0.104989 -0.804546
vn -0.307309 -0.104989 -0.945800
vn -0.307309 -0.104989 0.945800
vn -0.584537 -0.104989 0.804545
vn -0.804546 -0.104989 0.584537
vn -0.945800 -0.104989 0.307310
vn -0.994473 -0.104989 0.000001
vn -0.993561 0.113297 0.000001
vn -0.944933 0.113297 -0.307027
vn -0.944933 0.113297 0.307028
vn -0.803808 0.113297 0.584001
vn -0.584001 0.113297 0.803807
vn -0.307027 0.113297 0.944933
vn -0.307027 0.113298 -0.944933
vn -0.584001 0.113298 -0.803808
vn -0.803808 0.113297 -0.584000
vn -0.003983 0.999991 0.001294
vn -0.003388 0.999991 0.002461
vn -0.003388 0.999991 0.002461
vn -0.003983 0.999991 0.001294
vn 0.003388 -0.999991 -0.002461
vn 0.003984 -0.999991 -0.001294
vn 0.003984 -0.999991 -0.001294
vn 0.003388 -0.999991 -0.002461
vn 0.004189 -0.999991 -0.000000
vn 0.004189 -0.999991 -0.000000
vn -0.004189 0.999991 0.000000
vn -0.004189 0.999991 0.000000
vn 0.003984 -0.999991 0.001294
vn 0.003984 -0.999991 0.001294
vn -0.003984 0.999991 -0.001294
vn -0.003984 0.999991 -0.001294
vn 0.003388 -0.999991 0.002461
vn 0.003388 -0.999991 0.002461
vn -0.003388 0.999991 -0.002461
vn -0.003388 0.999991 -0.002461
vn 0.002460 -0.999991 0.003386
vn 0.002460 -0.999991 0.003386
vn -0.002460 0.999991 -0.003386
vn -0.002460 0.999991 -0.003386
vn 0.001293 -0.999991 0.003980
vn 0.001293 -0.999991 0.003980
vn -0.001293 0.999991 -0.003980
vn -0.001293 0.999991 -0.003980
vn 0.000000 -0.999991 0.004186
vn 0.000000 -0.999991 0.004186
vn -0.000000 0.999991 -0.004186
vn -0.000000 0.999991 -0.004186
vn -0.001294 -0.999991 0.003982
vn -0.001294 -0.999991 0.003982
vn 0.001294 0.999991 -0.003982
vn 0.001294 0.999991 -0.003982
vn 0.000000 0.999991 0.004185
vn 0.001293 0.999991 0.003980
vn 0.001293 0.999991 0.003980
vn -0.000000 0.999991 0.004185
vn -0.001293 -0.999991 -0.003980
vn 0.000000 -0.999991 -0.004185
vn 0.000000 -0.999991 -0.004185
vn -0.001293 -0.999991 -0.003980
vn 0.001293 -0.999991 -0.003980
vn 0.001293 -0.999991 -0.003980
vn -0.001293 0.999991 0.003980
vn -0.001293 0.999991 0.003980
vn 0.002460 -0.999991 -0.003386
vn 0.002460 -0.999991 -0.003386
vn -0.002460 0.999991 0.003386
vn -0.002460 0.999991 0.003386
vn -0.003980 -0.999991 -0.001293
vn -0.003386 -0.999991 -0.002460
vn -0.003386 -0.999991 -0.002460
vn -0.003980 -0.999991 -0.001293
vn 0.003386 0.999991 0.002460
vn 0.003980 0.999991 0.001293
vn 0.003980 0.999991 0.001293
vn 0.003386 0.999991 0.002460
vn 0.004185 0.999991 -0.000000
vn 0.004185 0.999991 -0.000000
vn -0.004185 -0.999991 0.000000
vn -0.004185 -0.999991 0.000000
vn -0.002460 -0.999991 -0.003386
vn -0.002460 -0.999991 -0.003386
vn 0.002460 0.999991 0.003386
vn 0.002460 0.999991 0.003386
vn -0.002460 -0.999991 0.003386
vn -0.002460 -0.999991 0.003386
vn 0.002460 0.999991 -0.003386
vn 0.002460 0.999991 -0.003386
vn -0.003386 -0.999991 0.002460
vn -0.003386 -0.999991 0.002460
vn 0.003386 0.999991 -0.002460
vn 0.003386 0.999991 -0.002460
vn -0.003980 -0.999991 0.001293
vn -0.003980 -0.999991 0.001293
vn 0.003980 0.999991 -0.001293
vn 0.003980 0.999991 -0.001293
s 1
g pCylinder3 razzo3
usemtl initialShadingGroup
f 35/402/1 34/395/2 36/3/3
f 37/401/4 35/402/1 36/3/3
f 38/400/5 37/401/4 36/3/3
f 39/391/6 38/400/5 36/3/3
f 41/399/7 40/389/8 36/3/3
f 42/398/9 41/399/7 36/3/3
f 43/397/10 42/398/9 36/3/3
f 44/396/11 43/397/10 36/3/3
f 45/394/12 44/396/11 36/3/3
f 34/395/2 45/394/12 36/3/3
s 3
f 12/13/13 13/14/14 90/15/15 80/16/16
f 13/14/14 14/17/17 89/18/18 90/15/15
f 14/17/17 15/19/19 88/20/20 89/18/18
f 15/19/19 16/21/21 87/433/22 88/20/20
f 17/23/23 18/24/24 85/25/25 86/26/26
f 18/24/24 19/27/27 84/28/28 85/25/25
f 19/27/27 20/29/29 83/30/30 84/28/28
f 20/29/29 21/31/31 82/32/32 83/30/30
f 21/31/31 22/33/33 81/34/34 82/32/32
f 22/33/33 12/13/13 80/16/16 81/34/34
s 5
f 2/35/35 1/36/36 91/37/37 92/38/38
f 3/39/39 2/35/35 92/38/38 93/40/40
f 4/41/41 3/39/39 93/40/40 94/42/42
f 5/427/43 4/41/41 94/42/42 95/432/44
f 7/45/45 6/46/46 96/47/47 97/48/48
f 8/49/49 7/45/45 97/48/48 98/50/50
f 9/51/51 8/49/49 98/50/50 99/52/52
f 10/53/53 9/51/51 99/52/52 100/54/54
f 11/55/55 10/53/53 100/54/54 101/56/56
f 1/36/36 11/55/55 101/56/56 91/37/37
s 3
f 49/57/57 48/58/58 51/59/59 50/60/60
f 48/58/58 47/422/61 52/421/62 51/59/59
f 49/57/57 50/60/60 46/63/63
f 50/60/60 53/64/64 46/63/63
f 53/64/64 56/65/65 46/63/63
f 56/65/65 59/66/66 46/63/63
f 62/67/67 65/68/68 46/63/63
f 65/68/68 68/69/69 46/63/63
f 68/69/69 71/70/70 46/63/63
f 71/70/70 74/71/71 46/63/63
f 74/71/71 77/72/72 46/63/63
f 77/72/72 49/57/57 46/63/63
f 23/73/73 24/74/74 52/62/62 47/61/61
f 24/74/74 25/75/75 55/76/76 52/62/62
f 25/75/75 26/77/77 58/78/78 55/76/76
f 26/77/77 27/434/79 61/435/80 58/78/78
f 28/81/81 29/82/82 67/83/83 64/409/84
f 29/82/82 30/85/85 70/86/86 67/83/83
f 30/85/85 31/87/87 73/88/88 70/86/86
f 31/87/87 32/89/89 76/90/90 73/88/88
f 32/89/89 33/91/91 79/92/92 76/90/90
f 33/91/91 23/73/73 47/61/61 79/92/92
f 50/60/60 51/59/59 54/93/93 53/64/64
f 51/59/59 52/421/62 55/420/76 54/93/93
f 53/64/64 54/93/93 57/94/94 56/65/65
f 54/93/93 55/420/76 58/419/78 57/94/94
f 56/65/65 57/94/94 60/95/95 59/66/66
f 57/94/94 58/419/78 61/411/80 60/95/95
f 62/67/67 63/96/96 66/97/97 65/68/68
f 63/96/96 64/84/84 67/418/83 66/97/97
f 65/68/68 66/97/97 69/98/98 68/69/69
f 66/97/97 67/418/83 70/417/86 69/98/98
f 68/69/69 69/98/98 72/99/99 71/70/70
f 69/98/98 70/417/86 73/416/88 72/99/99
f 71/70/70 72/99/99 75/100/100 74/71/71
f 72/99/99 73/416/88 76/414/90 75/100/100
f 74/71/71 75/100/100 78/101/101 77/72/72
f 75/100/100 76/414/90 79/415/92 78/101/101
f 47/422/61 48/58/58 78/101/101 79/415/92
f 48/58/58 49/57/57 77/72/72 78/101/101
f 81/34/34 80/16/16 23/73/73 33/91/91
f 82/32/32 81/34/34 33/91/91 32/89/89
f 83/30/30 82/32/32 32/89/89 31/87/87
f 84/28/28 83/30/30 31/87/87 30/85/85
f 85/25/25 84/28/28 30/85/85 29/82/82
f 86/26/26 85/25/25 29/82/82 28/81/81
f 88/20/20 87/433/22 27/434/79 26/77/77
f 89/18/18 88/20/20 26/77/77 25/75/75
f 90/15/15 89/18/18 25/75/75 24/74/74
f 80/16/16 90/15/15 24/74/74 23/73/73
s 5
f 93/40/40 92/38/38 103/102/102 104/103/103
f 94/42/42 93/40/40 104/103/103 105/104/104
f 95/432/44 94/42/42 105/104/104 106/431/105
f 97/48/48 96/47/47 107/106/106 108/107/107
f 98/50/50 97/48/48 108/107/107 109/108/108
f 99/52/52 98/50/50 109/108/108 110/109/109
f 103/102/102 102/110/110 203/111/111 204/112/112
f 104/103/103 103/102/102 204/112/112 205/113/113
f 105/104/104 104/103/103 205/113/113 206/114/114
f 106/431/105 105/104/104 206/114/114 207/429/115
f 108/107/107 107/106/106 217/116/116 218/117/117
f 109/108/108 108/107/107 218/117/117 219/118/118
f 110/109/109 109/108/108 219/118/118 220/119/119
f 111/120/120 110/109/109 220/119/119 221/121/121
f 112/122/122 111/120/120 221/121/121 222/123/123
f 102/110/110 112/122/122 222/123/123 203/111/111
f 92/38/38 91/37/37 102/110/110 103/102/102
f 100/54/54 99/52/52 110/109/109 111/120/120
s 1
f 141/393/124 36/3/3 140/384/125
f 142/392/126 36/3/3 141/393/124
f 143/390/127 36/3/3 142/392/126
f 39/391/6 36/3/3 143/390/127
f 144/388/128 36/3/3 40/389/8
f 145/387/129 36/3/3 144/388/128
f 146/386/130 36/3/3 145/387/129
f 147/385/131 36/3/3 146/386/130
f 148/383/132 36/3/3 147/385/131
f 140/384/125 36/3/3 148/383/132
s 3
f 122/133/133 176/134/134 184/135/135 123/136/136
f 123/136/136 184/135/135 183/137/137 124/138/138
f 124/138/138 183/137/137 182/139/139 125/140/140
f 125/140/140 182/139/139 87/22/22 16/426/21
f 17/23/23 86/26/26 181/141/141 126/142/142
f 126/142/142 181/141/141 180/143/143 127/144/144
f 127/144/144 180/143/143 179/145/145 128/146/146
f 128/146/146 179/145/145 178/147/147 129/148/148
f 129/148/148 178/147/147 177/149/149 130/150/150
f 130/150/150 177/149/149 176/134/134 122/133/133
s 5
f 114/151/151 186/152/152 185/153/153 113/154/154
f 115/155/155 187/156/156 186/152/152 114/151/151
f 116/157/157 188/158/158 187/156/156 115/155/155
f 5/43/43 95/44/44 188/158/158 116/157/157
f 117/159/159 189/160/160 96/47/47 6/46/46
f 118/161/161 190/162/162 189/160/160 117/159/159
f 119/163/163 191/164/164 190/162/162 118/161/161
f 120/165/165 192/166/166 191/164/164 119/163/163
f 121/167/167 193/168/168 192/166/166 120/165/165
f 113/154/154 185/153/153 193/168/168 121/167/167
s 3
f 151/169/169 152/170/170 153/171/171 150/172/172
f 150/172/172 153/171/171 154/173/173 149/404/174
f 151/169/169 46/63/63 152/170/170
f 152/170/170 46/63/63 155/175/175
f 155/175/175 46/63/63 158/176/176
f 158/176/176 46/63/63 59/66/66
f 62/67/67 46/63/63 161/177/177
f 161/177/177 46/63/63 164/178/178
f 164/178/178 46/63/63 167/179/179
f 167/179/179 46/63/63 170/180/180
f 170/180/180 46/63/63 173/181/181
f 173/181/181 46/63/63 151/169/169
f 131/182/182 149/174/174 154/413/173 132/183/183
f 132/183/183 154/413/173 157/412/184 133/185/185
f 133/185/185 157/412/184 160/410/186 134/187/187
f 134/187/187 160/410/186 61/80/80 27/79/79
f 28/81/81 64/409/84 163/408/188 135/189/189
f 135/189/189 163/408/188 166/407/190 136/191/191
f 136/191/191 166/407/190 169/406/192 137/193/193
f 137/193/193 169/406/192 172/405/194 138/195/195
f 138/195/195 172/405/194 175/403/196 139/197/197
f 139/197/197 175/403/196 149/174/174 131/182/182
f 152/170/170 155/175/175 156/198/198 153/171/171
f 153/171/171 156/198/198 157/184/184 154/173/173
f 155/175/175 158/176/176 159/199/199 156/198/198
f 156/198/198 159/199/199 160/186/186 157/184/184
f 158/176/176 59/66/66 60/95/95 159/199/199
f 159/199/199 60/95/95 61/411/80 160/186/186
f 62/67/67 161/177/177 162/200/200 63/96/96
f 63/96/96 162/200/200 163/188/188 64/84/84
f 161/177/177 164/178/178 165/201/201 162/200/200
f 162/200/200 165/201/201 166/190/190 163/188/188
f 164/178/178 167/179/179 168/202/202 165/201/201
f 165/201/201 168/202/202 169/192/192 166/190/190
f 167/179/179 170/180/180 171/203/203 168/202/202
f 168/202/202 171/203/203 172/194/194 169/192/192
f 170/180/180 173/181/181 174/204/204 171/203/203
f 171/203/203 174/204/204 175/196/196 172/194/194
f 149/404/174 175/196/196 174/204/204 150/172/172
f 150/172/172 174/204/204 173/181/181 151/169/169
f 177/149/149 139/197/197 131/182/182 176/134/134
f 178/147/147 138/195/195 139/197/197 177/149/149
f 179/145/145 137/193/193 138/195/195 178/147/147
f 180/143/143 136/191/191 137/193/193 179/145/145
f 181/141/141 135/189/189 136/191/191 180/143/143
f 86/26/26 28/81/81 135/189/189 181/141/141
f 182/139/139 134/187/187 27/79/79 87/22/22
f 183/137/137 133/185/185 134/187/187 182/139/139
f 184/135/135 132/183/183 133/185/185 183/137/137
f 176/134/134 131/182/182 132/183/183 184/135/135
s 5
f 187/156/156 196/205/205 195/206/206 186/152/152
f 188/158/158 197/207/207 196/205/205 187/156/156
f 95/44/44 106/105/105 197/207/207 188/158/158
f 189/160/160 198/208/208 107/106/106 96/47/47
f 190/162/162 199/209/209 198/208/208 189/160/160
f 191/164/164 200/210/210 199/209/209 190/162/162
f 195/206/206 210/211/211 211/212/212 194/213/213
f 196/205/205 209/214/214 210/211/211 195/206/206
f 197/207/207 208/215/215 209/214/214 196/205/205
f 106/105/105 207/115/115 208/215/215 197/207/207
f 198/208/208 216/216/216 217/116/116 107/106/106
f 199/209/209 215/217/217 216/216/216 198/208/208
f 200/210/210 214/218/218 215/217/217 199/209/209
f 201/219/219 213/220/220 214/218/218 200/210/210
f 202/221/221 212/222/222 213/220/220 201/219/219
f 194/213/213 211/212/212 212/222/222 202/221/221
f 186/152/152 195/206/206 194/213/213 185/153/153
f 192/166/166 201/219/219 200/210/210 191/164/164
f 192/166/166 193/168/168 202/221/221 201/219/219
f 193/168/168 185/153/153 194/213/213 202/221/221
f 101/56/56 100/54/54 111/120/120 112/122/122
f 102/110/110 91/37/37 101/56/56 112/122/122
f 204/112/112 203/111/111 34/2/223 35/1/224
f 205/113/113 204/112/112 35/1/224 37/4/225
f 206/114/114 205/113/113 37/4/225 38/5/226
f 207/429/115 206/114/114 38/5/226 39/430/227
f 208/215/215 207/115/115 39/6/227 143/127/228
f 209/214/214 208/215/215 143/127/228 142/126/229
f 210/211/211 209/214/214 142/126/229 141/124/230
f 211/212/212 210/211/211 141/124/230 140/125/231
f 212/222/222 211/212/212 140/125/231 148/132/232
f 213/220/220 212/222/222 148/132/232 147/131/233
f 214/218/218 213/220/220 147/131/233 146/130/234
f 215/217/217 214/218/218 146/130/234 145/129/235
f 216/216/216 215/217/217 145/129/235 144/128/236
f 217/116/116 216/216/216 144/128/236 40/8/237
f 218/117/117 217/116/116 40/8/237 41/7/238
f 219/118/118 218/117/117 41/7/238 42/9/239
f 220/119/119 219/118/118 42/9/239 43/10/240
f 221/121/121 220/119/119 43/10/240 44/11/241
f 222/123/123 221/121/121 44/11/241 45/12/242
f 203/111/111 222/123/123 45/12/242 34/2/223
s 13
f 263/342/243 264/224/244 265/321/245 266/226/246
f 264/224/244 263/342/243 267/340/247 268/228/248
f 268/228/248 267/340/247 269/338/249 270/230/250
f 270/230/250 269/338/249 271/336/251 272/232/252
f 272/232/252 271/336/251 273/334/253 274/234/254
f 274/234/254 273/334/253 275/332/255 276/236/256
f 276/236/256 275/332/255 277/330/257 278/238/258
f 278/238/258 277/330/257 279/312/259 280/240/260
f 281/328/261 282/424/262 283/313/263 284/244/264
f 282/242/262 281/423/261 285/326/265 286/246/266
f 286/246/266 285/326/265 287/323/267 288/248/268
f 288/248/268 287/323/267 266/226/246 265/321/245
f 289/320/269 290/250/270 291/318/271 292/252/272
f 290/250/270 289/320/269 293/303/273 294/254/274
f 292/252/272 291/318/271 295/315/275 296/256/276
f 296/256/276 295/315/275 284/244/264 283/313/263
f 280/240/260 279/312/259 297/310/277 298/258/278
f 298/258/278 297/310/277 299/308/279 300/260/280
f 300/260/280 299/308/279 301/305/281 302/262/282
f 302/262/282 301/305/281 294/254/274 293/303/273
s 5
f 1/36/36 2/35/35 243/361/283 224/381/284
f 2/35/35 3/39/39 241/362/285 243/361/283
f 3/39/39 4/41/41 239/365/286 241/362/285
f 4/41/41 5/427/43 238/428/287 239/365/286
f 6/46/46 7/45/45 233/371/288 235/369/289
f 7/45/45 8/49/49 231/373/290 233/371/288
f 8/49/49 9/51/51 229/375/291 231/373/290
f 9/51/51 10/53/53 227/377/292 229/375/291
f 10/53/53 11/55/55 225/379/293 227/377/292
f 11/55/55 1/36/36 224/381/284 225/379/293
s 3
f 226/380/294 223/382/295 12/13/13 22/33/33
f 228/378/296 226/380/294 22/33/33 21/31/31
f 230/376/297 228/378/296 21/31/31 20/29/29
f 232/374/298 230/376/297 20/29/29 19/27/27
f 234/372/299 232/374/298 19/27/27 18/24/24
f 236/370/300 234/372/299 18/24/24 17/23/23
f 240/366/301 237/368/302 16/21/21 15/19/19
f 242/363/303 240/366/301 15/19/19 14/17/17
f 244/364/304 242/363/303 14/17/17 13/14/14
f 223/382/295 244/364/304 13/14/14 12/13/13
s 5
f 113/154/154 245/360/305 247/357/306 114/151/151
f 114/151/151 247/357/306 249/354/307 115/155/155
f 115/155/155 249/354/307 251/353/308 116/157/157
f 116/157/157 251/353/308 238/367/287 5/43/43
f 6/46/46 235/369/289 253/351/309 117/159/159
f 117/159/159 253/351/309 255/349/310 118/161/161
f 118/161/161 255/349/310 257/347/311 119/163/163
f 119/163/163 257/347/311 259/344/312 120/165/165
f 120/165/165 259/344/312 261/343/313 121/167/167
f 121/167/167 261/343/313 245/360/305 113/154/154
s 3
f 262/346/314 130/150/150 122/133/133 246/359/315
f 260/345/316 129/148/148 130/150/150 262/346/314
f 258/348/317 128/146/146 129/148/148 260/345/316
f 256/350/318 127/144/144 128/146/146 258/348/317
f 254/352/319 126/142/142 127/144/144 256/350/318
f 236/370/300 17/23/23 126/142/142 254/352/319
f 252/356/320 125/140/140 16/426/21 237/425/302
f 250/355/321 124/138/138 125/140/140 252/356/320
f 248/358/322 123/136/136 124/138/138 250/355/321
f 246/359/315 122/133/133 123/136/136 248/358/322
s 16
f 224/264/323 243/263/324 265/225/325 264/341/326
s 17
f 244/284/327 223/275/328 263/223/329 266/324/330
f 223/275/328 226/274/331 267/227/332 263/223/329
s 16
f 225/273/333 224/264/323 264/341/326 268/339/334
s 17
f 226/274/331 228/276/335 269/229/336 267/227/332
s 16
f 227/272/337 225/273/333 268/339/334 270/337/338
s 17
f 228/276/335 230/277/339 271/231/340 269/229/336
s 16
f 229/271/341 227/272/337 270/337/338 272/335/342
s 17
f 230/277/339 232/278/343 273/233/344 271/231/340
s 16
f 231/270/345 229/271/341 272/335/342 274/333/346
s 17
f 232/278/343 234/279/347 275/235/348 273/233/344
s 16
f 233/268/349 231/270/345 274/333/346 276/331/350
s 17
f 234/279/347 236/280/351 277/237/352 275/235/348
s 16
f 235/269/353 233/268/349 276/331/350 278/329/354
s 17
f 236/280/351 254/299/355 279/239/356 277/237/352
s 16
f 253/289/357 235/269/353 278/329/354 280/311/358
f 238/267/359 251/288/360 283/243/361 282/327/362
s 17
f 252/300/363 237/282/364 281/241/365 284/316/366
f 237/282/364 240/281/367 285/245/368 281/241/365
s 16
f 239/266/369 238/267/359 282/327/362 286/325/370
s 17
f 240/281/367 242/283/371 287/247/372 285/245/368
s 16
f 241/265/373 239/266/369 286/325/370 288/322/374
s 17
f 242/283/371 244/284/327 266/324/330 287/247/372
s 16
f 243/263/324 241/265/373 288/322/374 265/225/325
s 17
f 246/295/375 248/302/376 291/251/377 290/319/378
s 16
f 247/286/379 245/285/380 289/249/381 292/317/382
f 245/285/380 261/293/383 293/253/384 289/249/381
s 17
f 262/294/385 246/295/375 290/319/378 294/306/386
f 248/302/376 250/301/387 295/255/388 291/251/377
s 16
f 249/287/389 247/286/379 292/317/382 296/314/390
s 17
f 250/301/387 252/300/363 284/316/366 295/255/388
s 16
f 251/288/360 249/287/389 296/314/390 283/243/361
s 17
f 254/299/355 256/298/391 297/257/392 279/239/356
s 16
f 255/290/393 253/289/357 280/311/358 298/309/394
s 17
f 256/298/391 258/297/395 299/259/396 297/257/392
s 16
f 257/291/397 255/290/393 298/309/394 300/307/398
s 17
f 258/297/395 260/296/399 301/261/400 299/259/396
s 16
f 259/292/401 257/291/397 300/307/398 302/304/402
s 17
f 260/296/399 262/294/385 294/306/386 301/261/400
s 16
f 261/293/383 259/292/401 302/304/402 293/253/384
g default
v 76.619812 -87.107094 4.445186
v 79.532471 -86.638596 6.889195
v 79.660912 -76.823975 6.996973
v 84.527756 -74.020187 11.080741
v 82.029640 -76.823975 4.174035
v 86.896484 -74.020187 8.257803
v 78.988541 -87.107094 1.622248
v 81.901192 -86.638596 4.066257
v 75.922455 -71.713470 3.860037
v 78.964943 -64.341812 6.412983
v 81.333664 -64.341812 3.590045
v 78.291183 -71.713470 1.037099
v 70.106804 -87.107094 3.001287
v 66.434158 -86.638596 3.985370
v 66.272194 -76.823975 4.028767
v 60.135460 -74.020187 5.673100
v 65.318428 -76.823975 0.469249
v 59.181694 -74.020187 2.113583
v 69.153030 -87.107094 -0.558230
v 65.480385 -86.638596 0.425853
v 70.986115 -71.713470 2.765676
v 67.149765 -64.341812 3.793623
v 66.195999 -64.341812 0.234106
v 70.032341 -71.713470 -0.793841
v 76.031273 -87.107094 -4.719626
v 76.031273 -86.638596 -8.521830
v 76.031273 -76.823975 -8.689503
v 76.031273 -74.020187 -15.042717
v 72.346184 -76.823975 -8.689503
v 72.346184 -74.020187 -15.042717
v 72.346184 -87.107094 -4.719626
v 72.346184 -86.638596 -8.521830
v 76.031273 -71.713470 -3.809296
v 76.031273 -64.341812 -7.780975
v 72.346184 -64.341812 -7.780975
v 72.346184 -71.713470 -3.809296
vt 0.144522 0.762488
vt 0.159608 0.875277
vt 0.127791 0.875277
vt 0.112705 0.762488
vt 0.142808 0.961787
vt 0.110991 0.961787
vt 0.888904 0.194819
vt 0.879737 0.286556
vt 0.847983 0.286556
vt 0.857149 0.194819
vt 0.891006 0.332147
vt 0.859251 0.332147
vt 0.015175 0.007835
vt 0.045928 0.011624
vt 0.098670 0.113684
vt 0.047284 0.091007
vt 0.039936 0.191964
vt 0.007812 0.132341
vt 0.059198 0.814846
vt 0.007812 0.837523
vt 0.060555 0.735464
vt 0.091307 0.731674
vt 0.098670 0.856180
vt 0.066547 0.915804
vt 0.076598 0.031485
vt 0.096440 0.007838
vt 0.119359 0.027069
vt 0.099517 0.050716
vt 0.130644 0.015565
vt 0.159543 0.007822
vt 0.167532 0.037639
vt 0.138634 0.045382
vt 0.179777 0.038710
vt 0.179777 0.007841
vt 0.209695 0.007841
vt 0.209695 0.038710
vt 0.089873 0.370050
vt 0.058315 0.454676
vt 0.007812 0.477750
vt 0.059648 0.373906
vt 0.097109 0.496733
vt 0.065537 0.557399
vt 0.942705 0.481558
vt 0.974262 0.566183
vt 0.944038 0.562328
vt 0.892202 0.458484
vt 0.949927 0.378834
vt 0.981499 0.439500
vt 0.202324 0.992188
vt 0.169951 0.992188
vt 0.169951 0.881336
vt 0.202324 0.881336
vt 0.169951 0.796313
vt 0.202324 0.796313
vt 0.612145 0.356924
vt 0.644456 0.356924
vt 0.644456 0.447084
vt 0.612145 0.447084
vt 0.644456 0.491892
vt 0.612145 0.491892
vt 0.796023 0.491334
vt 0.824429 0.491334
vt 0.792863 0.542759
vt 0.764457 0.542759
vt 0.770345 0.387858
vt 0.798751 0.387858
vt 0.865523 0.519547
vt 0.818553 0.616937
vt 0.823345 0.392572
vt 0.725882 0.383425
vt 0.684778 0.411646
vt 0.726967 0.284640
vt 0.751566 0.279924
vt 0.757456 0.434864
vt 0.731760 0.509060
vt 0.698554 0.284640
vt 0.656365 0.411646
vt 0.703347 0.509060
vn -0.642787 0.000000 0.766045
vn -0.642787 0.000000 0.766045
vn -0.642787 0.000000 0.766045
vn -0.642787 0.000000 0.766045
vn 0.642788 0.000000 -0.766045
vn 0.642788 0.000000 -0.766045
vn 0.642788 0.000000 -0.766045
vn 0.642788 0.000000 -0.766045
vn 0.093682 -0.992494 0.078608
vn 0.093682 -0.992494 0.078608
vn 0.093682 -0.992494 0.078608
vn 0.093682 -0.992494 0.078608
vn 0.680544 -0.459097 0.571043
vn 0.680544 -0.459097 0.571043
vn 0.680544 -0.459097 0.571043
vn 0.680544 -0.459097 0.571043
vn -0.714638 0.360151 -0.599653
vn -0.714638 0.360150 -0.599653
vn -0.714638 0.360151 -0.599653
vn -0.714638 0.360150 -0.599653
vn -0.642788 0.000000 0.766044
vn -0.642788 0.000000 0.766044
vn -0.642788 0.000000 0.766044
vn -0.642788 0.000000 0.766044
vn 0.612746 0.600156 0.514154
vn 0.612746 0.600156 0.514154
vn 0.612746 0.600156 0.514154
vn 0.612746 0.600156 0.514154
vn 0.642788 -0.000000 -0.766044
vn 0.642788 -0.000000 -0.766044
vn 0.642788 -0.000000 -0.766044
vn 0.642788 -0.000000 -0.766044
vn -0.554014 -0.690624 -0.464874
vn -0.554014 -0.690624 -0.464874
vn -0.554014 -0.690624 -0.464874
vn -0.554014 -0.690624 -0.464874
vn 0.258819 0.000000 0.965926
vn 0.258819 0.000000 0.965926
vn 0.258819 0.000000 0.965926
vn 0.258819 0.000000 0.965926
vn -0.258819 0.000000 -0.965926
vn -0.258819 0.000000 -0.965926
vn -0.258819 0.000000 -0.965926
vn -0.258819 0.000000 -0.965926
vn -0.118126 -0.992494 0.031652
vn -0.118126 -0.992494 0.031652
vn -0.118126 -0.992494 0.031652
vn -0.118126 -0.992494 0.031652
vn -0.858115 -0.459097 0.229931
vn -0.858115 -0.459097 0.229931
vn -0.858115 -0.459097 0.229931
vn -0.858115 -0.459097 0.229931
vn 0.901107 0.360151 -0.241450
vn 0.901107 0.360151 -0.241450
vn 0.901107 0.360151 -0.241450
vn 0.901107 0.360151 -0.241450
vn 0.258819 -0.000000 0.965926
vn 0.258819 -0.000000 0.965926
vn 0.258819 -0.000000 0.965926
vn 0.258819 -0.000000 0.965926
vn -0.772627 0.600157 0.207024
vn -0.772627 0.600157 0.207024
vn -0.772627 0.600157 0.207024
vn -0.772627 0.600157 0.207024
vn -0.258819 0.000000 -0.965926
vn -0.258819 0.000000 -0.965926
vn -0.258819 0.000000 -0.965926
vn -0.258819 0.000000 -0.965926
vn 0.698571 -0.690624 -0.187182
vn 0.698571 -0.690624 -0.187182
vn 0.698571 -0.690624 -0.187182
vn 0.698571 -0.690624 -0.187182
vn 1.000000 0.000001 0.000000
vn 1.000000 0.000001 0.000000
vn 1.000000 0.000001 0.000000
vn 1.000000 0.000001 0.000000
vn -1.000000 0.000000 0.000000
vn -1.000000 0.000000 0.000000
vn -1.000000 0.000000 0.000000
vn -1.000000 0.000000 0.000000
vn 0.000000 -0.992494 -0.122293
vn 0.000000 -0.992494 -0.122293
vn 0.000000 -0.992494 -0.122293
vn 0.000000 -0.992494 -0.122293
vn 0.000000 -0.459097 -0.888386
vn 0.000000 -0.459097 -0.888386
vn 0.000000 -0.459097 -0.888386
vn 0.000000 -0.459097 -0.888386
vn 0.000000 0.360150 0.932894
vn 0.000000 0.360150 0.932894
vn 0.000000 0.360150 0.932894
vn 0.000000 0.360150 0.932894
vn 1.000000 0.000000 0.000000
vn 1.000000 0.000000 0.000000
vn 1.000000 0.000000 0.000000
vn 1.000000 0.000000 0.000000
vn 0.000000 0.600156 -0.799883
vn 0.000000 0.600156 -0.799883
vn 0.000000 0.600156 -0.799883
vn 0.000000 0.600156 -0.799883
vn -1.000000 0.000000 0.000000
vn -1.000000 0.000000 0.000000
vn -1.000000 0.000000 0.000000
vn -1.000000 0.000000 0.000000
vn 0.000000 -0.690624 0.723214
vn 0.000000 -0.690624 0.723214
vn 0.000000 -0.690624 0.723214
vn 0.000000 -0.690624 0.723214
s off
g razzo3 pCube7
usemtl initialShadingGroup
f 303/501/403 304/504/404 306/502/405 305/497/406
f 307/505/407 308/506/408 310/507/409 309/508/410
f 309/460/411 310/461/412 304/462/413 303/463/414
f 304/511/415 310/507/416 308/506/417 306/512/418
f 309/500/419 303/501/420 305/497/421 307/496/422
f 305/497/423 306/502/424 312/503/425 311/498/426
f 306/512/427 308/506/428 313/510/429 312/513/430
f 308/506/431 307/505/432 314/509/433 313/510/434
f 307/496/435 305/497/436 311/498/437 314/499/438
f 315/472/439 317/473/440 318/474/441 316/475/442
f 319/478/443 321/479/444 322/480/445 320/481/446
f 321/464/447 315/465/448 316/466/449 322/467/450
f 316/436/451 318/437/452 320/438/453 322/439/454
f 321/442/455 319/443/456 317/444/457 315/445/458
f 317/473/459 323/476/460 324/477/461 318/474/462
f 318/437/463 324/440/464 325/441/465 320/438/466
f 320/481/467 325/482/468 326/483/469 319/478/470
f 319/443/471 326/446/472 323/447/473 317/444/474
f 327/448/475 328/449/476 330/450/477 329/451/478
f 331/454/479 332/455/480 334/456/481 333/457/482
f 333/468/483 334/469/484 328/470/485 327/471/486
f 328/484/487 334/485/488 332/486/489 330/487/490
f 333/490/491 327/491/492 329/492/493 331/493/494
f 329/451/495 330/450/496 336/452/497 335/453/498
f 330/487/499 332/486/500 337/488/501 336/489/502
f 332/455/503 331/454/504 338/458/505 337/459/506
f 331/493/507 329/492/508 335/494/509 338/495/510
g default
v 83.002971 -102.578539 -2.846768
v 81.694453 -102.578539 -5.414876
v 79.656399 -102.578539 -7.452937
v 77.088293 -102.578539 -8.761452
v 74.241518 -102.578539 -9.212335
v 71.394748 -102.578539 -8.761452
v 68.826648 -102.578539 -7.452935
v 66.788583 -102.578539 -5.414874
v 65.480065 -102.578539 -2.846768
v 65.029187 -102.578539 0.000000
v 65.480065 -102.578539 2.846768
v 66.788583 -102.578539 5.414873
v 68.826648 -102.578539 7.452934
v 71.394748 -102.578539 8.761449
v 74.241518 -102.578539 9.212332
v 77.088282 -102.578539 8.761448
v 79.656388 -102.578539 7.452932
v 81.694453 -102.578539 5.414873
v 83.002965 -102.578539 2.846767
v 83.453854 -102.578539 0.000000
v 83.002971 -86.302158 -2.846768
v 81.694453 -86.302158 -5.414876
v 79.656399 -86.302158 -7.452937
v 77.088293 -86.302158 -8.761452
v 74.241518 -86.302158 -9.212335
v 71.394748 -86.302158 -8.761452
v 68.826648 -86.302158 -7.452935
v 66.788583 -86.302158 -5.414874
v 65.480065 -86.302158 -2.846768
v 65.029187 -86.302158 0.000000
v 65.480065 -86.302158 2.846768
v 66.788583 -86.302158 5.414873
v 68.826648 -86.302158 7.452934
v 71.394748 -86.302158 8.761449
v 74.241518 -86.302158 9.212332
v 77.088282 -86.302158 8.761448
v 79.656388 -86.302158 7.452932
v 81.694453 -86.302158 5.414873
v 83.002965 -86.302158 2.846767
v 83.453854 -86.302158 0.000000
v 74.241518 -102.578539 0.000000
v 74.241518 -86.302158 0.000000
vt 0.652683 0.159272
vt 0.671535 0.172985
vt 0.966655 0.119925
vt 0.975229 0.098247
vt 0.693703 0.180201
vt 0.951801 0.137892
vt 0.717015 0.180213
vt 0.932122 0.150390
vt 0.739190 0.173022
vt 0.909544 0.156195
vt 0.758057 0.159329
vt 0.886277 0.154739
vt 0.771770 0.140477
vt 0.864600 0.146164
vt 0.778986 0.118309
vt 0.846632 0.131310
vt 0.778998 0.094997
vt 0.834134 0.111631
vt 0.771806 0.072822
vt 0.828330 0.089054
vt 0.758114 0.053955
vt 0.829786 0.065787
vt 0.739261 0.040242
vt 0.838360 0.044109
vt 0.717094 0.033026
vt 0.853214 0.026142
vt 0.693782 0.033014
vt 0.872893 0.013644
vt 0.671607 0.040206
vt 0.895471 0.007839
vt 0.652740 0.053898
vt 0.918738 0.009295
vt 0.639027 0.072751
vt 0.940416 0.017870
vt 0.631811 0.094918
vt 0.958383 0.032724
vt 0.631799 0.118230
vt 0.970880 0.052403
vt 0.638990 0.140405
vt 0.976685 0.074980
vt 0.705398 0.106614
vt 0.902508 0.082017
vt 0.985035 0.723831
vt 0.518793 0.724660
vt 0.519027 0.856306
vt 0.985270 0.855476
vt 0.868709 0.855684
vt 0.892021 0.855642
vt 0.845397 0.855725
vt 0.822085 0.855767
vt 0.798773 0.855808
vt 0.775461 0.855850
vt 0.752149 0.855891
vt 0.728836 0.855933
vt 0.705524 0.855974
vt 0.682212 0.856016
vt 0.658900 0.856057
vt 0.635588 0.856099
vt 0.612276 0.856140
vt 0.588964 0.856182
vt 0.565652 0.856223
vt 0.542340 0.856265
vt 0.961957 0.855518
vt 0.938645 0.855559
vt 0.915333 0.855601
vt 0.868475 0.724038
vt 0.891787 0.723997
vt 0.845163 0.724079
vt 0.821851 0.724121
vt 0.798538 0.724162
vt 0.775226 0.724204
vt 0.751914 0.724245
vt 0.728602 0.724287
vt 0.705290 0.724328
vt 0.681978 0.724370
vt 0.658666 0.724411
vt 0.635354 0.724453
vt 0.612042 0.724494
vt 0.588730 0.724536
vt 0.565417 0.724577
vt 0.542105 0.724619
vt 0.961723 0.723872
vt 0.938411 0.723914
vt 0.915099 0.723955
vn 0.951057 0.000000 -0.309017
vn 0.809018 0.000000 -0.587785
vn 0.809018 0.000000 -0.587785
vn 0.951057 0.000000 -0.309017
vn 0.587786 0.000000 -0.809017
vn 0.587786 0.000000 -0.809017
vn 0.309016 0.000000 -0.951057
vn 0.309016 0.000000 -0.951057
vn 0.000000 0.000000 -1.000000
vn 0.000000 0.000000 -1.000000
vn -0.309017 0.000000 -0.951056
vn -0.309017 0.000000 -0.951056
vn -0.587786 0.000000 -0.809017
vn -0.587786 0.000000 -0.809017
vn -0.809017 0.000000 -0.587786
vn -0.809017 0.000000 -0.587786
vn -0.951057 0.000000 -0.309016
vn -0.951057 0.000000 -0.309016
vn -1.000000 0.000000 0.000000
vn -1.000000 0.000000 0.000000
vn -0.951057 0.000000 0.309016
vn -0.951057 0.000000 0.309016
vn -0.809016 0.000000 0.587786
vn -0.809016 0.000000 0.587786
vn -0.587785 0.000000 0.809017
vn -0.587785 0.000000 0.809017
vn -0.309017 0.000000 0.951057
vn -0.309017 0.000000 0.951057
vn 0.000000 0.000000 1.000000
vn 0.000000 0.000000 1.000000
vn 0.309017 0.000000 0.951056
vn 0.309017 0.000000 0.951056
vn 0.587785 0.000000 0.809017
vn 0.587785 0.000000 0.809017
vn 0.809017 0.000000 0.587785
vn 0.809017 0.000000 0.587785
vn 0.951056 0.000000 0.309017
vn 0.951056 0.000000 0.309017
vn 1.000000 0.000000 0.000001
vn 1.000000 0.000000 0.000001
vn 0.000000 -1.000000 0.000000
vn 0.000000 -1.000000 0.000000
vn 0.000000 -1.000000 0.000000
vn 0.000000 -1.000000 0.000000
vn 0.000000 -1.000000 0.000000
vn 0.000000 -1.000000 0.000000
vn 0.000000 -1.000000 0.000000
vn 0.000000 -1.000000 0.000000
vn 0.000000 -1.000000 0.000000
vn 0.000000 -1.000000 0.000000
vn 0.000000 -1.000000 0.000000
vn 0.000000 -1.000000 0.000000
vn 0.000000 -1.000000 0.000000
vn 0.000000 -1.000000 0.000000
vn 0.000000 -1.000000 0.000000
vn 0.000000 -1.000000 0.000000
vn 0.000000 -1.000000 0.000000
vn 0.000000 -1.000000 -0.000000
vn 0.000000 -1.000000 -0.000000
vn 0.000000 -1.000000 0.000000
vn 0.000000 -1.000000 0.000000
vn 0.000000 1.000000 0.000000
vn 0.000000 1.000000 -0.000000
vn 0.000000 1.000000 -0.000000
vn 0.000000 1.000000 -0.000000
vn 0.000000 1.000000 0.000000
vn 0.000000 1.000000 0.000000
vn 0.000000 1.000000 -0.000000
vn 0.000000 1.000000 -0.000000
vn 0.000000 1.000000 0.000000
vn 0.000000 1.000000 0.000000
vn 0.000000 1.000000 0.000000
vn 0.000000 1.000000 0.000000
vn 0.000000 1.000000 -0.000000
vn 0.000000 1.000000 -0.000000
vn 0.000000 1.000000 0.000000
vn 0.000000 1.000000 0.000000
vn 0.000000 1.000000 0.000000
vn 0.000000 1.000000 0.000000
vn 0.000000 1.000000 0.000000
vn 0.000000 1.000000 -0.000000
vn 0.000000 1.000000 -0.000000
s 1
g razzo3 pCylinder4
usemtl initialShadingGroup
f 339/580/511 340/597/512 360/578/513 359/561/514
f 340/597/512 341/596/515 361/577/516 360/578/513
f 341/596/515 342/595/517 362/576/518 361/577/516
f 342/595/517 343/556/519 363/559/520 362/576/518
f 343/557/519 344/594/521 364/575/522 363/558/520
f 344/594/521 345/593/523 365/574/524 364/575/522
f 345/593/523 346/592/525 366/573/526 365/574/524
f 346/592/525 347/591/527 367/572/528 366/573/526
f 347/591/527 348/590/529 368/571/530 367/572/528
f 348/590/529 349/589/531 369/570/532 368/571/530
f 349/589/531 350/588/533 370/569/534 369/570/532
f 350/588/533 351/587/535 371/568/536 370/569/534
f 351/587/535 352/586/537 372/567/538 371/568/536
f 352/586/537 353/585/539 373/566/540 372/567/538
f 353/585/539 354/584/541 374/565/542 373/566/540
f 354/584/541 355/583/543 375/564/544 374/565/542
f 355/583/543 356/582/545 376/563/546 375/564/544
f 356/582/545 357/581/547 377/562/548 376/563/546
f 357/581/547 358/579/549 378/560/550 377/562/548
f 358/579/549 339/580/511 359/561/514 378/560/550
s 2
f 340/515/551 339/514/552 379/554/553
f 341/518/554 340/515/551 379/554/553
f 342/520/555 341/518/554 379/554/553
f 343/522/556 342/520/555 379/554/553
f 344/524/557 343/522/556 379/554/553
f 345/526/558 344/524/557 379/554/553
f 346/528/559 345/526/558 379/554/553
f 347/530/560 346/528/559 379/554/553
f 348/532/561 347/530/560 379/554/553
f 349/534/562 348/532/561 379/554/553
f 350/536/563 349/534/562 379/554/553
f 351/538/564 350/536/563 379/554/553
f 352/540/565 351/538/564 379/554/553
f 353/542/566 352/540/565 379/554/553
f 354/544/567 353/542/566 379/554/553
f 355/546/568 354/544/567 379/554/553
f 356/548/569 355/546/568 379/554/553
f 357/550/570 356/548/569 379/554/553
f 358/552/571 357/550/570 379/554/553
f 339/514/552 358/552/571 379/554/553
s 3
f 359/517/572 360/516/573 380/555/574
f 360/516/573 361/519/575 380/555/574
f 361/519/575 362/521/576 380/555/574
f 362/521/576 363/523/577 380/555/574
f 363/523/577 364/525/578 380/555/574
f 364/525/578 365/527/579 380/555/574
f 365/527/579 366/529/580 380/555/574
f 366/529/580 367/531/581 380/555/574
f 367/531/581 368/533/582 380/555/574
f 368/533/582 369/535/583 380/555/574
f 369/535/583 370/537/584 380/555/574
f 370/537/584 371/539/585 380/555/574
f 371/539/585 372/541/586 380/555/574
f 372/541/586 373/543/587 380/555/574
f 373/543/587 374/545/588 380/555/574
f 374/545/588 375/547/589 380/555/574
f 375/547/589 376/549/590 380/555/574
f 376/549/590 377/551/591 380/555/574
f 377/551/591 378/553/592 380/555/574
f 378/553/592 359/517/572 380/555/574
