# This file uses meters as units for non-parametric coordinates.

mtllib razzo.mtl
g default
v 8.099937 -99.439598 -2.631830
v 6.890221 -99.439598 -5.006039
v 5.006039 -99.439598 -6.890221
v 2.631830 -99.439598 -8.099937
v -0.000000 -99.439598 -8.516777
v -2.631830 -99.439598 -8.099937
v -5.006035 -99.439598 -6.890221
v -6.890221 -99.439598 -5.006035
v -8.099937 -99.439598 -2.631828
v -8.516777 -99.439598 0.000000
v -8.099937 -99.439598 2.631828
v -6.890221 -99.439598 5.006035
v -5.006035 -99.439598 6.890213
v -2.631828 -99.439598 8.099937
v -0.000000 -99.439598 8.516777
v 2.631828 -99.439598 8.099937
v 5.006035 -99.439598 6.890213
v 6.890213 -99.439598 5.006035
v 8.099937 -99.439598 2.631828
v 8.516777 -99.439598 0.000000
v -0.000001 -2.737915 -0.000002
v 6.819267 -99.439598 -2.215715
v 5.800816 -99.439598 -4.214539
v 4.214539 -99.439598 -5.800816
v 2.215714 -99.439598 -6.819267
v 0.000000 -99.439598 -7.170197
v -2.215714 -99.439598 -6.819267
v -4.214535 -99.439598 -5.800812
v -5.800812 -99.439598 -4.214539
v -6.819267 -99.439598 -2.215714
v -7.170197 -99.439598 0.000000
v -6.819267 -99.439598 2.215714
v -5.800812 -99.439598 4.214535
v -4.214535 -99.439598 5.800812
v -2.215714 -99.439598 6.819260
v -0.000000 -99.439598 7.170197
v 2.215712 -99.439598 6.819260
v 4.214535 -99.439598 5.800812
v 5.800812 -99.439598 4.214535
v 6.819260 -99.439598 2.215714
v 7.170197 -99.439598 -0.000001
v 6.819267 -102.079597 -2.215715
v 5.800816 -102.079597 -4.214539
v -0.000000 -102.079597 0.000000
v 4.214539 -102.079597 -5.800823
v 2.215714 -102.079597 -6.819267
v 0.000000 -102.079597 -7.170197
v -2.215714 -102.079597 -6.819267
v -4.214535 -102.079597 -5.800812
v -5.800812 -102.079597 -4.214539
v -6.819267 -102.079597 -2.215714
v -7.170197 -102.079597 0.000000
v -6.819267 -102.079597 2.215714
v -5.800812 -102.079597 4.214535
v -4.214535 -102.079597 5.800812
v -2.215714 -102.079597 6.819260
v -0.000000 -102.079597 7.170197
v 2.215712 -102.079597 6.819260
v 4.214535 -102.079597 5.800812
v 5.800812 -102.079597 4.214535
v 6.819260 -102.079597 2.215714
v 7.170197 -102.079597 -0.000001
v 8.099937 -72.393463 -2.631830
v 8.516777 -72.393463 0.000000
v 8.099937 -72.393463 2.631828
v 6.890213 -72.393463 5.006035
v 5.006035 -72.393463 6.890213
v 2.631828 -72.393463 8.099937
v -0.000000 -72.393463 8.516777
v -2.631828 -72.393463 8.099937
v -5.006035 -72.393463 6.890213
v -6.890221 -72.393463 5.006035
v -8.099937 -72.393463 2.631828
v -8.516777 -72.393463 0.000000
v -8.099937 -72.393463 -2.631828
v -6.890221 -72.393463 -5.006035
v -5.006035 -72.393463 -6.890221
v -2.631830 -72.393463 -8.099937
v -0.000000 -72.393463 -8.516777
v 2.631830 -72.393463 -8.099937
v 5.006039 -72.393463 -6.890221
v 6.890221 -72.393463 -5.006039
v 8.099937 -75.092804 -2.631830
v 8.516777 -75.092804 0.000000
v 8.099937 -75.092804 2.631828
v 6.890213 -75.092804 5.006035
v 5.006035 -75.092804 6.890213
v 2.631828 -75.092804 8.099937
v -0.000000 -75.092804 8.516777
v -2.631828 -75.092804 8.099937
v -5.006035 -75.092804 6.890213
v -6.890221 -75.092804 5.006035
v -8.099937 -75.092804 2.631828
v -8.516777 -75.092804 0.000000
v -8.099937 -75.092804 -2.631828
v -6.890221 -75.092804 -5.006035
v -5.006035 -75.092804 -6.890221
v -2.631830 -75.092804 -8.099937
v -0.000000 -75.092804 -8.516777
v 2.631830 -75.092804 -8.099937
v 5.006039 -75.092804 -6.890221
v 6.890221 -75.092804 -5.006039
v 7.608856 -75.092804 -2.472267
v 8.000420 -75.092804 -0.000000
v 7.608856 -72.393463 -2.472267
v 8.000420 -72.393463 -0.000000
v 7.608849 -75.092804 2.472265
v 7.608849 -72.393463 2.472265
v 6.472473 -75.092804 4.702526
v 6.472473 -72.393463 4.702526
v 4.702526 -75.092804 6.472473
v 4.702526 -72.393463 6.472473
v 2.472265 -75.092804 7.608849
v 2.472265 -72.393463 7.608849
v -0.000000 -75.092804 8.000420
v -0.000000 -72.393463 8.000420
v -2.472265 -75.092804 7.608849
v -2.472265 -72.393463 7.608849
v -4.702526 -75.092804 6.472473
v -4.702530 -72.393463 6.472473
v -6.472473 -75.092804 4.702530
v -6.472473 -72.393463 4.702530
v -7.608849 -75.092804 2.472265
v -7.608849 -72.393463 2.472265
v -8.000420 -75.092804 0.000000
v -8.000420 -72.393463 0.000000
v -7.608849 -75.092804 -2.472265
v -7.608849 -72.393463 -2.472265
v -6.472473 -75.092804 -4.702530
v -6.472473 -72.393463 -4.702530
v -4.702530 -75.092804 -6.472473
v -4.702530 -72.393463 -6.472473
v -2.472265 -75.092804 -7.608856
v -2.472267 -72.393463 -7.608856
v 0.000000 -75.092804 -8.000420
v 0.000000 -72.393463 -8.000420
v 2.472267 -75.092804 -7.608856
v 2.472267 -72.393463 -7.608856
v 4.702530 -75.092804 -6.472481
v 4.702530 -72.393463 -6.472481
v 6.472481 -75.092804 -4.702530
v 6.472481 -72.393463 -4.702530
v 8.018944 -33.681274 -2.605515
v 8.099937 -34.317444 -2.631830
v 6.821327 -33.681274 -4.955982
v 6.890221 -34.317444 -5.006039
v 4.955982 -33.681274 -6.821327
v 5.006039 -34.317444 -6.890221
v 2.605515 -33.681274 -8.018944
v 2.631830 -34.317444 -8.099937
v -0.000000 -33.681274 -8.431618
v -0.000000 -34.317444 -8.516777
v -2.605515 -33.681274 -8.018944
v -2.631830 -34.317444 -8.099937
v -4.955982 -33.681274 -6.821320
v -5.006035 -34.317444 -6.890221
v -6.821320 -33.681274 -4.955982
v -6.890221 -34.317444 -5.006035
v -8.018944 -33.681274 -2.605513
v -8.099937 -34.317444 -2.631828
v -8.431618 -33.681274 -0.000000
v -8.516777 -34.317444 0.000000
v -8.018944 -33.681274 2.605513
v -8.099937 -34.317444 2.631828
v -6.821320 -33.681274 4.955978
v -6.890221 -34.317444 5.006035
v -4.955978 -33.681274 6.821320
v -5.006035 -34.317444 6.890213
v -2.605513 -33.681274 8.018944
v -2.631828 -34.317444 8.099937
v -0.000000 -33.681274 8.431618
v -0.000000 -34.317444 8.516777
v 2.605513 -33.681274 8.018944
v 2.631828 -34.317444 8.099937
v 4.955978 -33.681274 6.821320
v 5.006035 -34.317444 6.890213
v 6.821320 -33.681274 4.955978
v 6.890213 -34.317444 5.006035
v 8.018944 -33.681274 2.605513
v 8.099937 -34.317444 2.631828
v 8.431618 -33.681274 -0.000000
v 8.516777 -34.317444 0.000000
v 7.704063 -33.725586 -2.503202
v 7.785057 -34.361755 -2.529518
v 6.622360 -34.361755 -4.811428
v 6.553467 -33.725586 -4.761372
v 8.100525 -33.725586 -0.000000
v 8.185684 -34.361755 -0.000000
v 4.811428 -34.361755 -6.622368
v 4.761372 -33.725586 -6.553467
v 2.529516 -34.361755 -7.785057
v 2.503201 -33.725586 -7.704063
v 0.000000 -34.361755 -8.185692
v 0.000000 -33.725586 -8.100533
v -2.529516 -34.361755 -7.785057
v -2.503201 -33.725586 -7.704063
v -4.811428 -34.361755 -6.622360
v -4.761372 -33.725586 -6.553467
v -6.622360 -34.361755 -4.811428
v -6.553467 -33.725586 -4.761372
v -7.785049 -34.361755 -2.529516
v -7.704063 -33.725586 -2.503201
v -8.185684 -34.361755 -0.000000
v -8.100533 -33.725586 -0.000000
v -7.785049 -34.361755 2.529516
v -7.704063 -33.725586 2.503201
v -6.622360 -34.361755 4.811424
v -6.553467 -33.725586 4.761372
v -4.811428 -34.361755 6.622360
v -4.761372 -33.725586 6.553467
v -2.529516 -34.361755 7.785049
v -2.503201 -33.725586 7.704056
v -0.000000 -34.361755 8.185684
v -0.000000 -33.725586 8.100525
v 2.529516 -34.361755 7.785049
v 2.503201 -33.725586 7.704063
v 4.811424 -34.361755 6.622360
v 4.761372 -33.725586 6.553467
v 6.622360 -34.361755 4.811424
v 6.553467 -33.725586 4.761372
v 7.785049 -34.361755 2.529516
v 7.704056 -33.725586 2.503201
vt 0.543607 0.651571
vt 0.557833 0.659054
vt 0.639296 0.554957
vt 0.622536 0.554424
vt 0.572055 0.666547
vt 0.655071 0.560643
vt 0.586274 0.674049
vt 0.668317 0.570926
vt 0.600491 0.681557
vt 0.677736 0.584798
vt 0.614705 0.689070
vt 0.682408 0.600903
vt 0.628918 0.696587
vt 0.681875 0.617663
vt 0.643130 0.704106
vt 0.676189 0.633437
vt 0.657341 0.711627
vt 0.665906 0.646683
vt 0.671554 0.719149
vt 0.652034 0.656103
vt 0.685774 0.726668
vt 0.635929 0.660775
vt 0.700024 0.734182
vt 0.619170 0.660241
vt 0.714441 0.741680
vt 0.603395 0.654555
vt 0.729864 0.748811
vt 0.590149 0.644273
vt 0.748077 0.750507
vt 0.580729 0.630400
vt 0.472550 0.615628
vt 0.576057 0.614296
vt 0.486667 0.622101
vt 0.576591 0.597536
vt 0.500892 0.629291
vt 0.582277 0.581761
vt 0.515136 0.636667
vt 0.592560 0.568515
vt 0.529375 0.644105
vt 0.606432 0.559096
vt 0.106638 0.937370
vt 0.940798 0.568565
vt 0.151734 0.938875
vt 0.108380 0.951380
vt 0.114366 0.964165
vt 0.124010 0.974474
vt 0.136368 0.981299
vt 0.150230 0.983972
vt 0.164239 0.982229
vt 0.177024 0.976243
vt 0.187334 0.966599
vt 0.194159 0.954242
vt 0.196831 0.940380
vt 0.195089 0.926370
vt 0.189103 0.913585
vt 0.179459 0.903275
vt 0.167101 0.896451
vt 0.153239 0.893778
vt 0.139230 0.895521
vt 0.126445 0.901507
vt 0.116135 0.911150
vt 0.924289 0.566707
vt 0.922710 0.580735
vt 0.921131 0.594764
vt 0.919552 0.608792
vt 0.917972 0.622821
vt 0.916393 0.636849
vt 0.914814 0.650878
vt 0.913235 0.664907
vt 0.911656 0.678935
vt 0.910077 0.692964
vt 0.908497 0.706992
vt 0.906918 0.721021
vt 0.905339 0.735049
vt 0.903760 0.749078
vt 0.902181 0.763106
vt 0.932185 0.496564
vt 0.930606 0.510593
vt 0.929027 0.524621
vt 0.927447 0.538650
vt 0.925868 0.552678
vt 0.456942 0.101530
vt 0.468465 0.113711
vt 0.449747 0.086383
vt 0.447585 0.069755
vt 0.450667 0.053272
vt 0.458691 0.038548
vt 0.470873 0.027025
vt 0.486020 0.019830
vt 0.502648 0.017668
vt 0.519131 0.020750
vt 0.533854 0.028775
vt 0.545378 0.040957
vt 0.552573 0.056103
vt 0.554735 0.072731
vt 0.551653 0.089214
vt 0.543628 0.103938
vt 0.531446 0.115461
vt 0.516300 0.122656
vt 0.499671 0.124818
vt 0.483189 0.121736
vt 0.481865 0.965609
vt 0.622942 0.557648
vt 0.465111 0.949610
vt 0.459623 0.099693
vt 0.497588 0.964652
vt 0.452864 0.085465
vt 0.513311 0.963696
vt 0.450833 0.069845
vt 0.529033 0.962739
vt 0.453728 0.054361
vt 0.544756 0.961782
vt 0.461266 0.040531
vt 0.246025 0.979958
vt 0.472709 0.029706
vt 0.261747 0.979001
vt 0.486938 0.022947
vt 0.277470 0.978044
vt 0.502558 0.020916
vt 0.293193 0.977088
vt 0.518041 0.023811
vt 0.308915 0.976131
vt 0.531872 0.031350
vt 0.324638 0.975175
vt 0.542697 0.042793
vt 0.340361 0.974218
vt 0.549455 0.057021
vt 0.356084 0.973261
vt 0.551487 0.072641
vt 0.371806 0.972305
vt 0.548591 0.088125
vt 0.387529 0.971348
vt 0.541053 0.101956
vt 0.403252 0.970392
vt 0.529610 0.112780
vt 0.418974 0.969435
vt 0.515382 0.119539
vt 0.434697 0.968479
vt 0.499762 0.121570
vt 0.450420 0.967522
vt 0.484278 0.118675
vt 0.449388 0.950566
vt 0.470447 0.111137
vt 0.638686 0.558149
vt 0.466143 0.966565
vt 0.433665 0.951523
vt 0.653505 0.563490
vt 0.417943 0.952480
vt 0.665947 0.573149
vt 0.402220 0.953436
vt 0.674796 0.586181
vt 0.386497 0.954393
vt 0.679184 0.601309
vt 0.370775 0.955349
vt 0.678684 0.617052
vt 0.355052 0.956306
vt 0.673342 0.631871
vt 0.339329 0.957263
vt 0.663683 0.644313
vt 0.323607 0.958219
vt 0.650651 0.653162
vt 0.307884 0.959176
vt 0.635523 0.657551
vt 0.292161 0.960132
vt 0.619780 0.657050
vt 0.276438 0.961089
vt 0.604961 0.651708
vt 0.260716 0.962046
vt 0.592519 0.642049
vt 0.559447 0.943870
vt 0.583670 0.629018
vt 0.543725 0.944827
vt 0.579281 0.613890
vt 0.528002 0.945783
vt 0.579782 0.598146
vt 0.512279 0.946740
vt 0.585124 0.583328
vt 0.496556 0.947697
vt 0.594783 0.570885
vt 0.480834 0.948653
vt 0.607814 0.562036
vt 0.604393 0.372740
vt 0.620567 0.377165
vt 0.588219 0.368315
vt 0.572045 0.363890
vt 0.555871 0.359466
vt 0.539697 0.355041
vt 0.523523 0.350616
vt 0.507349 0.346191
vt 0.491175 0.341767
vt 0.475001 0.337342
vt 0.458826 0.332917
vt 0.442652 0.328492
vt 0.426478 0.324067
vt 0.410304 0.319643
vt 0.717612 0.403713
vt 0.701438 0.399289
vt 0.685264 0.394864
vt 0.669090 0.390439
vt 0.652916 0.386014
vt 0.636741 0.381590
vt 0.942377 0.554537
vt 0.109310 0.923508
vt 0.943956 0.540508
vt 0.945536 0.526479
vt 0.947115 0.512451
vt 0.948694 0.498422
vt 0.918690 0.764965
vt 0.920269 0.750936
vt 0.921848 0.736908
vt 0.923427 0.722879
vt 0.925006 0.708851
vt 0.926586 0.694822
vt 0.928165 0.680793
vt 0.929744 0.666765
vt 0.931323 0.652736
vt 0.932902 0.638708
vt 0.934482 0.624679
vt 0.936061 0.610651
vt 0.937640 0.596622
vt 0.939219 0.582594
vt 0.533551 0.636259
vt 0.547793 0.643730
vt 0.519291 0.628810
vt 0.504995 0.621407
vt 0.490578 0.614124
vt 0.475690 0.607345
vt 0.747077 0.741738
vt 0.732674 0.739966
vt 0.718417 0.733621
vt 0.704193 0.726311
vt 0.689977 0.718831
vt 0.675764 0.711319
vt 0.661552 0.703799
vt 0.647340 0.696278
vt 0.633127 0.688758
vt 0.618913 0.681240
vt 0.604696 0.673726
vt 0.590477 0.666217
vt 0.576254 0.658713
vt 0.562027 0.651217
vt 0.596312 0.529372
vt 0.580138 0.524948
vt 0.612486 0.533797
vt 0.628660 0.538222
vt 0.644834 0.542647
vt 0.661009 0.547072
vt 0.353701 0.463001
vt 0.369875 0.467425
vt 0.386049 0.471850
vt 0.402223 0.476275
vt 0.418397 0.480700
vt 0.434571 0.485125
vt 0.450745 0.489549
vt 0.466919 0.493974
vt 0.483093 0.498399
vt 0.499268 0.502824
vt 0.515442 0.507248
vt 0.531616 0.511673
vt 0.547790 0.516098
vt 0.563964 0.520523
vt 0.560479 0.960826
vt 0.583670 0.629018
vt 0.472709 0.029706
vt 0.244993 0.963002
vt 0.470873 0.027025
vt 0.580729 0.630400
vt 0.459583 0.604209
vt 0.933764 0.482535
vt 0.950273 0.484394
vt 0.457467 0.611960
vt 0.677183 0.551496
vt 0.394130 0.315218
vt 0.007812 0.007812
vt 0.007812 0.007812
vt 0.007812 0.007812
vt 0.007812 0.007812
vt 0.007812 0.007812
vt 0.007812 0.007812
vt 0.007812 0.007812
vt 0.007812 0.007812
vt 0.007812 0.007812
vt 0.007812 0.007812
vt 0.007812 0.007812
vt 0.007812 0.007812
vt 0.007812 0.007812
vt 0.007812 0.007812
vt 0.007812 0.007812
vt 0.007812 0.007812
vt 0.007812 0.007812
vt 0.007812 0.007812
vt 0.007812 0.007812
vt 0.007812 0.007812
vt 0.007812 0.007812
vt 0.007812 0.007812
vt 0.007812 0.007812
vt 0.007812 0.007812
vt 0.007812 0.007812
vt 0.007812 0.007812
vt 0.007812 0.007812
vt 0.007812 0.007812
vt 0.007812 0.007812
vt 0.007812 0.007812
vt 0.442643 0.239420
vt 0.007812 0.007812
vt 0.007812 0.007812
vt 0.007812 0.007812
vt 0.007812 0.007812
vt 0.007812 0.007812
vt 0.007812 0.007812
vt 0.007812 0.007812
vt 0.007812 0.007812
vt 0.007812 0.007812
vt 0.007812 0.007812
vt 0.007812 0.007812
vt 0.007812 0.007812
vt 0.007812 0.007812
vt 0.007812 0.007812
vt 0.007812 0.007812
vt 0.007812 0.007812
vt 0.007812 0.007812
vt 0.007812 0.007812
vt 0.007812 0.007812
vt 0.007812 0.007812
vt 0.007812 0.007812
vt 0.007812 0.007812
vt 0.007812 0.007812
vt 0.007812 0.007812
vt 0.007812 0.007812
vt 0.007812 0.007812
vt 0.007812 0.007812
vt 0.007812 0.007812
vt 0.007812 0.007812
vt 0.007812 0.007812
vt 0.631535 0.310507
vt 0.427003 0.225371
vt 0.228558 0.090040
vt 0.435461 0.210892
vt 0.237015 0.075561
vt 0.443918 0.196412
vt 0.245473 0.061081
vt 0.452375 0.181933
vt 0.253930 0.046602
vt 0.460833 0.167453
vt 0.262388 0.032122
vt 0.477748 0.138494
vt 0.469290 0.152974
vt 0.270845 0.017643
vt 0.308599 0.428084
vt 0.101696 0.307232
vt 0.110154 0.292752
vt 0.317056 0.413604
vt 0.118611 0.278273
vt 0.325514 0.399125
vt 0.127069 0.263793
vt 0.333971 0.384645
vt 0.135526 0.249314
vt 0.342429 0.370166
vt 0.143984 0.234835
vt 0.350886 0.355686
vt 0.152441 0.220355
vt 0.359344 0.341207
vt 0.160898 0.205876
vt 0.367801 0.326727
vt 0.169356 0.191396
vt 0.376259 0.312248
vt 0.177813 0.176917
vt 0.384716 0.297768
vt 0.186271 0.162437
vt 0.393173 0.283289
vt 0.194728 0.147958
vt 0.401631 0.268810
vt 0.203186 0.133478
vt 0.410088 0.254330
vt 0.211643 0.118999
vt 0.418546 0.239851
vt 0.220101 0.104520
vt 0.007812 0.007812
vt 0.007812 0.007812
vt 0.007812 0.007812
vt 0.007812 0.007812
vt 0.007812 0.007812
vt 0.007812 0.007812
vt 0.007812 0.007812
vt 0.007812 0.007812
vt 0.007812 0.007812
vt 0.007812 0.007812
vt 0.007812 0.007812
vt 0.007812 0.007812
vt 0.007812 0.007812
vt 0.007812 0.007812
vt 0.007812 0.007812
vt 0.007812 0.007812
vt 0.007812 0.007812
vt 0.007812 0.007812
vt 0.007812 0.007812
vt 0.007812 0.007812
vt 0.007812 0.007812
vt 0.007812 0.007812
vt 0.007812 0.007812
vt 0.007812 0.007812
vt 0.007812 0.007812
vt 0.007812 0.007812
vt 0.007812 0.007812
vt 0.007812 0.007812
vt 0.007812 0.007812
vt 0.007812 0.007812
vt 0.007812 0.007812
vt 0.007812 0.007812
vt 0.007812 0.007812
vt 0.007812 0.007812
vt 0.007812 0.007812
vt 0.007812 0.007812
vt 0.007812 0.007812
vt 0.007812 0.007812
vt 0.007812 0.007812
vt 0.007812 0.007812
vt 0.007812 0.007812
vt 0.007812 0.007812
vt 0.007812 0.007812
vt 0.007812 0.007812
vt 0.007812 0.007812
vt 0.007812 0.007812
vt 0.007812 0.007812
vt 0.007812 0.007812
vt 0.007812 0.007812
vt 0.007812 0.007812
vt 0.007812 0.007812
vt 0.007812 0.007812
vt 0.007812 0.007812
vt 0.007812 0.007812
vt 0.007812 0.007812
vt 0.007812 0.007812
vt 0.007812 0.007812
vt 0.007812 0.007812
vt 0.007812 0.007812
vt 0.007812 0.007812
vt 0.007812 0.007812
vt 0.025864 0.502817
vt 0.016305 0.501510
vt 0.022312 0.463482
vt 0.031809 0.465185
vt 0.021487 0.540663
vt 0.011881 0.539754
vt 0.029892 0.425737
vt 0.039310 0.427832
vt 0.039032 0.388338
vt 0.048355 0.390823
vt 0.049716 0.351351
vt 0.058928 0.354221
vt 0.061926 0.314840
vt 0.071011 0.318089
vt 0.075641 0.278867
vt 0.084583 0.282490
vt 0.090837 0.243493
vt 0.099621 0.247485
vt 0.107488 0.208782
vt 0.116099 0.213134
vt 0.125565 0.174791
vt 0.133988 0.179497
vt 0.145038 0.141579
vt 0.153258 0.146631
vt 0.165871 0.109204
vt 0.173875 0.114593
vt 0.188031 0.077722
vt 0.195804 0.083438
vt 0.211478 0.047186
vt 0.219007 0.053220
vt 0.236172 0.017650
vt 0.023273 0.730819
vt 0.010133 0.693574
vt 0.019757 0.692883
vt 0.008174 0.655125
vt 0.017818 0.654834
vt 0.007812 0.616628
vt 0.017460 0.616737
vt 0.009049 0.578149
vt 0.018684 0.578659
vt 0.486829 0.169817
vt 0.475756 0.182186
vt 0.465737 0.195422
vt 0.456840 0.209437
vt 0.449125 0.224136
vt 0.716527 0.127450
vt 0.007812 0.007812
vt 0.701196 0.121084
vt 0.685392 0.116000
vt 0.669225 0.112232
vt 0.652802 0.109805
vt 0.636236 0.108736
vt 0.619638 0.109032
vt 0.603120 0.110691
vt 0.586795 0.113703
vt 0.570772 0.118045
vt 0.555160 0.123690
vt 0.540066 0.130599
vt 0.525590 0.138725
vt 0.511830 0.148013
vt 0.498881 0.158401
vt 0.013686 0.731909
vt 0.243444 0.023991
vn 0.951057 0.000000 -0.309016
vn 0.809017 0.000000 -0.587785
vn 0.809017 0.000000 -0.587785
vn 0.951057 0.000000 -0.309016
vn 0.587785 0.000000 -0.809017
vn 0.587785 0.000000 -0.809017
vn 0.309016 0.000000 -0.951057
vn 0.309016 0.000000 -0.951057
vn 0.000000 0.000000 -1.000000
vn 0.000000 0.000000 -1.000000
vn -0.309017 0.000000 -0.951057
vn -0.309017 0.000000 -0.951057
vn -0.587785 0.000000 -0.809017
vn -0.587785 0.000000 -0.809017
vn -0.809017 0.000000 -0.587785
vn -0.809017 0.000000 -0.587785
vn -0.951057 0.000000 -0.309017
vn -0.951057 0.000000 -0.309017
vn -1.000000 0.000000 0.000000
vn -1.000000 0.000000 0.000000
vn -0.951057 0.000000 0.309017
vn -0.951057 0.000000 0.309017
vn -0.809017 0.000000 0.587786
vn -0.809017 0.000000 0.587786
vn -0.587785 0.000000 0.809017
vn -0.587785 0.000000 0.809017
vn -0.309018 0.000000 0.951056
vn -0.309018 0.000000 0.951056
vn -0.000000 0.000000 1.000000
vn -0.000000 0.000000 1.000000
vn 0.309018 0.000000 0.951056
vn 0.309018 0.000000 0.951056
vn 0.587786 0.000000 0.809017
vn 0.587786 0.000000 0.809017
vn 0.809017 0.000000 0.587786
vn 0.809017 0.000000 0.587786
vn 0.951056 0.000000 0.309018
vn 0.951056 0.000000 0.309018
vn 1.000000 0.000000 -0.000000
vn 1.000000 0.000000 -0.000000
vn 0.000000 -1.000000 0.000002
vn 0.000000 -1.000000 -0.000004
vn 0.000000 -1.000000 -0.000000
vn 0.000000 -1.000000 0.000001
vn 0.000000 -1.000000 -0.000000
vn 0.000000 -1.000000 0.000001
vn 0.000000 -1.000000 0.000000
vn 0.000000 -1.000000 0.000000
vn 0.000000 -1.000000 0.000000
vn 0.000000 -1.000000 -0.000004
vn 0.000000 -1.000000 0.000000
vn 0.000000 -1.000000 0.000004
vn 0.000000 -1.000000 0.000000
vn 0.000000 -1.000000 0.000001
vn 0.000000 -1.000000 0.000000
vn 0.000000 -1.000000 0.000000
vn 0.000000 -1.000000 0.000001
vn 0.000000 -1.000000 0.000000
vn 0.000000 -1.000000 0.000000
vn 0.000000 -1.000000 0.000000
vn 0.000000 -1.000000 -0.000004
vn 0.000000 -1.000000 0.000000
vn 0.000000 -1.000000 0.000000
vn 0.000000 -1.000000 0.000000
vn 0.000000 -1.000000 0.000000
vn 0.000000 -1.000000 0.000000
vn 0.000000 -1.000000 0.000000
vn 0.000000 -1.000000 -0.000001
vn 0.000000 -1.000000 -0.000001
vn 0.000000 -1.000000 -0.000001
vn 0.000000 -1.000000 -0.000001
vn 0.000000 -1.000000 0.000002
vn 0.000000 -1.000000 0.000002
vn 0.000000 -1.000000 0.000000
vn 0.000000 -1.000000 -0.000000
vn 0.000000 -1.000000 0.000000
vn 0.000000 -1.000000 -0.000000
vn 0.000000 -1.000000 0.000000
vn 0.000000 -1.000000 -0.000000
vn 0.000000 -1.000000 -0.000002
vn 0.000000 -1.000000 -0.000002
vn 0.000000 -1.000000 -0.000001
vn 0.000000 -1.000000 -0.000001
vn 0.000000 -1.000000 0.000001
vn 0.000000 -1.000000 0.000001
vn 0.000000 -1.000000 0.000001
vn 0.000000 -1.000000 0.000001
vn 0.000000 -1.000000 0.000001
vn 0.000000 -1.000000 0.000001
vn 0.000000 -1.000000 0.000002
vn 0.000000 -1.000000 0.000002
vn 0.000000 -1.000000 0.000000
vn 0.000000 -1.000000 0.000000
vn 0.000000 -1.000000 0.000002
vn 0.000000 -1.000000 0.000002
vn 0.000000 -1.000000 0.000002
vn 0.000000 -1.000000 0.000002
vn 0.000000 -1.000000 0.000000
vn 0.000000 -1.000000 0.000000
vn 0.000000 -1.000000 0.000000
vn 0.000000 -1.000000 0.000000
vn 0.809018 0.000001 -0.587784
vn 0.951057 0.000000 -0.309016
vn 0.951057 0.000000 -0.309016
vn 0.809018 0.000001 -0.587784
vn 0.587786 0.000001 -0.809017
vn 0.587785 0.000001 -0.809017
vn 0.309015 0.000001 -0.951057
vn 0.309015 0.000001 -0.951057
vn 0.000000 0.000000 -1.000000
vn 0.000000 0.000000 -1.000000
vn -0.309017 0.000000 -0.951057
vn -0.309017 0.000000 -0.951057
vn -0.587786 0.000000 -0.809016
vn -0.587786 0.000000 -0.809016
vn -0.809017 0.000000 -0.587786
vn -0.809017 0.000000 -0.587786
vn -0.951056 0.000000 -0.309017
vn -0.951056 0.000000 -0.309017
vn -1.000000 0.000000 0.000000
vn -1.000000 0.000000 0.000000
vn -0.951056 0.000000 0.309017
vn -0.951056 0.000000 0.309017
vn -0.809017 0.000000 0.587786
vn -0.809017 0.000000 0.587786
vn -0.587786 0.000000 0.809017
vn -0.587786 0.000000 0.809017
vn -0.309017 0.000000 0.951057
vn -0.309017 0.000000 0.951057
vn 0.000000 0.000000 1.000000
vn 0.000000 0.000000 1.000000
vn 0.309017 0.000000 0.951057
vn 0.309017 0.000000 0.951057
vn 0.587786 0.000000 0.809017
vn 0.587786 0.000000 0.809017
vn 0.809018 0.000000 0.587784
vn 0.809018 0.000000 0.587784
vn 0.951057 0.000000 0.309017
vn 0.951057 0.000000 0.309017
vn 1.000000 0.000000 0.000002
vn 1.000000 0.000000 0.000002
vn 1.000000 0.000000 0.000002
vn 0.951057 0.000000 -0.309016
vn 0.951057 0.000000 -0.309016
vn 1.000000 0.000000 0.000002
vn 0.951056 0.000000 0.309018
vn 0.951056 0.000000 0.309018
vn 0.809017 0.000000 0.587786
vn 0.809017 0.000000 0.587786
vn 0.587785 0.000000 0.809017
vn 0.587785 0.000000 0.809017
vn 0.309018 0.000000 0.951056
vn 0.309018 0.000000 0.951056
vn -0.000000 0.000000 1.000000
vn -0.000000 0.000000 1.000000
vn -0.309018 -0.000000 0.951056
vn -0.309018 -0.000000 0.951056
vn -0.587785 -0.000000 0.809018
vn -0.587785 -0.000000 0.809017
vn -0.809017 -0.000000 0.587786
vn -0.809017 -0.000000 0.587786
vn -0.951056 0.000000 0.309017
vn -0.951056 0.000000 0.309017
vn -1.000000 0.000000 0.000000
vn -1.000000 0.000000 0.000000
vn -0.951056 0.000000 -0.309017
vn -0.951056 0.000000 -0.309017
vn -0.809017 0.000000 -0.587785
vn -0.809017 0.000000 -0.587785
vn -0.587786 -0.000000 -0.809016
vn -0.587786 -0.000000 -0.809016
vn -0.309018 -0.000000 -0.951056
vn -0.309018 -0.000000 -0.951056
vn -0.000000 -0.000000 -1.000000
vn -0.000000 -0.000000 -1.000000
vn 0.309016 0.000000 -0.951057
vn 0.309016 0.000000 -0.951057
vn 0.587786 0.000000 -0.809017
vn 0.587786 0.000000 -0.809017
vn 0.809017 0.000000 -0.587785
vn 0.809017 0.000000 -0.587785
vn 0.000000 1.000000 0.000000
vn 0.000000 1.000000 0.000001
vn 0.000000 1.000000 0.000001
vn 0.000000 1.000000 0.000000
vn 0.000000 -1.000000 0.000002
vn 0.000000 -1.000000 -0.000001
vn 0.000000 -1.000000 -0.000001
vn 0.000000 -1.000000 0.000002
vn 0.000000 1.000000 0.000000
vn 0.000000 1.000000 0.000000
vn 0.000000 -1.000000 -0.000003
vn 0.000000 -1.000000 -0.000003
vn 0.000000 1.000000 -0.000004
vn 0.000000 1.000000 -0.000004
vn 0.000000 -1.000000 0.000004
vn 0.000000 -1.000000 0.000004
vn 0.000000 1.000000 -0.000005
vn 0.000000 1.000000 -0.000005
vn 0.000000 -1.000000 0.000012
vn 0.000000 -1.000000 0.000012
vn 0.000000 1.000000 -0.000007
vn 0.000000 1.000000 -0.000007
vn 0.000000 -1.000000 0.000010
vn 0.000000 -1.000000 0.000010
vn 0.000000 1.000000 -0.000005
vn 0.000000 1.000000 -0.000005
vn 0.000000 -1.000000 0.000003
vn 0.000000 -1.000000 0.000003
vn 0.000000 1.000000 -0.000000
vn 0.000000 1.000000 -0.000000
vn 0.000000 -1.000000 0.000003
vn 0.000000 -1.000000 0.000003
vn 0.000000 1.000000 -0.000003
vn 0.000000 1.000000 -0.000003
vn 0.000000 -1.000000 0.000002
vn 0.000000 -1.000000 0.000002
vn 0.000000 1.000000 0.000000
vn 0.000000 1.000000 -0.000000
vn 0.000000 -1.000000 -0.000002
vn 0.000000 -1.000000 -0.000002
vn 0.000000 1.000000 0.000001
vn 0.000000 1.000000 0.000001
vn 0.000000 -1.000000 -0.000003
vn 0.000000 -1.000000 -0.000003
vn 0.000000 1.000000 0.000000
vn 0.000000 1.000000 0.000000
vn 0.000000 -1.000000 0.000000
vn 0.000000 -1.000000 0.000000
vn 0.000000 1.000000 0.000000
vn 0.000000 1.000000 0.000000
vn 0.000000 -1.000000 0.000003
vn 0.000000 -1.000000 0.000003
vn 0.000000 1.000000 -0.000002
vn 0.000000 1.000000 -0.000002
vn 0.000000 -1.000000 0.000001
vn 0.000000 -1.000000 0.000001
vn 0.000000 1.000000 -0.000009
vn 0.000000 1.000000 -0.000009
vn 0.000000 -1.000000 -0.000001
vn 0.000000 -1.000000 -0.000001
vn 0.000000 1.000000 -0.000015
vn 0.000000 1.000000 -0.000015
vn 0.000000 -1.000000 -0.000004
vn 0.000000 -1.000000 -0.000004
vn 0.000000 1.000000 -0.000009
vn 0.000000 1.000000 -0.000009
vn 0.000000 -1.000000 -0.000005
vn 0.000000 -1.000000 -0.000005
vn 0.000000 1.000000 0.000000
vn 0.000000 1.000000 0.000000
vn 0.000000 -1.000000 -0.000005
vn 0.000000 -1.000000 -0.000005
vn 0.000000 1.000000 -0.000000
vn 0.000000 1.000000 0.000000
vn 0.000000 -1.000000 -0.000001
vn 0.000000 -1.000000 -0.000001
vn 0.000000 1.000000 -0.000000
vn 0.000000 1.000000 0.000000
vn 0.000000 -1.000000 0.000004
vn 0.000000 -1.000000 0.000004
vn 0.942648 0.132681 -0.306284
vn 0.942648 0.132681 -0.306284
vn 0.801864 0.132682 -0.582589
vn 0.801865 0.132682 -0.582588
vn 0.991159 0.132681 0.000001
vn 0.991159 0.132681 0.000001
vn 0.582589 0.132684 -0.801864
vn 0.582590 0.132684 -0.801863
vn 0.306285 0.132683 -0.942648
vn 0.306285 0.132683 -0.942648
vn 0.000000 0.132681 -0.991159
vn 0.000000 0.132681 -0.991159
vn -0.306286 0.132680 -0.942648
vn -0.306286 0.132680 -0.942648
vn -0.582590 0.132679 -0.801864
vn -0.582589 0.132679 -0.801864
vn -0.801865 0.132676 -0.582588
vn -0.801866 0.132676 -0.582588
vn -0.942649 0.132672 -0.306285
vn -0.942649 0.132672 -0.306285
vn -0.991160 0.132669 0.000000
vn -0.991160 0.132669 0.000000
vn -0.942649 0.132672 0.306286
vn -0.942649 0.132672 0.306285
vn -0.801866 0.132675 0.582588
vn -0.801866 0.132675 0.582588
vn -0.582589 0.132678 0.801864
vn -0.582589 0.132678 0.801865
vn -0.306284 0.132680 0.942648
vn -0.306284 0.132680 0.942648
vn -0.000001 0.132678 0.991159
vn -0.000001 0.132678 0.991159
vn 0.306286 0.132675 0.942649
vn 0.306285 0.132675 0.942649
vn 0.582590 0.132674 0.801864
vn 0.582590 0.132674 0.801864
vn 0.801865 0.132677 0.582589
vn 0.801865 0.132677 0.582589
vn 0.942648 0.132680 0.306285
vn 0.942648 0.132680 0.306285
vn 0.917602 0.262900 -0.298146
vn 0.780559 0.262900 -0.567108
vn -0.000005 1.000000 0.000004
vn 0.567108 0.262900 -0.780559
vn 0.298146 0.262900 -0.917602
vn 0.000000 0.262900 -0.964823
vn -0.298147 0.262900 -0.917601
vn -0.567109 0.262900 -0.780558
vn -0.780558 0.262900 -0.567109
vn -0.917601 0.262900 -0.298147
vn -0.964823 0.262900 0.000000
vn -0.917601 0.262900 0.298147
vn -0.780558 0.262900 0.567109
vn -0.567109 0.262900 0.780558
vn -0.298147 0.262900 0.917601
vn 0.000000 0.262900 0.964823
vn 0.298147 0.262900 0.917601
vn 0.567109 0.262900 0.780558
vn 0.780558 0.262900 0.567109
vn 0.917601 0.262900 0.298147
vn 0.964823 0.262900 0.000000
vn 1.000000 0.000000 -0.000000
vn 0.951057 0.000000 -0.309016
vn 0.951057 0.000000 -0.309016
vn 1.000000 0.000000 -0.000000
vn 0.951056 0.000000 0.309018
vn 0.951056 0.000000 0.309018
vn 0.809017 0.000000 0.587786
vn 0.809017 0.000000 0.587786
vn 0.587786 0.000000 0.809017
vn 0.587786 0.000000 0.809017
vn 0.309018 0.000000 0.951056
vn 0.309018 0.000000 0.951056
vn 0.000000 0.000000 1.000000
vn 0.000000 0.000000 1.000000
vn -0.309018 0.000000 0.951056
vn -0.309018 0.000000 0.951056
vn -0.587785 0.000000 0.809017
vn -0.587785 0.000000 0.809017
vn -0.809017 0.000000 0.587786
vn -0.809017 0.000000 0.587786
vn -0.951057 0.000000 0.309017
vn -0.951057 0.000000 0.309017
vn -1.000000 0.000000 0.000000
vn -1.000000 0.000000 0.000000
vn -0.951057 0.000000 -0.309017
vn -0.951057 0.000000 -0.309017
vn -0.809017 0.000000 -0.587785
vn -0.809017 0.000000 -0.587785
vn -0.587785 0.000000 -0.809017
vn -0.587785 0.000000 -0.809017
vn -0.309017 0.000000 -0.951057
vn -0.309017 0.000000 -0.951057
vn 0.000000 0.000000 -1.000000
vn 0.000000 0.000000 -1.000000
vn 0.309016 0.000000 -0.951057
vn 0.309016 0.000000 -0.951057
vn 0.587785 0.000000 -0.809017
vn 0.587785 0.000000 -0.809017
vn 0.809017 0.000000 -0.587785
vn 0.809017 0.000000 -0.587785
vn -0.126160 0.991163 0.040991
vn -0.107318 0.991162 0.077973
vn -0.107318 0.991162 0.077973
vn -0.126160 0.991163 0.040991
vn 0.107318 -0.991163 -0.077970
vn 0.126160 -0.991163 -0.040992
vn 0.126160 -0.991163 -0.040992
vn 0.107318 -0.991163 -0.077970
vn 0.132652 -0.991163 0.000000
vn 0.132652 -0.991163 0.000000
vn -0.132652 0.991163 -0.000001
vn -0.132652 0.991163 -0.000001
vn -0.077972 0.991162 0.107321
vn -0.077972 0.991162 0.107321
vn 0.077971 -0.991163 -0.107315
vn 0.077971 -0.991163 -0.107315
vn -0.040992 0.991163 0.126161
vn -0.040992 0.991163 0.126161
vn 0.040992 -0.991162 -0.126162
vn 0.040992 -0.991162 -0.126162
vn 0.000000 0.991163 0.132649
vn 0.000000 0.991163 0.132649
vn -0.000000 -0.991162 -0.132657
vn -0.000000 -0.991162 -0.132657
vn 0.040992 0.991163 0.126160
vn 0.040992 0.991163 0.126160
vn -0.040993 -0.991163 -0.126161
vn -0.040992 -0.991163 -0.126161
vn 0.077971 0.991162 0.107321
vn 0.077971 0.991162 0.107320
vn -0.077972 -0.991163 -0.107317
vn -0.077972 -0.991163 -0.107317
vn 0.107318 0.991163 0.077970
vn 0.107318 0.991163 0.077970
vn -0.107319 -0.991162 -0.077972
vn -0.107319 -0.991162 -0.077972
vn 0.126159 0.991163 0.040991
vn 0.126159 0.991163 0.040991
vn -0.126162 -0.991162 -0.040994
vn -0.126162 -0.991162 -0.040994
vn 0.132652 0.991163 -0.000001
vn 0.132652 0.991163 -0.000001
vn -0.132655 -0.991162 -0.000001
vn -0.132655 -0.991162 -0.000001
vn 0.126159 0.991163 -0.040991
vn 0.126159 0.991163 -0.040991
vn -0.126162 -0.991162 0.040993
vn -0.126162 -0.991162 0.040993
vn 0.107318 0.991163 -0.077972
vn 0.107318 0.991163 -0.077972
vn -0.107320 -0.991162 0.077974
vn -0.107320 -0.991162 0.077974
vn 0.077972 0.991162 -0.107320
vn 0.077972 0.991162 -0.107320
vn -0.077972 -0.991162 0.107320
vn -0.077972 -0.991162 0.107320
vn 0.040992 0.991163 -0.126160
vn 0.040992 0.991163 -0.126160
vn -0.040992 -0.991163 0.126157
vn -0.040992 -0.991163 0.126157
vn 0.000000 0.991162 -0.132654
vn 0.000000 0.991163 -0.132654
vn -0.000000 -0.991163 0.132648
vn -0.000000 -0.991163 0.132648
vn -0.040992 0.991163 -0.126157
vn -0.040992 0.991163 -0.126157
vn 0.040992 -0.991162 0.126163
vn 0.040992 -0.991162 0.126163
vn -0.077972 0.991163 -0.107314
vn -0.077972 0.991163 -0.107314
vn 0.077972 -0.991162 0.107322
vn 0.077972 -0.991162 0.107322
vn -0.107319 0.991163 -0.077972
vn -0.107319 0.991162 -0.077972
vn 0.107319 -0.991163 0.077971
vn 0.107319 -0.991163 0.077971
vn -0.126160 0.991163 -0.040993
vn -0.126160 0.991163 -0.040993
vn 0.126160 -0.991163 0.040991
vn 0.126160 -0.991163 0.040992
s 1
g pCylinder6 razzo1
usemtl initialShadingGroup
f 1/243/1 2/261/2 102/182/3 83/183/4
f 2/261/2 3/260/5 101/184/6 102/182/3
f 3/260/5 4/259/7 100/185/8 101/184/6
f 4/259/7 5/258/9 99/186/10 100/185/8
f 5/258/9 6/257/11 98/187/12 99/186/10
f 6/257/11 7/256/13 97/188/14 98/187/12
f 7/256/13 8/255/15 96/189/16 97/188/14
f 8/255/15 9/254/17 95/190/18 96/189/16
f 9/254/17 10/253/19 94/191/20 95/190/18
f 10/253/19 11/252/21 93/192/22 94/191/20
f 11/252/21 12/251/23 92/193/24 93/192/22
f 12/251/23 13/250/25 91/194/26 92/193/24
f 13/250/25 14/249/27 90/195/28 91/194/26
f 14/249/27 15/248/29 89/273/30 90/195/28
f 15/272/29 16/247/31 88/197/32 89/196/30
f 16/247/31 17/246/33 87/198/34 88/197/32
f 17/246/33 18/245/35 86/199/36 87/198/34
f 18/245/35 19/244/37 85/200/38 86/199/36
f 19/244/37 20/242/39 84/201/40 85/200/38
f 20/242/39 1/243/1 83/183/4 84/201/40
s 2
f 43/41/41 42/203/42 44/43/43
f 45/44/44 43/41/41 44/43/43
f 46/45/45 45/44/44 44/43/43
f 47/46/46 46/45/45 44/43/43
f 48/47/47 47/46/46 44/43/43
f 49/48/48 48/47/47 44/43/43
f 50/49/49 49/48/48 44/43/43
f 51/50/50 50/49/49 44/43/43
f 52/51/51 51/50/50 44/43/43
f 53/52/52 52/51/51 44/43/43
f 54/53/53 53/52/52 44/43/43
f 55/54/54 54/53/53 44/43/43
f 56/55/55 55/54/54 44/43/43
f 57/56/56 56/55/55 44/43/43
f 58/57/57 57/56/56 44/43/43
f 59/58/58 58/57/57 44/43/43
f 60/59/59 59/58/58 44/43/43
f 61/60/60 60/59/59 44/43/43
f 62/61/61 61/60/60 44/43/43
f 42/203/42 62/61/61 44/43/43
s 3
f 2/2/62 1/1/63 22/223/64 23/241/65
f 3/5/66 2/2/62 23/241/65 24/240/67
f 4/7/68 3/5/66 24/240/67 25/239/69
f 5/9/70 4/7/68 25/239/69 26/238/71
f 6/11/72 5/9/70 26/238/71 27/237/73
f 7/13/74 6/11/72 27/237/73 28/236/75
f 8/15/76 7/13/74 28/236/75 29/235/77
f 9/17/78 8/15/76 29/235/77 30/234/79
f 10/19/80 9/17/78 30/234/79 31/233/81
f 11/21/82 10/19/80 31/233/81 32/232/83
f 12/23/84 11/21/82 32/232/83 33/231/85
f 13/25/86 12/23/84 33/231/85 34/230/87
f 14/27/88 13/25/86 34/230/87 35/229/89
f 15/29/90 14/27/88 35/229/89 36/228/91
f 16/31/92 15/271/90 36/268/91 37/227/93
f 17/33/94 16/31/92 37/227/93 38/226/95
f 18/35/96 17/33/94 38/226/95 39/225/97
f 19/37/98 18/35/96 39/225/97 40/224/99
f 20/39/100 19/37/98 40/224/99 41/222/101
f 1/1/63 20/39/100 41/222/101 22/223/64
s 4
f 23/63/102 22/62/103 42/42/104 43/221/105
f 24/64/106 23/63/102 43/221/105 45/220/107
f 25/65/108 24/64/106 45/220/107 46/219/109
f 26/66/110 25/65/108 46/219/109 47/218/111
f 27/67/112 26/66/110 47/218/111 48/217/113
f 28/68/114 27/67/112 48/217/113 49/216/115
f 29/69/116 28/68/114 49/216/115 50/215/117
f 30/70/118 29/69/116 50/215/117 51/214/119
f 31/71/120 30/70/118 51/214/119 52/213/121
f 32/72/122 31/71/120 52/213/121 53/212/123
f 33/73/124 32/72/122 53/212/123 54/211/125
f 34/74/126 33/73/124 54/211/125 55/210/127
f 35/75/128 34/74/126 55/210/127 56/209/129
f 36/76/130 35/75/128 56/209/129 57/208/131
f 37/77/132 36/269/130 57/270/131 58/207/133
f 38/78/134 37/77/132 58/207/133 59/206/135
f 39/79/136 38/78/134 59/206/135 60/205/137
f 40/80/138 39/79/136 60/205/137 61/204/139
f 41/81/140 40/80/138 61/204/139 62/202/141
f 22/62/103 41/81/140 62/202/141 42/42/104
s 5
f 104/102/142 103/145/143 105/104/144 106/180/145
f 107/106/146 104/102/142 106/180/145 108/178/147
f 109/108/148 107/106/146 108/178/147 110/176/149
f 111/110/150 109/108/148 110/176/149 112/174/151
f 113/112/152 111/110/150 112/174/151 114/172/153
f 115/262/154 113/112/152 114/172/153 116/170/155
f 117/116/156 115/114/154 116/265/155 118/168/157
f 119/118/158 117/116/156 118/168/157 120/166/159
f 121/120/160 119/118/158 120/166/159 122/164/161
f 123/122/162 121/120/160 122/164/161 124/162/163
f 125/124/164 123/122/162 124/162/163 126/160/165
f 127/126/166 125/124/164 126/160/165 128/158/167
f 129/128/168 127/126/166 128/158/167 130/156/169
f 131/130/170 129/128/168 130/156/169 132/154/171
f 133/132/172 131/130/170 132/154/171 134/152/173
f 135/134/174 133/132/172 134/152/173 136/150/175
f 137/136/176 135/134/174 136/150/175 138/148/177
f 139/138/178 137/136/176 138/148/177 140/146/179
f 141/140/180 139/138/178 140/146/179 142/142/181
f 103/145/143 141/140/180 142/142/181 105/104/144
s 6
f 84/40/182 83/4/183 103/103/184 104/181/185
s 7
f 63/83/186 64/82/187 106/105/188 105/143/189
s 6
f 85/38/190 84/40/182 104/181/185 107/179/191
s 7
f 64/82/187 65/84/192 108/107/193 106/105/188
s 6
f 86/36/194 85/38/190 107/179/191 109/177/195
s 7
f 65/84/192 66/85/196 110/109/197 108/107/193
s 6
f 87/34/198 86/36/194 109/177/195 111/175/199
s 7
f 66/85/196 67/86/200 112/111/201 110/109/197
s 6
f 88/32/202 87/34/198 111/175/199 113/173/203
s 7
f 67/86/200 68/87/204 114/113/205 112/111/201
s 6
f 89/30/206 88/32/202 113/173/203 115/171/207
s 7
f 68/87/204 69/266/208 116/264/209 114/113/205
s 6
f 90/28/210 89/267/206 115/263/207 117/169/211
s 7
f 69/88/208 70/89/212 118/117/213 116/115/209
s 6
f 91/26/214 90/28/210 117/169/211 119/167/215
s 7
f 70/89/212 71/90/216 120/119/217 118/117/213
s 6
f 92/24/218 91/26/214 119/167/215 121/165/219
s 7
f 71/90/216 72/91/220 122/121/221 120/119/217
s 6
f 93/22/222 92/24/218 121/165/219 123/163/223
s 7
f 72/91/220 73/92/224 124/123/225 122/121/221
s 6
f 94/20/226 93/22/222 123/163/223 125/161/227
s 7
f 73/92/224 74/93/228 126/125/229 124/123/225
s 6
f 95/18/230 94/20/226 125/161/227 127/159/231
s 7
f 74/93/228 75/94/232 128/127/233 126/125/229
s 6
f 96/16/234 95/18/230 127/159/231 129/157/235
s 7
f 75/94/232 76/95/236 130/129/237 128/127/233
s 6
f 97/14/238 96/16/234 129/157/235 131/155/239
s 7
f 76/95/236 77/96/240 132/131/241 130/129/237
s 6
f 98/12/242 97/14/238 131/155/239 133/153/243
s 7
f 77/96/240 78/97/244 134/133/245 132/131/241
s 6
f 99/10/246 98/12/242 133/153/243 135/151/247
s 7
f 78/97/244 79/98/248 136/135/249 134/133/245
s 6
f 100/8/250 99/10/246 135/151/247 137/149/251
s 7
f 79/98/248 80/99/252 138/137/253 136/135/249
s 6
f 101/6/254 100/8/250 137/149/251 139/147/255
s 7
f 80/99/252 81/100/256 140/139/257 138/137/253
s 6
f 102/3/258 101/6/254 139/147/255 141/144/259
s 7
f 81/100/256 82/101/260 142/141/261 140/139/257
s 6
f 83/4/183 102/3/258 141/144/259 103/103/184
s 7
f 82/101/260 63/83/186 105/143/189 142/141/261
s 8
f 183/439/262 184/440/263 185/441/264 186/442/265
f 184/440/263 183/439/262 187/443/266 188/444/267
f 186/442/265 185/441/264 189/445/268 190/446/269
f 190/446/269 189/445/268 191/447/270 192/448/271
f 192/448/271 191/447/270 193/449/272 194/450/273
f 194/450/273 193/449/272 195/451/274 196/452/275
f 196/452/275 195/451/274 197/453/276 198/454/277
f 198/454/277 197/453/276 199/455/278 200/456/279
f 200/456/279 199/455/278 201/457/280 202/458/281
f 202/458/281 201/457/280 203/459/282 204/460/283
f 204/460/283 203/459/282 205/461/284 206/462/285
f 206/462/285 205/461/284 207/463/286 208/464/287
f 208/464/287 207/463/286 209/465/288 210/466/289
f 210/466/289 209/465/288 211/467/290 212/468/291
f 212/468/291 211/467/290 213/469/292 214/501/293
f 214/470/293 213/500/292 215/471/294 216/472/295
f 216/472/295 215/471/294 217/473/296 218/474/297
f 218/474/297 217/473/296 219/475/298 220/476/299
f 220/476/299 219/475/298 221/477/300 222/478/301
f 222/478/301 221/477/300 188/444/267 187/443/266
s 9
f 143/499/302 145/498/303 21/335/304
f 145/498/303 147/497/305 21/335/304
f 147/497/305 149/496/306 21/335/304
f 149/496/306 151/495/307 21/335/304
f 151/495/307 153/494/308 21/335/304
f 153/494/308 155/493/309 21/335/304
f 155/493/309 157/492/310 21/335/304
f 157/492/310 159/491/311 21/335/304
f 159/491/311 161/490/312 21/335/304
f 161/490/312 163/489/313 21/335/304
f 163/489/313 165/488/314 21/335/304
f 165/488/314 167/487/315 21/335/304
f 167/487/315 169/486/316 21/335/304
f 169/486/316 171/484/317 21/335/304
f 171/304/317 173/483/318 21/335/304
f 173/483/318 175/482/319 21/335/304
f 175/482/319 177/481/320 21/335/304
f 177/481/320 179/480/321 21/335/304
f 179/480/321 181/479/322 21/335/304
f 181/479/322 143/499/302 21/335/304
s 10
f 64/338/323 63/336/324 144/377/325 182/337/326
f 65/340/327 64/338/323 182/337/326 180/339/328
f 66/342/329 65/340/327 180/339/328 178/341/330
f 67/344/331 66/342/329 178/341/330 176/343/332
f 68/347/333 67/344/331 176/343/332 174/345/334
f 69/346/335 68/347/333 174/345/334 172/348/336
f 70/352/337 69/349/335 172/350/336 170/351/338
f 71/354/339 70/352/337 170/351/338 168/353/340
f 72/356/341 71/354/339 168/353/340 166/355/342
f 73/358/343 72/356/341 166/355/342 164/357/344
f 74/360/345 73/358/343 164/357/344 162/359/346
f 75/362/347 74/360/345 162/359/346 160/361/348
f 76/364/349 75/362/347 160/361/348 158/363/350
f 77/366/351 76/364/349 158/363/350 156/365/352
f 78/368/353 77/366/351 156/365/352 154/367/354
f 79/370/355 78/368/353 154/367/354 152/369/356
f 80/372/357 79/370/355 152/369/356 150/371/358
f 81/374/359 80/372/357 150/371/358 148/373/360
f 82/376/361 81/374/359 148/373/360 146/375/362
f 63/336/324 82/376/361 146/375/362 144/377/325
s 11
f 144/274/363 146/275/364 185/379/365 184/378/366
s 12
f 145/315/367 143/334/368 183/381/369 186/380/370
f 143/334/368 181/333/371 187/382/372 183/381/369
s 11
f 182/277/373 144/276/363 184/384/366 188/383/374
f 146/278/364 148/279/375 189/386/376 185/385/365
s 12
f 147/316/377 145/315/367 186/380/370 190/387/378
s 11
f 148/280/375 150/281/379 191/389/380 189/388/376
s 12
f 149/317/381 147/316/377 190/387/378 192/390/382
s 11
f 150/282/379 152/283/383 193/392/384 191/391/380
s 12
f 151/318/385 149/317/381 192/390/382 194/393/386
s 11
f 152/284/383 154/285/387 195/395/388 193/394/384
s 12
f 153/319/389 151/318/385 194/393/386 196/396/390
s 11
f 154/286/387 156/287/391 197/398/392 195/397/388
s 12
f 155/320/393 153/319/389 196/396/390 198/399/394
s 11
f 156/288/391 158/289/395 199/401/396 197/400/392
s 12
f 157/321/397 155/320/393 198/399/394 200/402/398
s 11
f 158/290/395 160/291/399 201/404/400 199/403/396
s 12
f 159/322/401 157/321/397 200/402/398 202/405/402
s 11
f 160/292/399 162/293/403 203/407/404 201/406/400
s 12
f 161/323/405 159/322/401 202/405/402 204/408/406
s 11
f 162/294/403 164/295/407 205/410/408 203/409/404
s 12
f 163/324/409 161/323/405 204/408/406 206/411/410
s 11
f 164/296/407 166/297/411 207/413/412 205/412/408
s 12
f 165/325/413 163/324/409 206/411/410 208/414/414
s 11
f 166/298/411 168/299/415 209/416/416 207/415/412
s 12
f 167/326/417 165/325/413 208/414/414 210/417/418
s 11
f 168/300/415 170/301/419 211/419/420 209/418/416
s 12
f 169/327/421 167/326/417 210/417/418 212/420/422
s 11
f 170/302/419 172/303/423 213/422/424 211/421/420
s 12
f 171/328/425 169/327/421 212/420/422 214/423/426
s 11
f 172/305/423 174/306/427 215/425/428 213/424/424
s 12
f 173/329/429 171/485/425 214/427/426 216/426/430
s 11
f 174/307/427 176/308/431 217/429/432 215/428/428
s 12
f 175/330/433 173/329/429 216/426/430 218/430/434
s 11
f 176/309/431 178/310/435 219/432/436 217/431/432
s 12
f 177/331/437 175/330/433 218/430/434 220/433/438
s 11
f 178/311/435 180/312/439 221/435/440 219/434/436
s 12
f 179/332/441 177/331/437 220/433/438 222/436/442
s 11
f 180/313/439 182/314/373 188/438/374 221/437/440
s 12
f 181/333/371 179/332/441 222/436/442 187/382/372
g default
v 10.079386 -52.369618 1.498092
v 13.412195 -52.757374 1.498092
v 10.079386 -44.285568 1.498092
v 13.412192 -50.420652 1.498092
v 10.079386 -44.285568 -1.498092
v 13.412192 -50.420652 -1.498092
v 10.079386 -52.369618 -1.498092
v 13.412195 -52.757374 -1.498092
v 7.284218 -52.369618 -1.498092
v 7.284218 -52.369618 1.498092
v 7.284218 -42.336663 1.498092
v 7.284218 -42.336663 -1.498092
v -10.079386 -52.369618 1.498092
v -13.412195 -52.757374 1.498092
v -10.079386 -44.285568 1.498092
v -13.412191 -50.420652 1.498092
v -10.079386 -44.285568 -1.498092
v -13.412191 -50.420652 -1.498092
v -10.079386 -52.369618 -1.498092
v -13.412195 -52.757374 -1.498092
v -7.284219 -52.369618 -1.498092
v -7.284219 -52.369618 1.498092
v -7.284219 -42.336663 1.498092
v -7.284219 -42.336663 -1.498092
vt 0.755948 0.889161
vt 0.704399 0.889161
vt 0.704399 0.790753
vt 0.755948 0.790753
vt 0.684765 0.889161
vt 0.684765 0.790753
vt 0.772324 0.790753
vt 0.772324 0.889161
vt 0.078996 0.893779
vt 0.078996 0.992188
vt 0.027446 0.992188
vt 0.027446 0.893779
vt 0.095371 0.893779
vt 0.095371 0.992188
vt 0.007812 0.893779
vt 0.007812 0.992188
vt 0.938296 0.017672
vt 0.963683 0.017672
vt 0.963683 0.106885
vt 0.938296 0.106885
vt 0.917004 0.106885
vt 0.917004 0.017672
vt 0.033199 0.180341
vt 0.033199 0.269554
vt 0.007812 0.269554
vt 0.007812 0.180341
vt 0.054491 0.180341
vt 0.054491 0.269554
vt 0.311718 0.484102
vt 0.361818 0.478273
vt 0.361818 0.513400
vt 0.311718 0.605625
vt 0.269699 0.634922
vt 0.269699 0.484102
vt 0.049831 0.046943
vt 0.099932 0.139169
vt 0.099932 0.174296
vt 0.049831 0.168467
vt 0.007812 0.168467
vt 0.007812 0.017646
vt 0.907810 0.322232
vt 0.907810 0.443756
vt 0.857709 0.351530
vt 0.857709 0.316403
vt 0.949828 0.322232
vt 0.949828 0.473053
vt 0.932516 0.180924
vt 0.932516 0.302448
vt 0.882416 0.308277
vt 0.882416 0.273150
vt 0.974535 0.151627
vt 0.974535 0.302448
vn 0.000000 0.000000 1.000000
vn 0.000000 0.000000 1.000000
vn 0.000000 0.000000 1.000000
vn 0.000000 0.000000 1.000000
vn 0.878713 0.477350 0.000000
vn 0.878713 0.477350 0.000000
vn 0.878713 0.477350 0.000000
vn 0.878713 0.477350 0.000000
vn 0.000000 0.000000 -1.000000
vn 0.000000 0.000000 -1.000000
vn 0.000000 0.000000 -1.000000
vn 0.000000 0.000000 -1.000000
vn -0.115566 -0.993300 0.000000
vn -0.115566 -0.993300 0.000000
vn -0.115566 -0.993300 0.000000
vn -0.115566 -0.993300 0.000000
vn 1.000000 0.000001 0.000000
vn 1.000000 0.000001 0.000000
vn 1.000000 0.000001 0.000000
vn 1.000000 0.000001 0.000000
vn 0.000000 -1.000000 0.000000
vn 0.000000 -1.000000 0.000000
vn 0.000000 -1.000000 0.000000
vn 0.000000 -1.000000 0.000000
vn 0.000000 0.000000 1.000000
vn 0.000000 0.000000 1.000000
vn 0.000000 0.000000 1.000000
vn 0.000000 0.000000 1.000000
vn 0.571942 0.820294 0.000000
vn 0.571942 0.820294 0.000000
vn 0.571942 0.820294 0.000000
vn 0.571942 0.820294 0.000000
vn 0.000000 0.000000 -1.000000
vn 0.000000 0.000000 -1.000000
vn 0.000000 0.000000 -1.000000
vn 0.000000 0.000000 -1.000000
vn 0.000000 0.000000 1.000000
vn 0.000000 0.000000 1.000000
vn 0.000000 0.000000 1.000000
vn 0.000000 0.000000 1.000000
vn -0.878713 0.477350 0.000000
vn -0.878713 0.477350 0.000000
vn -0.878713 0.477350 0.000000
vn -0.878713 0.477350 0.000000
vn 0.000000 0.000000 -1.000000
vn 0.000000 0.000000 -1.000000
vn 0.000000 0.000000 -1.000000
vn 0.000000 0.000000 -1.000000
vn 0.115566 -0.993300 0.000000
vn 0.115566 -0.993300 0.000000
vn 0.115566 -0.993300 0.000000
vn 0.115566 -0.993300 0.000000
vn -1.000000 0.000001 0.000000
vn -1.000000 0.000001 0.000000
vn -1.000000 0.000001 0.000000
vn -1.000000 0.000001 0.000000
vn 0.000000 -1.000000 0.000000
vn 0.000000 -1.000000 0.000000
vn 0.000000 -1.000000 0.000000
vn 0.000000 -1.000000 0.000000
vn 0.000000 0.000000 1.000000
vn 0.000000 0.000000 1.000000
vn 0.000000 0.000000 1.000000
vn 0.000000 0.000000 1.000000
vn -0.571942 0.820294 0.000000
vn -0.571942 0.820294 0.000000
vn -0.571942 0.820294 0.000000
vn -0.571942 0.820294 0.000000
vn 0.000000 0.000000 -1.000000
vn 0.000000 0.000000 -1.000000
vn 0.000000 0.000000 -1.000000
vn 0.000000 0.000000 -1.000000
s off
g razzo1 pCube2
usemtl initialShadingGroup
f 223/530/443 224/531/444 226/532/445 225/533/446
f 225/502/447 226/503/448 228/504/449 227/505/450
f 227/536/451 228/537/452 230/538/453 229/539/454
f 229/518/455 230/519/456 224/520/457 223/521/458
f 224/506/459 230/507/460 228/504/461 226/503/462
f 229/518/463 223/521/464 232/522/465 231/523/466
f 223/530/467 225/533/468 233/534/469 232/535/470
f 225/502/471 227/505/472 234/508/473 233/509/474
f 227/536/475 229/539/476 231/540/477 234/541/478
f 235/542/479 237/543/480 238/544/481 236/545/482
f 237/510/483 239/511/484 240/512/485 238/513/486
f 239/548/487 241/549/488 242/550/489 240/551/490
f 241/524/491 235/525/492 236/526/493 242/527/494
f 236/516/495 238/513/496 240/512/497 242/517/498
f 241/524/499 243/528/500 244/529/501 235/525/502
f 235/542/503 244/546/504 245/547/505 237/543/506
f 237/510/507 245/514/508 246/515/509 239/511/510
f 239/548/511 246/552/512 243/553/513 241/549/514
g default
v 10.079386 -98.207327 1.806487
v 18.829026 -98.207327 1.806487
v 10.079386 -69.007223 1.806487
v 18.829026 -86.495337 1.806487
v 10.079386 -69.007223 -1.806487
v 18.829026 -86.495337 -1.806487
v 10.079386 -98.207327 -1.806487
v 18.829026 -98.207327 -1.806487
v 7.284218 -98.207327 -1.806487
v 7.284218 -98.207327 1.806487
v 7.284218 -69.007223 1.806487
v 7.284218 -69.007223 -1.806487
v -10.079386 -98.207327 1.806487
v -18.829020 -98.207327 1.806487
v -10.079386 -69.007223 1.806487
v -18.829020 -86.495337 1.806487
v -10.079386 -69.007223 -1.806487
v -18.829020 -86.495337 -1.806487
v -10.079386 -98.207327 -1.806487
v -18.829020 -98.207327 -1.806487
v -7.284219 -98.207327 -1.806487
v -7.284219 -98.207327 1.806487
v -7.284219 -69.007223 1.806487
v -7.284219 -69.007223 -1.806487
vt 0.571116 0.988296
vt 0.571116 0.837203
vt 0.672305 0.837203
vt 0.672305 0.988296
vt 0.571116 0.736015
vt 0.672305 0.736015
vt 0.558656 0.928215
vt 0.457467 0.928215
vt 0.457467 0.777122
vt 0.558656 0.777122
vt 0.558656 0.675933
vt 0.457467 0.675933
vt 0.031150 0.786132
vt 0.104204 0.786132
vt 0.104204 0.883919
vt 0.031150 0.883919
vt 0.007813 0.883919
vt 0.007813 0.786132
vt 0.717985 0.205636
vt 0.717985 0.303424
vt 0.694648 0.303424
vt 0.694648 0.205636
vt 0.189574 0.786132
vt 0.189574 0.883919
vt 0.116520 0.883919
vt 0.116520 0.786132
vt 0.212912 0.786132
vt 0.212912 0.883919
vt 0.106638 0.017672
vt 0.129976 0.017672
vt 0.129976 0.115460
vt 0.106638 0.115460
vt 0.771255 0.017672
vt 0.902785 0.017672
vt 0.902785 0.193734
vt 0.771255 0.456627
vt 0.729237 0.456627
vt 0.729237 0.017672
vt 0.123950 0.337318
vt 0.255480 0.600210
vt 0.255480 0.776272
vt 0.123950 0.776272
vt 0.081931 0.776272
vt 0.081931 0.337318
vt 0.845943 0.466487
vt 0.845943 0.905440
vt 0.714413 0.642548
vt 0.714413 0.466487
vt 0.887961 0.466487
vt 0.887961 0.905440
vt 0.401229 0.501259
vt 0.401229 0.940213
vt 0.269699 0.940213
vt 0.269699 0.764151
vt 0.443248 0.501259
vt 0.443248 0.940213
vn 0.000000 0.000000 1.000000
vn 0.000000 0.000000 1.000000
vn 0.000000 0.000000 1.000000
vn 0.000000 0.000000 1.000000
vn 0.894313 0.447442 0.000000
vn 0.894313 0.447442 0.000000
vn 0.894313 0.447442 0.000000
vn 0.894313 0.447442 0.000000
vn 0.000000 0.000000 -1.000000
vn 0.000000 0.000000 -1.000000
vn 0.000000 0.000000 -1.000000
vn 0.000000 0.000000 -1.000000
vn 0.000000 -1.000000 0.000000
vn 0.000000 -1.000000 0.000000
vn 0.000000 -1.000000 0.000000
vn 0.000000 -1.000000 0.000000
vn 1.000000 0.000000 0.000000
vn 1.000000 0.000000 0.000000
vn 1.000000 0.000000 0.000000
vn 1.000000 0.000000 0.000000
vn 0.000000 -1.000000 0.000000
vn 0.000000 -1.000000 0.000000
vn 0.000000 -1.000000 0.000000
vn 0.000000 -1.000000 0.000000
vn 0.000000 0.000000 1.000000
vn 0.000000 0.000000 1.000000
vn 0.000000 0.000000 1.000000
vn 0.000000 0.000000 1.000000
vn 0.000000 1.000000 0.000000
vn 0.000000 1.000000 0.000000
vn 0.000000 1.000000 0.000000
vn 0.000000 1.000000 0.000000
vn 0.000000 0.000000 -1.000000
vn 0.000000 0.000000 -1.000000
vn 0.000000 0.000000 -1.000000
vn 0.000000 0.000000 -1.000000
vn 0.000000 0.000000 1.000000
vn 0.000000 0.000000 1.000000
vn 0.000000 0.000000 1.000000
vn 0.000000 0.000000 1.000000
vn -0.894313 0.447442 0.000000
vn -0.894313 0.447442 0.000000
vn -0.894313 0.447442 0.000000
vn -0.894313 0.447442 0.000000
vn 0.000000 0.000000 -1.000000
vn 0.000000 0.000000 -1.000000
vn 0.000000 0.000000 -1.000000
vn 0.000000 0.000000 -1.000000
vn 0.000000 -1.000000 0.000000
vn 0.000000 -1.000000 0.000000
vn 0.000000 -1.000000 0.000000
vn 0.000000 -1.000000 0.000000
vn -1.000000 0.000000 0.000000
vn -1.000000 0.000000 0.000000
vn -1.000000 0.000000 0.000000
vn -1.000000 0.000000 0.000000
vn 0.000000 -1.000000 0.000000
vn 0.000000 -1.000000 0.000000
vn 0.000000 -1.000000 0.000000
vn 0.000000 -1.000000 0.000000
vn 0.000000 0.000000 1.000000
vn 0.000000 0.000000 1.000000
vn 0.000000 0.000000 1.000000
vn 0.000000 0.000000 1.000000
vn 0.000000 1.000000 0.000000
vn 0.000000 1.000000 0.000000
vn 0.000000 1.000000 0.000000
vn 0.000000 1.000000 0.000000
vn 0.000000 0.000000 -1.000000
vn 0.000000 0.000000 -1.000000
vn 0.000000 0.000000 -1.000000
vn 0.000000 0.000000 -1.000000
s off
g razzo1 pCube1
usemtl initialShadingGroup
f 247/586/515 248/587/516 250/588/517 249/589/518
f 249/554/519 250/555/520 252/556/521 251/557/522
f 251/592/523 252/593/524 254/594/525 253/595/526
f 253/566/527 254/567/528 248/568/529 247/569/530
f 248/558/531 254/559/532 252/556/533 250/555/534
f 253/566/535 247/569/536 256/570/537 255/571/538
f 247/586/539 249/589/540 257/590/541 256/591/542
f 249/572/543 251/573/544 258/574/545 257/575/546
f 251/592/547 253/595/548 255/596/549 258/597/550
f 259/598/551 261/599/552 262/600/553 260/601/554
f 261/560/555 263/561/556 264/562/557 262/563/558
f 263/604/559 265/605/560 266/606/561 264/607/562
f 265/576/563 259/577/564 260/578/565 266/579/566
f 260/564/567 262/563/568 264/562/569 266/565/570
f 265/576/571 267/580/572 268/581/573 259/577/574
f 259/598/575 268/602/576 269/603/577 261/599/578
f 261/582/579 269/583/580 270/584/581 263/585/582
f 263/604/583 270/608/584 267/609/585 265/605/586
