# This file uses meters as units for non-parametric coordinates.

mtllib razzo4.mtl
g default
v 119.957502 -30.968655 -4.286250
v 117.987471 -30.968655 -8.152939
v 114.918853 -30.968655 -11.221550
v 111.052092 -30.968655 -13.191719
v 111.052092 -30.968655 13.191711
v 114.918839 -30.968655 11.221550
v 117.987456 -30.968655 8.152937
v 119.957502 -30.968655 4.286250
v 120.636389 -30.968655 0.000000
v 119.612196 -21.253137 -4.174036
v 117.693680 -21.253137 -7.939484
v 114.705366 -21.253137 -10.927769
v 110.939925 -21.253137 -12.846346
v 110.939925 -21.253137 12.846339
v 114.705366 -21.253137 10.927746
v 117.693540 -21.253137 7.939484
v 119.612196 -21.253137 4.174027
v 120.273344 -21.253137 0.000000
v 118.561033 -15.353096 -3.832511
v 116.661604 -9.420463 -3.215323
v 112.479719 -5.077491 -1.856538
v 111.626380 -5.077491 -3.531345
v 115.183738 -9.420463 -6.115906
v 116.799436 -15.353096 -7.289867
v 110.297257 -5.077491 -4.860466
v 112.881827 -9.420463 -8.417833
v 114.055739 -15.353096 -10.033658
v 108.622374 -5.077491 -5.713830
v 109.981224 -9.420463 -9.895751
v 110.598403 -15.353096 -11.795258
v 108.622374 -5.077491 5.713818
v 109.981224 -9.420463 9.895749
v 110.598403 -15.353096 11.795258
v 110.297118 -5.077491 4.860466
v 112.881820 -9.420463 8.417811
v 114.055739 -15.353096 10.033638
v 111.626372 -5.077491 3.531340
v 115.183730 -9.420463 6.115905
v 116.799429 -15.353096 7.289865
v 112.479719 -5.077491 1.856530
v 116.661604 -9.420463 3.215319
v 118.561025 -15.353096 3.832508
v 112.773665 -5.077491 -0.000006
v 117.170914 -9.420463 -0.000002
v 119.168165 -15.353096 0.000000
v 110.926176 -78.536802 -1.351771
v 110.304861 -78.536802 -2.571217
v 109.337111 -78.536802 -3.538968
v 108.117552 -78.536802 -4.160327
v 108.117552 -78.536802 4.160317
v 109.337111 -78.536802 3.538964
v 110.304861 -78.536802 2.571217
v 110.926176 -78.536802 1.351768
v 111.140257 -78.536802 -0.000001
v 110.281051 -78.536802 -1.142155
v 109.756056 -78.536802 -2.172494
v 108.938384 -78.536802 -2.990171
v 107.907988 -78.536802 -3.515170
v 107.907988 -78.536802 3.515167
v 108.938384 -78.536802 2.990171
v 109.756056 -78.536802 2.172492
v 110.281051 -78.536802 1.142147
v 110.461935 -78.536802 -0.000001
v 110.281051 -93.686796 -1.142208
v 109.756056 -93.686796 -2.172386
v 108.938384 -93.686796 -2.990171
v 107.907988 -93.686796 -3.515226
v 107.907988 -93.686796 3.515167
v 108.938384 -93.686796 2.990171
v 109.756056 -93.686796 2.172382
v 110.281051 -93.686796 1.142147
v 110.461935 -93.686796 -0.000001
v 112.747222 -70.334059 -1.943461
v 111.853880 -70.334059 -3.696678
v 110.462507 -70.334059 -5.088039
v 108.709241 -70.334059 -5.981357
v 108.709241 -70.334059 5.981351
v 110.462507 -70.334059 5.088028
v 111.853880 -70.334059 3.696675
v 112.747222 -70.334059 1.943458
v 113.054961 -70.334059 -0.000001
v 106.765814 -30.968655 -13.870586
v 106.765814 -30.968655 13.870580
v 106.765814 -21.253137 -13.507437
v 106.765814 -21.253137 13.507433
v 106.765814 -3.487842 -0.000019
v 106.765814 -3.487842 -0.000040
v 106.765814 -3.487844 -0.000074
v 106.765814 -3.487886 -0.000161
v 106.765814 -15.353096 -12.402254
v 106.765814 -3.487886 0.000155
v 106.765814 -15.353097 12.402251
v 106.765814 -3.487844 0.000068
v 106.765814 -3.487842 0.000034
v 106.765814 -3.487842 0.000014
v 106.765814 -3.487842 -0.000003
v 106.765814 -9.420463 -10.404993
v 106.765814 -5.077491 -6.007861
v 106.765814 -9.420463 10.404987
v 106.765814 -5.077491 6.007859
v 106.765814 -78.536802 -4.374391
v 106.765814 -78.536802 4.374389
v 106.765814 -78.536802 -3.696041
v 106.765814 -78.536802 3.696037
v 106.765814 -93.686781 -0.000011
v 106.765814 -93.686781 -0.000022
v 106.765814 -93.686781 -0.000042
v 106.765814 -93.686781 -0.000091
v 106.765814 -93.686796 -3.696041
v 106.765814 -93.686796 3.696037
v 106.765814 -93.686781 0.000089
v 106.765814 -93.686781 0.000039
v 106.765814 -93.686781 0.000020
v 106.765814 -93.686781 0.000008
v 106.765814 -93.686781 -0.000001
v 106.765814 -70.334059 -6.289143
v 106.765814 -70.334059 6.289138
v 93.574140 -30.968655 -4.286250
v 95.544318 -30.968655 -8.152939
v 98.612928 -30.968655 -11.221550
v 102.479690 -30.968655 -13.191719
v 102.479690 -30.968655 13.191711
v 98.612943 -30.968655 11.221550
v 95.544333 -30.968655 8.152937
v 93.574140 -30.968655 4.286250
v 92.895261 -30.968655 0.000000
v 93.919578 -21.253137 -4.174036
v 95.838102 -21.253137 -7.939484
v 98.826423 -21.253137 -10.927769
v 102.591856 -21.253137 -12.846346
v 102.591856 -21.253137 12.846339
v 98.826423 -21.253137 10.927746
v 95.838102 -21.253137 7.939484
v 93.919586 -21.253137 4.174027
v 93.258445 -21.253137 0.000000
v 94.970624 -15.353096 -3.832511
v 96.870185 -9.420463 -3.215323
v 101.052070 -5.077491 -1.856538
v 101.905409 -5.077491 -3.531345
v 98.348051 -9.420463 -6.115906
v 96.732221 -15.353096 -7.289867
v 103.234495 -5.077491 -4.860466
v 100.649962 -9.420463 -8.417833
v 99.476043 -15.353096 -10.033658
v 104.909401 -5.077491 -5.713830
v 103.550535 -9.420463 -9.895751
v 102.933378 -15.353096 -11.795258
v 104.909408 -5.077491 5.713818
v 103.550535 -9.420463 9.895749
v 102.933378 -15.353096 11.795258
v 103.234517 -5.077491 4.860466
v 100.649962 -9.420463 8.417811
v 99.476050 -15.353096 10.033638
v 101.905417 -5.077491 3.531340
v 98.348051 -9.420463 6.115905
v 96.732221 -15.353096 7.289865
v 101.052070 -5.077491 1.856530
v 96.870185 -9.420463 3.215319
v 94.970624 -15.353096 3.832508
v 100.757985 -5.077491 -0.000006
v 96.360868 -9.420463 -0.000002
v 94.363624 -15.353096 0.000000
v 102.605613 -78.536802 -1.351771
v 103.226928 -78.536802 -2.571217
v 104.194678 -78.536802 -3.538968
v 105.414076 -78.536802 -4.160327
v 105.414076 -78.536802 4.160317
v 104.194678 -78.536802 3.538964
v 103.226928 -78.536802 2.571217
v 102.605613 -78.536802 1.351768
v 102.391525 -78.536802 -0.000001
v 103.250731 -78.536802 -1.142155
v 103.775733 -78.536802 -2.172494
v 104.593405 -78.536802 -2.990171
v 105.623772 -78.536802 -3.515170
v 105.623772 -78.536802 3.515167
v 104.593405 -78.536802 2.990171
v 103.775733 -78.536802 2.172492
v 103.250731 -78.536802 1.142147
v 103.069854 -78.536802 -0.000001
v 103.250731 -93.686796 -1.142208
v 103.775733 -93.686796 -2.172386
v 104.593405 -93.686796 -2.990171
v 105.623772 -93.686796 -3.515226
v 105.623772 -93.686796 3.515167
v 104.593405 -93.686796 2.990171
v 103.775733 -93.686796 2.172382
v 103.250731 -93.686796 1.142147
v 103.069854 -93.686796 -0.000001
v 100.784567 -70.334059 -1.943461
v 101.677865 -70.334059 -3.696678
v 103.069150 -70.334059 -5.088039
v 104.822409 -70.334059 -5.981357
v 104.822409 -70.334059 5.981351
v 103.069150 -70.334059 5.088028
v 101.677872 -70.334059 3.696675
v 100.784567 -70.334059 1.943458
v 100.476689 -70.334059 -0.000001
v 115.966709 -55.831696 -2.989558
v 114.592650 -55.831696 -5.686475
v 112.452345 -55.831696 -7.826764
v 109.755366 -55.831696 -9.200914
v 106.765814 -55.831696 -9.674395
v 103.776327 -55.831696 -9.200914
v 101.079400 -55.831696 -7.826764
v 98.939117 -55.831696 -5.686475
v 97.564970 -55.831696 -2.989558
v 97.091489 -55.831696 -0.000000
v 97.564970 -55.831696 2.989555
v 98.939132 -55.831696 5.686472
v 103.776327 -55.831696 9.200910
v 106.765814 -55.831696 9.674395
v 109.755366 -55.831696 9.200910
v 112.452345 -55.831696 7.826753
v 114.592635 -55.831696 5.686472
v 115.966702 -55.831696 2.989555
v 116.440205 -55.831696 -0.000000
v 119.217091 -40.915000 -4.045676
v 119.096382 -41.734380 -4.006440
v 117.357642 -40.915000 -7.695341
v 117.254870 -41.734380 -7.620705
v 114.461249 -40.915000 -10.591725
v 114.386562 -41.734380 -10.489003
v 110.811560 -40.915000 -12.451322
v 110.772307 -41.734380 -12.330565
v 106.765814 -40.915000 -13.092084
v 106.765814 -41.734380 -12.965111
v 110.772307 -41.734380 12.330555
v 110.811560 -40.915000 12.451313
v 114.461242 -40.915000 10.591723
v 114.386554 -41.734380 10.488999
v 117.357628 -40.915000 7.695331
v 117.254855 -41.734380 7.620700
v 119.217091 -40.915000 4.045676
v 119.096382 -41.734380 4.006440
v 119.857963 -40.915000 0.000000
v 119.730955 -41.734380 0.000000
v 106.765814 -41.734380 12.965107
v 106.765814 -40.915000 13.092081
v 94.314573 -40.915000 -4.045676
v 94.435370 -41.734380 -4.006440
v 96.174132 -40.915000 -7.695341
v 96.276853 -41.734380 -7.620704
v 99.070540 -40.915000 -10.591725
v 99.145125 -41.734380 -10.489002
v 102.759453 -41.734380 -12.330564
v 102.720221 -40.915000 -12.451322
v 102.720221 -40.915000 12.451312
v 102.759453 -41.734380 12.330556
v 99.070547 -40.915000 10.591722
v 99.145132 -41.734380 10.488999
v 96.174147 -40.915000 7.695331
v 96.276853 -41.734380 7.620700
v 94.314573 -40.915000 4.045676
v 94.435378 -41.734380 4.006440
v 93.673811 -40.915000 0.000000
v 93.800790 -41.734380 0.000000
v 118.960281 -40.873146 -3.962225
v 118.839505 -41.692534 -3.922987
v 117.036382 -41.692530 -7.461962
v 117.139118 -40.873143 -7.536600
v 119.587872 -40.873146 0.000000
v 119.460886 -41.692534 0.000000
v 114.227823 -41.692530 -10.270519
v 114.302488 -40.873143 -10.373247
v 110.688856 -41.692530 -12.073723
v 110.728110 -40.873143 -12.194479
v 106.765814 -41.692530 -12.695046
v 106.765814 -40.873143 -12.822021
v 102.842911 -41.692534 -12.073723
v 102.803679 -40.873146 -12.194479
v 110.688856 -41.692530 12.073711
v 110.728103 -40.873143 12.194469
v 106.765814 -40.873143 12.822018
v 106.765814 -41.692534 12.695045
v 114.227816 -41.692527 10.270509
v 114.302488 -40.873143 10.373235
v 117.036367 -41.692530 7.461960
v 117.139103 -40.873143 7.536594
v 118.839498 -41.692534 3.922986
v 118.960281 -40.873146 3.962225
v 102.803671 -40.873146 12.194469
v 102.842911 -41.692534 12.073711
v 94.571442 -40.873143 -3.962225
v 94.692181 -41.692534 -3.922992
v 94.070844 -41.692527 -0.000000
v 93.943836 -40.873143 -0.000000
v 96.392591 -40.873146 -7.536599
v 96.495312 -41.692534 -7.461966
v 99.229279 -40.873146 -10.373244
v 99.303892 -41.692534 -10.270519
v 99.229286 -40.873146 10.373232
v 99.303892 -41.692534 10.270512
v 96.392605 -40.873143 7.536594
v 96.495312 -41.692530 7.461962
v 94.571450 -40.873143 3.962224
v 94.692188 -41.692530 3.922987
v 117.903654 -47.106899 -3.618903
v 116.240276 -47.106899 -6.883564
v 113.649444 -47.106899 -9.474418
v 110.384733 -47.106899 -11.137846
v 106.765814 -47.106899 -11.711011
v 103.146961 -47.106899 -11.137845
v 99.882301 -47.106899 -9.474417
v 97.291425 -47.106899 -6.883564
v 95.628047 -47.106899 -3.618904
v 95.054859 -47.106899 -0.000000
v 95.628054 -47.106899 3.618902
v 97.291432 -47.106899 6.883560
v 99.882309 -47.106899 9.474406
v 103.146961 -47.106899 11.137837
v 106.765814 -47.106899 11.711005
v 110.384733 -47.106899 11.137837
v 113.649436 -47.106899 9.474406
v 116.240269 -47.106899 6.883561
v 117.903654 -47.106899 3.618902
v 118.476835 -47.106899 -0.000000
v 98.939132 -55.831696 5.686472
v 101.677872 -70.334059 3.696675
v 103.069150 -70.334059 5.088029
v 103.776320 -55.831696 9.200910
v 104.822409 -70.334059 5.981351
v 97.291432 -47.106899 6.883561
v 99.882309 -47.106899 9.474406
v 103.146961 -47.106899 11.137836
v 99.041450 -55.361483 8.365085
v 99.914479 -55.377399 9.216592
v 100.292974 -61.984905 7.457032
v 100.828932 -61.984435 7.957934
v 100.994102 -55.361490 9.783774
v 101.470963 -61.984905 8.312900
v 98.320508 -51.547776 8.887633
v 99.394705 -51.548238 9.932003
v 100.719904 -51.547776 10.630891
vt 0.594509 0.151298
vt 0.629993 0.162063
vt 0.605002 0.242701
vt 0.571495 0.231954
vt 0.665404 0.173512
vt 0.638400 0.254606
vt 0.700874 0.185386
vt 0.671725 0.267770
vt 0.736844 0.197196
vt 0.016864 0.193039
vt 0.414569 0.110912
vt 0.450919 0.117101
vt 0.436028 0.199030
vt 0.401777 0.193065
vt 0.487091 0.124235
vt 0.470129 0.205858
vt 0.523079 0.132325
vt 0.504071 0.213592
vt 0.558881 0.141359
vt 0.537857 0.222274
vt 0.117566 0.350018
vt 0.112388 0.341484
vt 0.142158 0.329490
vt 0.142157 0.329491
vt 0.125186 0.356579
vt 0.142158 0.329494
vt 0.134509 0.360576
vt 0.142160 0.329496
vt 0.129691 0.299900
vt 0.685021 0.669608
vt 0.142154 0.329483
vt 0.120869 0.305332
vt 0.142157 0.329486
vt 0.114559 0.312872
vt 0.142157 0.329486
vt 0.110844 0.321987
vt 0.142158 0.329488
vt 0.110087 0.331833
vt 0.142157 0.329489
vt 0.936780 0.620710
vt 0.982806 0.644178
vt 0.566195 0.342022
vt 0.927954 0.634113
vt 0.555226 0.281144
vt 0.586801 0.291460
vt 0.617955 0.303068
vt 0.648500 0.316308
vt 0.030325 0.247755
vt 0.426294 0.249833
vt 0.393582 0.244292
vt 0.458835 0.256305
vt 0.491191 0.263660
vt 0.523335 0.271917
vt 0.594418 0.352743
vt 0.915453 0.644129
vt 0.621367 0.364924
vt 0.900691 0.650177
vt 0.048795 0.301584
vt 0.884737 0.651121
vt 0.936462 0.506091
vt 0.415797 0.302957
vt 0.912839 0.552076
vt 0.925606 0.561205
vt 0.446580 0.309148
vt 0.935051 0.573649
vt 0.477123 0.316095
vt 0.940511 0.588943
vt 0.507332 0.323841
vt 0.940752 0.605152
vt 0.891793 0.600388
vt 0.891793 0.600386
vt 0.468657 0.365152
vt 0.455937 0.365588
vt 0.764021 0.790899
vt 0.773957 0.789420
vt 0.480978 0.364274
vt 0.783892 0.787940
vt 0.492874 0.362929
vt 0.793829 0.786460
vt 0.389683 0.359753
vt 0.376248 0.357077
vt 0.734646 0.014888
vt 0.724671 0.013701
vt 0.403145 0.361955
vt 0.724278 0.796818
vt 0.416541 0.363657
vt 0.734214 0.795338
vt 0.429804 0.364819
vt 0.744150 0.793859
vt 0.442874 0.365391
vt 0.754085 0.792379
vt 0.476532 0.437848
vt 0.459627 0.438902
vt 0.493333 0.435613
vt 0.509964 0.432359
vt 0.374839 0.432544
vt 0.357827 0.428586
vt 0.391826 0.435814
vt 0.408805 0.438272
vt 0.425781 0.439901
vt 0.367343 0.188349
vt 0.378093 0.105468
vt 0.144705 0.361432
vt 0.891792 0.600389
vt 0.360699 0.239575
vt 0.891790 0.600390
vt 0.891791 0.600393
vt 0.904551 0.495901
vt 0.891794 0.600380
vt 0.897692 0.548441
vt 0.891794 0.600382
vt 0.891792 0.600383
vt 0.891792 0.600384
vt 0.605051 0.814574
vt 0.715575 0.082350
vt 0.211482 0.341769
vt 0.157146 0.094572
vt 0.158822 0.178430
vt 0.123683 0.180274
vt 0.120089 0.095929
vt 0.088353 0.183265
vt 0.082930 0.097965
vt 0.052771 0.187492
vt 0.045604 0.100397
vt 0.341435 0.101427
vt 0.332846 0.184125
vt 0.298207 0.181155
vt 0.304709 0.098137
vt 0.263492 0.179056
vt 0.267914 0.095808
vt 0.228700 0.177877
vt 0.231053 0.094449
vt 0.193817 0.177652
vt 0.194130 0.094051
vt 0.615473 0.679965
vt 0.625407 0.678486
vt 0.605536 0.681445
vt 0.595600 0.682925
vt 0.675086 0.671088
vt 0.665150 0.672567
vt 0.655214 0.674047
vt 0.645279 0.675527
vt 0.635343 0.677006
vt 0.842028 0.608768
vt 0.847250 0.623841
vt 0.802140 0.649261
vt 0.166461 0.284380
vt 0.128843 0.232063
vt 0.162005 0.230143
vt 0.095757 0.235339
vt 0.062846 0.240349
vt 0.327701 0.235747
vt 0.294658 0.232760
vt 0.261543 0.230716
vt 0.228381 0.229573
vt 0.195194 0.229357
vt 0.821237 0.674297
vt 0.856824 0.636614
vt 0.847330 0.692518
vt 0.869556 0.646168
vt 0.322580 0.289391
vt 0.840479 0.509993
vt 0.882064 0.548401
vt 0.867318 0.554256
vt 0.815479 0.530705
vt 0.854879 0.564142
vt 0.798315 0.557752
vt 0.846050 0.577399
vt 0.790215 0.588203
vt 0.841962 0.592861
vt 0.293613 0.319453
vt 0.634857 0.810135
vt 0.644793 0.808656
vt 0.304175 0.326535
vt 0.283586 0.312085
vt 0.624922 0.811615
vt 0.274153 0.304465
vt 0.727152 0.077866
vt 0.363042 0.353734
vt 0.694472 0.801257
vt 0.350452 0.349744
vt 0.684536 0.802737
vt 0.338318 0.345024
vt 0.674600 0.804217
vt 0.326792 0.339506
vt 0.664664 0.805696
vt 0.315226 0.333284
vt 0.654729 0.807176
vt 0.248447 0.377443
vt 0.262530 0.387439
vt 0.234991 0.366615
vt 0.222190 0.355021
vt 0.340324 0.426121
vt 0.323050 0.420880
vt 0.306186 0.414865
vt 0.291136 0.406433
vt 0.442719 0.440847
vt 0.277200 0.396559
vt 0.505953 0.563833
vt 0.480465 0.568632
vt 0.531279 0.557287
vt 0.556346 0.549089
vt 0.106204 0.416886
vt 0.123389 0.436980
vt 0.141339 0.456034
vt 0.160134 0.473841
vt 0.179703 0.490299
vt 0.199902 0.505386
vt 0.220963 0.519029
vt 0.242903 0.530817
vt 0.271676 0.546954
vt 0.261405 0.544523
vt 0.286833 0.493180
vt 0.292502 0.494961
vt 0.281269 0.551400
vt 0.298140 0.496912
vt 0.330259 0.558726
vt 0.306536 0.551448
vt 0.354375 0.565000
vt 0.378891 0.569653
vt 0.403912 0.572339
vt 0.429302 0.573085
vt 0.454953 0.571785
vt 0.972754 0.224352
vt 0.367046 0.934353
vt 0.887187 0.451791
vt 0.395130 0.955928
vt 0.949981 0.250730
vt 0.336738 0.917864
vt 0.863810 0.477168
vt 0.427194 0.969575
vt 0.833735 0.494078
vt 0.459876 0.981671
vt 0.799905 0.500868
vt 0.007812 0.529293
vt 0.765635 0.496871
vt 0.019886 0.561981
vt 0.825139 0.284488
vt 0.219704 0.843454
vt 0.793017 0.237532
vt 0.198890 0.814800
vt 0.856498 0.298879
vt 0.246581 0.865634
vt 0.881875 0.322257
vt 0.274491 0.886501
vt 0.898785 0.352332
vt 0.303368 0.906007
vt 0.774969 0.207723
vt 0.174503 0.790394
vt 0.836025 0.062520
vt 0.071536 0.652473
vt 0.685199 0.395198
vt 0.083370 0.685852
vt 0.869952 0.054565
vt 0.055069 0.622154
vt 0.904678 0.057485
vt 0.040072 0.591081
vt 0.767015 0.173795
vt 0.151311 0.764848
vt 0.769934 0.139069
vt 0.129370 0.738221
vt 0.783442 0.106946
vt 0.108729 0.710573
vt 0.974772 0.225603
vt 0.988568 0.192796
vt 0.991550 0.157330
vt 0.983426 0.122678
vt 0.791204 0.239065
vt 0.818144 0.262323
vt 0.850952 0.276119
vt 0.886418 0.279101
vt 0.921068 0.270977
vt 0.951514 0.252544
vt 0.538424 0.684875
vt 0.903865 0.421072
vt 0.494108 0.645602
vt 0.525157 0.638969
vt 0.571871 0.674751
vt 0.555796 0.630050
vt 0.604311 0.662690
vt 0.585957 0.618702
vt 0.327686 0.690491
vt 0.790770 0.278119
vt 0.307418 0.634696
vt 0.337262 0.643267
vt 0.362766 0.696576
vt 0.368168 0.648649
vt 0.398282 0.699679
vt 0.399555 0.651502
vt 0.433844 0.699982
vt 0.431163 0.651916
vt 0.469199 0.697576
vt 0.462742 0.649943
vt 0.964992 0.092233
vt 0.046237 0.462660
vt 0.636347 0.649154
vt 0.869779 0.052197
vt 0.835128 0.060321
vt 0.905244 0.055179
vt 0.938053 0.068975
vt 0.772770 0.208620
vt 0.764647 0.173969
vt 0.767628 0.138503
vt 0.781424 0.105695
vt 0.804683 0.078755
vt 0.707037 0.460576
vt 0.109416 0.533571
vt 0.133391 0.554305
vt 0.101877 0.590537
vt 0.732960 0.484456
vt 0.087007 0.511268
vt 0.764994 0.499158
vt 0.066089 0.487629
vt 0.756214 0.285055
vt 0.277652 0.624925
vt 0.725491 0.302329
vt 0.246676 0.615253
vt 0.701610 0.328253
vt 0.216060 0.602937
vt 0.686910 0.360287
vt 0.186424 0.589940
vt 0.682827 0.395296
vt 0.159012 0.573241
vt 0.260140 0.577731
vt 0.248872 0.574903
vt 0.270772 0.582542
vt 0.306188 0.414868
vt 0.242904 0.530819
vt 0.323049 0.420881
vt 0.340316 0.426119
vt 0.306525 0.551450
vt 0.216061 0.602937
vt 0.246676 0.615251
vt 0.277652 0.624924
vt 0.089436 0.681969
vt 0.689196 0.360927
vt 0.102856 0.714743
vt 0.806215 0.080568
vt 0.703586 0.329568
vt 0.123703 0.742667
vt 0.726964 0.304191
vt 0.145864 0.769561
vt 0.757040 0.287281
vt 0.169287 0.795362
vt 0.026581 0.559325
vt 0.734276 0.482480
vt 0.033512 0.594055
vt 0.936802 0.070993
vt 0.708899 0.459102
vt 0.048659 0.625439
vt 0.691988 0.429027
vt 0.065291 0.656061
vt 0.790868 0.280491
vt 0.193919 0.820012
vt 0.333146 0.924107
vt 0.920172 0.268778
vt 0.307255 0.899943
vt 0.905575 0.386161
vt 0.886244 0.276733
vt 0.278664 0.880630
vt 0.851519 0.273813
vt 0.251031 0.859970
vt 0.819395 0.260306
vt 0.224420 0.838010
vt 0.963179 0.093765
vt 0.495108 0.985270
vt 0.981228 0.123575
vt 0.462213 0.974858
vt 0.989182 0.157503
vt 0.429856 0.962882
vt 0.986262 0.192229
vt 0.398109 0.949370
vt 0.901578 0.420432
vt 0.363757 0.940760
vt 0.130778 0.612114
vt 0.162030 0.631236
vt 0.235300 0.008432
vt 0.196846 0.007818
vt 0.195247 0.646786
vt 0.273824 0.010020
vt 0.228467 0.659998
vt 0.312333 0.012645
vt 0.261625 0.670952
vt 0.350751 0.016351
vt 0.027569 0.515908
vt 0.050566 0.542289
vt 0.082973 0.010431
vt 0.045956 0.011811
vt 0.075217 0.567161
vt 0.120558 0.009039
vt 0.689762 0.429853
vt 0.158560 0.008076
vt 0.293833 0.681210
vt 0.389023 0.021193
vt 0.578254 0.057287
vt 0.540916 0.048070
vt 0.901012 0.351506
vt 0.907947 0.386063
vt 0.503262 0.039778
vt 0.883737 0.320783
vt 0.465358 0.032492
vt 0.857814 0.296903
vt 0.427266 0.026275
vt 0.825780 0.282202
vt 0.757679 0.109571
vt 0.800003 0.503240
vt 0.723132 0.099641
vt 0.834560 0.496305
vt 0.687693 0.088863
vt 0.865283 0.479030
vt 0.651707 0.077929
vt 0.889164 0.453106
vt 0.504126 0.692514
vt 0.615208 0.067304
vt 0.614986 0.813094
vt 0.717178 0.076680
vt 0.727380 0.083755
vt 0.504814 0.360728
vt 0.353825 0.292571
vt 0.871083 0.497830
vt 0.154709 0.359039
vt 0.784379 0.654811
vt 0.756807 0.054517
vt 0.752596 0.063638
vt 0.762478 0.056120
vt 0.757494 0.066914
vt 0.757994 0.044543
vt 0.763882 0.044315
vt 0.756040 0.034689
vt 0.761570 0.032653
vt 0.751138 0.025922
vt 0.755768 0.022277
vt 0.743765 0.019098
vt 0.747043 0.014201
vt 0.704406 0.799778
vt 0.736249 0.009217
vt 0.737006 0.075913
vt 0.739042 0.081442
vt 0.745773 0.071010
vt 0.749418 0.075640
vt 0.791451 0.619677
vt 0.197421 0.283646
vt 0.228607 0.283862
vt 0.259912 0.284937
vt 0.291256 0.286804
vt 0.076679 0.294278
vt 0.878082 0.701569
vt 0.105844 0.289375
vt 0.135868 0.286209
vt 0.174276 0.327267
vt 0.173501 0.337078
vt 0.172010 0.317637
vt 0.166864 0.309109
vt 0.159266 0.302549
vt 0.149980 0.298459
vt 0.139756 0.297531
vt 0.163486 0.353637
vt 0.169779 0.346146
vt 0.694957 0.668128
vt 0.714342 0.798298
vt 0.724444 0.007812
vt 0.384848 0.297467
vt 0.734700 0.662210
vt 0.744636 0.660730
vt 0.724764 0.663689
vt 0.714829 0.665169
vt 0.704893 0.666649
vt 0.774443 0.656291
vt 0.764507 0.657771
vt 0.754570 0.659250
vt 0.695015 0.037049
vt 0.693828 0.047024
vt 0.699226 0.027929
vt 0.706050 0.020557
vt 0.714817 0.015654
vt 0.708058 0.072469
vt 0.700685 0.065645
vt 0.695782 0.056878
vt 0.689345 0.035447
vt 0.687940 0.047252
vt 0.694329 0.024653
vt 0.702404 0.015927
vt 0.712781 0.010125
vt 0.704781 0.077366
vt 0.696055 0.069290
vt 0.690252 0.058914
vt 0.537081 0.332449
vt 0.991910 0.613901
vt 0.991678 0.582299
vt 0.981852 0.551780
vt 0.962974 0.525489
vt 0.910148 0.700666
vt 0.940074 0.689664
vt 0.964958 0.670218
vt 0.615204 0.605771
vt 0.007812 0.487585
vt 0.014627 0.526960
vt 0.493099 0.992188
vt 0.580215 0.537571
vt 0.010021 0.012599
vt 0.007812 0.102641
vt 0.525469 0.425481
vt 0.265196 0.296273
vt 0.803764 0.784981
vt 0.585666 0.684404
vt 0.678057 0.331766
vt 0.646466 0.379102
vt 0.705030 0.282294
vn 0.950858 -0.020563 -0.308943
vn 0.808852 -0.020562 -0.587652
vn 0.805669 0.090956 -0.585342
vn 0.947116 0.090952 -0.307732
vn 0.587657 -0.020561 -0.808849
vn 0.585347 0.090954 -0.805665
vn 0.308946 -0.020561 -0.950857
vn 0.307731 0.090952 -0.947116
vn 0.000000 -0.020561 -0.999789
vn 0.000000 0.090952 -0.995855
vn 0.308947 -0.020561 0.950857
vn 0.587660 -0.020560 0.808847
vn 0.585351 0.090954 0.805662
vn 0.307733 0.090952 0.947116
vn 0.808852 -0.020559 0.587653
vn 0.805667 0.090956 0.585343
vn 0.950857 -0.020562 0.308948
vn 0.947113 0.090952 0.307740
vn 0.999788 -0.020564 -0.000000
vn 0.995856 0.090949 0.000000
vn -0.000003 -1.000000 0.000003
vn -0.000004 -1.000000 -0.000000
vn 0.000000 -1.000000 -0.000001
vn 0.000000 -1.000000 0.000003
vn -0.000002 -1.000000 0.000003
vn 0.000000 -1.000000 0.000004
vn -0.000001 -1.000000 0.000005
vn 0.000000 -1.000000 0.000005
vn -0.000001 -1.000000 -0.000005
vn -0.000000 -1.000000 -0.000003
vn 0.000000 -1.000000 -0.000005
vn -0.000002 -1.000000 -0.000003
vn 0.000000 -1.000000 -0.000004
vn -0.000003 -1.000000 -0.000003
vn 0.000000 -1.000000 -0.000003
vn -0.000004 -1.000000 -0.000003
vn 0.000000 -1.000000 -0.000002
vn -0.000004 -1.000000 -0.000003
vn 0.000000 -1.000000 -0.000002
vn 0.581723 0.791123 -0.189004
vn 0.831895 0.484653 -0.270300
vn 0.707658 0.484651 -0.514133
vn 0.494843 0.791124 -0.359518
vn 0.921440 0.247605 -0.299400
vn 0.783829 0.247606 -0.569476
vn 0.569485 0.247605 -0.783823
vn 0.299389 0.247605 -0.921444
vn 0.000000 0.247604 -0.968861
vn 0.569487 0.247603 0.783822
vn 0.299391 0.247605 0.921443
vn 0.783830 0.247601 0.569477
vn 0.921439 0.247603 0.299405
vn 0.968861 0.247605 0.000001
vn 0.514140 0.484657 -0.707650
vn 0.359518 0.791125 -0.494841
vn 0.270292 0.484658 -0.831894
vn 0.189005 0.791124 -0.581722
vn 0.000000 0.484657 -0.874704
vn -0.000000 0.791121 -0.611660
vn 0.270296 0.484658 0.831894
vn 0.514140 0.484658 0.707649
vn 0.189010 0.791122 0.581722
vn 0.359516 0.791127 0.494840
vn 0.707654 0.484654 0.514136
vn 0.494836 0.791125 0.359525
vn 0.831895 0.484653 0.270301
vn 0.581723 0.791123 0.189004
vn 0.874705 0.484655 0.000000
vn 0.611651 0.791128 -0.000000
vn -0.000000 0.997269 -0.073860
vn -0.000000 1.000000 -0.000000
vn 0.000000 -1.000000 0.000000
vn 0.000000 -1.000000 0.000000
vn 0.000000 -1.000000 0.000000
vn 0.000000 -1.000000 0.000000
vn 0.000000 -1.000000 0.000003
vn 0.000000 -1.000000 0.000003
vn 0.000000 -1.000000 0.000003
vn 0.000000 -1.000000 0.000003
vn 0.000000 -1.000000 -0.000004
vn 0.000000 -1.000000 0.000001
vn 0.000000 -1.000000 0.000001
vn 0.000000 -1.000000 -0.000004
vn 0.000000 -1.000000 -0.000002
vn 0.000000 -1.000000 -0.000002
vn 0.000000 -1.000000 0.000002
vn 0.000000 -1.000000 0.000002
vn 0.000000 -1.000000 0.000000
vn 0.000000 -1.000000 0.000000
vn 0.000000 -1.000000 0.000000
vn 0.000000 -1.000000 0.000000
vn 0.809012 -0.000002 -0.587793
vn 0.951055 -0.000000 -0.309021
vn 0.951055 -0.000000 -0.309022
vn 0.809012 -0.000002 -0.587792
vn 0.587802 -0.000000 -0.809005
vn 0.587802 -0.000000 -0.809005
vn 0.309001 0.000002 -0.951062
vn 0.309001 0.000002 -0.951062
vn 0.308999 0.000000 0.951062
vn 0.000000 0.000000 1.000000
vn 0.000000 0.000000 1.000000
vn 0.308999 0.000000 0.951062
vn 0.587794 -0.000001 0.809011
vn 0.587794 -0.000001 0.809011
vn 0.809017 -0.000002 0.587785
vn 0.809018 -0.000002 0.587784
vn 0.951055 -0.000001 0.309022
vn 0.951055 -0.000001 0.309022
vn 1.000000 0.000000 0.000000
vn 1.000000 0.000000 0.000000
vn 0.787838 -0.227316 -0.572397
vn 0.926163 -0.227315 -0.300915
vn 0.926163 -0.227316 -0.300916
vn 0.787837 -0.227314 -0.572399
vn 0.572390 -0.227317 -0.787843
vn 0.572388 -0.227314 -0.787845
vn 0.300921 -0.227317 -0.926161
vn 0.300918 -0.227316 -0.926162
vn 0.300922 -0.227317 0.926160
vn 0.000000 -0.227316 0.973821
vn 0.000000 -0.227316 0.973821
vn 0.300919 -0.227316 0.926161
vn 0.572390 -0.227317 0.787843
vn 0.572387 -0.227314 0.787846
vn 0.787838 -0.227316 0.572397
vn 0.787837 -0.227314 0.572400
vn 0.926163 -0.227315 0.300916
vn 0.926163 -0.227316 0.300916
vn -0.000000 0.090952 0.995855
vn 0.000000 -0.020561 0.999789
vn -0.000000 -1.000000 0.000003
vn -0.000000 0.990035 -0.140819
vn -0.000000 0.247604 0.968861
vn -0.000000 0.980729 -0.195376
vn -0.000000 0.972112 -0.234515
vn 0.000000 0.484657 0.874704
vn -0.000000 0.972112 0.234515
vn -0.000000 0.791120 0.611660
vn 0.000000 0.980728 0.195379
vn -0.000000 0.990035 0.140820
vn -0.000000 0.997269 0.073860
vn 0.000000 -1.000000 0.000000
vn 0.000000 -1.000000 0.000000
vn -0.000000 0.000002 -1.000000
vn -0.000000 0.000002 -1.000000
vn -0.000000 -0.227316 -0.973821
vn -0.000000 -0.227316 -0.973821
vn -0.950856 -0.020560 -0.308950
vn -0.947115 0.090953 -0.307734
vn -0.805664 0.090953 -0.585348
vn -0.808847 -0.020560 -0.587660
vn -0.585346 0.090952 -0.805666
vn -0.587658 -0.020561 -0.808849
vn -0.307737 0.090952 -0.947114
vn -0.308952 -0.020561 -0.950855
vn -0.308952 -0.020561 0.950855
vn -0.307738 0.090952 0.947114
vn -0.585346 0.090952 0.805666
vn -0.587658 -0.020561 0.808848
vn -0.805664 0.090953 0.585349
vn -0.808846 -0.020561 0.587661
vn -0.947115 0.090953 0.307735
vn -0.950856 -0.020560 0.308951
vn -0.995855 0.090954 0.000000
vn -0.999789 -0.020560 0.000000
vn 0.000003 -1.000000 0.000003
vn 0.000004 -1.000000 0.000000
vn 0.000002 -1.000000 0.000006
vn 0.000001 -1.000000 0.000003
vn 0.000001 -1.000000 -0.000003
vn 0.000002 -1.000000 -0.000006
vn 0.000003 -1.000000 -0.000003
vn 0.000004 -1.000000 -0.000000
vn 0.000004 -1.000000 0.000000
vn -0.581721 0.791122 -0.189015
vn -0.494846 0.791122 -0.359518
vn -0.707653 0.484657 -0.514135
vn -0.831892 0.484659 -0.270298
vn -0.783826 0.247605 -0.569481
vn -0.921443 0.247605 -0.299392
vn -0.569481 0.247604 -0.783826
vn -0.299395 0.247604 -0.921442
vn -0.299397 0.247604 0.921441
vn -0.569481 0.247604 0.783826
vn -0.783825 0.247605 0.569482
vn -0.921443 0.247604 0.299392
vn -0.968861 0.247604 0.000000
vn -0.514138 0.484657 -0.707651
vn -0.359521 0.791123 -0.494842
vn -0.270299 0.484657 -0.831893
vn -0.189010 0.791123 -0.581721
vn -0.270301 0.484657 0.831892
vn -0.514138 0.484657 0.707651
vn -0.189012 0.791123 0.581721
vn -0.359521 0.791123 0.494843
vn -0.707652 0.484657 0.514136
vn -0.494845 0.791122 0.359519
vn -0.831892 0.484659 0.270298
vn -0.581721 0.791122 0.189015
vn -0.874704 0.484657 -0.000000
vn -0.611660 0.791121 -0.000000
vn 0.000000 -1.000000 -0.000002
vn 0.000000 -1.000000 -0.000002
vn 0.000000 -1.000000 -0.000002
vn 0.000000 -1.000000 -0.000002
vn 0.000000 -1.000000 0.000004
vn 0.000000 -1.000000 0.000004
vn 0.000000 -1.000000 0.000004
vn 0.000000 -1.000000 0.000004
vn 0.000000 -1.000000 0.000000
vn 0.000000 -1.000000 0.000000
vn 0.000000 -1.000000 -0.000002
vn 0.000000 -1.000000 -0.000002
vn 0.000000 -1.000000 -0.000002
vn 0.000000 -1.000000 -0.000002
vn 0.000000 -1.000000 -0.000001
vn 0.000000 -1.000000 -0.000001
vn 0.000000 -1.000000 -0.000000
vn 0.000000 -1.000000 -0.000000
vn -0.809010 -0.000002 -0.587795
vn -0.809011 -0.000002 -0.587794
vn -0.951055 -0.000000 -0.309022
vn -0.951055 -0.000000 -0.309021
vn -0.587808 -0.000000 -0.809000
vn -0.587808 -0.000000 -0.809000
vn -0.309022 0.000002 -0.951055
vn -0.309021 0.000002 -0.951055
vn -0.309020 0.000000 0.951056
vn -0.309020 0.000000 0.951056
vn -0.587800 -0.000001 0.809006
vn -0.587800 -0.000001 0.809006
vn -0.809015 -0.000002 0.587787
vn -0.809016 -0.000002 0.587787
vn -0.951055 -0.000001 0.309022
vn -0.951055 -0.000001 0.309022
vn -1.000000 0.000000 0.000000
vn -1.000000 0.000000 0.000000
vn -0.787843 -0.227317 -0.572390
vn -0.787845 -0.227319 -0.572386
vn -0.926157 -0.227319 -0.300929
vn -0.926158 -0.227318 -0.300930
vn -0.572402 -0.227317 -0.787835
vn -0.572405 -0.227319 -0.787831
vn -0.300926 -0.227316 -0.926159
vn -0.300927 -0.227318 -0.926158
vn -0.214890 -0.226411 0.950032
vn -0.300928 -0.227318 0.926158
vn -0.572405 -0.227319 0.787831
vn -0.572405 -0.227319 0.787832
vn -0.837131 -0.226412 0.497946
vn -0.787845 -0.227318 0.572387
vn -0.926157 -0.227317 0.300932
vn -0.926157 -0.227319 0.300930
vn 0.973821 -0.227314 0.000000
vn 0.973822 -0.227314 0.000001
vn -0.973821 -0.227318 -0.000000
vn -0.973819 -0.227323 0.000000
vn 0.787841 -0.227317 -0.572393
vn 0.926162 -0.227316 -0.300916
vn 0.572393 -0.227318 -0.787841
vn 0.300922 -0.227317 -0.926160
vn -0.000000 -0.227317 -0.973821
vn -0.300927 -0.227317 -0.926159
vn -0.572398 -0.227317 -0.787837
vn -0.787840 -0.227318 -0.572394
vn -0.926159 -0.227317 -0.300927
vn -0.973821 -0.227317 0.000000
vn -0.926158 -0.227317 0.300929
vn -0.868230 -0.224661 0.442384
vn -0.572473 -0.226779 0.787938
vn -0.678227 -0.224610 0.699684
vn -0.655953 -0.342616 0.672562
vn -0.553477 -0.339676 0.760449
vn -0.455862 -0.224609 0.861244
vn -0.437242 -0.340786 0.832277
vn 0.000000 -0.227317 0.973821
vn -0.152433 -0.224660 0.962441
vn 0.300924 -0.227317 0.926160
vn 0.572393 -0.227317 0.787841
vn 0.787840 -0.227317 0.572394
vn 0.926162 -0.227316 0.300918
vn 0.973821 -0.227316 0.000001
vn 0.939838 -0.153151 -0.305367
vn 0.939838 -0.153151 -0.305368
vn 0.799477 -0.153154 -0.580845
vn 0.799477 -0.153154 -0.580844
vn 0.988202 -0.153153 0.000000
vn 0.988202 -0.153153 0.000000
vn 0.580849 -0.153152 -0.799474
vn 0.580854 -0.153152 -0.799471
vn 0.305366 -0.153141 -0.939840
vn 0.305370 -0.153141 -0.939839
vn -0.000000 -0.153133 -0.988206
vn 0.000000 -0.153133 -0.988206
vn -0.305373 -0.153129 -0.939840
vn -0.305372 -0.153129 -0.939840
vn 0.305368 -0.153141 0.939839
vn 0.305370 -0.153141 0.939839
vn 0.000000 -0.153133 0.988205
vn -0.000000 -0.153133 0.988205
vn 0.580849 -0.153152 0.799474
vn 0.580855 -0.153152 0.799470
vn 0.799476 -0.153156 0.580845
vn 0.799477 -0.153156 0.580844
vn 0.939837 -0.153155 0.305370
vn 0.939837 -0.153155 0.305369
vn -0.305374 -0.153129 0.939839
vn -0.305374 -0.153129 0.939840
vn -0.939841 -0.153131 -0.305367
vn -0.939842 -0.153131 -0.305366
vn -0.988204 -0.153142 0.000001
vn -0.988204 -0.153142 0.000001
vn -0.799479 -0.153123 -0.580850
vn -0.799479 -0.153123 -0.580850
vn -0.580848 -0.153125 -0.799480
vn -0.580851 -0.153125 -0.799478
vn -0.580848 -0.153119 0.799481
vn -0.580852 -0.153119 0.799478
vn -0.799479 -0.153114 0.580852
vn -0.799480 -0.153114 0.580851
vn -0.939841 -0.153128 0.305369
vn -0.939842 -0.153128 0.305367
vn 0.948160 -0.078030 -0.308065
vn 0.806558 -0.078033 -0.585982
vn 0.585989 -0.078032 -0.806553
vn 0.308070 -0.078031 -0.948158
vn -0.000000 -0.078031 0.996951
vn 0.308070 -0.078031 0.948158
vn 0.585990 -0.078032 0.806552
vn 0.806558 -0.078033 0.585983
vn 0.948159 -0.078030 0.308067
vn 0.996951 -0.078029 0.000000
vn 0.787841 -0.227318 -0.572393
vn 0.926160 -0.227319 -0.300922
vn 0.926161 -0.227318 -0.300920
vn 0.787842 -0.227317 -0.572392
vn 0.572396 -0.227317 -0.787838
vn 0.572395 -0.227317 -0.787839
vn 0.300924 -0.227318 -0.926159
vn 0.300923 -0.227318 -0.926160
vn 0.300925 -0.227318 0.926159
vn 0.000000 -0.227318 0.973821
vn 0.000000 -0.227317 0.973821
vn 0.300924 -0.227318 0.926160
vn 0.572397 -0.227317 0.787838
vn 0.572396 -0.227317 0.787839
vn 0.787840 -0.227317 0.572394
vn 0.787841 -0.227317 0.572393
vn 0.926159 -0.227319 0.300924
vn 0.926160 -0.227318 0.300921
vn 0.973820 -0.227320 0.000000
vn 0.973820 -0.227319 0.000000
vn -0.000000 -0.078031 -0.996951
vn -0.000000 -0.227317 -0.973821
vn -0.000000 -0.227317 -0.973821
vn -0.806551 -0.078033 -0.585992
vn -0.948157 -0.078034 -0.308073
vn -0.585989 -0.078032 -0.806553
vn -0.308076 -0.078031 -0.948156
vn -0.308076 -0.078031 0.948156
vn -0.585990 -0.078032 0.806552
vn -0.806550 -0.078033 0.585993
vn -0.948157 -0.078034 0.308074
vn -0.996951 -0.078036 -0.000000
vn -0.787841 -0.227316 -0.572393
vn -0.787840 -0.227318 -0.572394
vn -0.926161 -0.227315 -0.300923
vn -0.926161 -0.227312 -0.300922
vn -0.572396 -0.227318 -0.787838
vn -0.572396 -0.227318 -0.787838
vn -0.300927 -0.227317 -0.926159
vn -0.300928 -0.227317 -0.926158
vn -0.300927 -0.227318 0.926158
vn -0.241479 -0.226881 0.943511
vn -0.572396 -0.227319 0.787838
vn -0.572395 -0.227319 0.787839
vn -0.787841 -0.227317 0.572393
vn -0.822714 -0.226881 0.521216
vn -0.926161 -0.227312 0.300923
vn -0.926160 -0.227315 0.300924
vn -0.973822 -0.227312 0.000001
vn -0.973821 -0.227315 0.000001
vn 0.145622 0.988208 -0.047315
vn 0.123882 0.988207 -0.090006
vn 0.123882 0.988207 -0.090006
vn 0.145622 0.988208 -0.047316
vn -0.123904 -0.988203 0.090018
vn -0.145657 -0.988202 0.047327
vn -0.145657 -0.988202 0.047326
vn -0.123903 -0.988203 0.090020
vn -0.153150 -0.988203 -0.000000
vn -0.153150 -0.988203 -0.000000
vn 0.153111 0.988209 0.000000
vn 0.153111 0.988209 0.000000
vn 0.090011 0.988205 -0.123889
vn 0.090011 0.988205 -0.123889
vn -0.090024 -0.988202 0.123906
vn -0.090022 -0.988202 0.123908
vn 0.047321 0.988205 -0.145641
vn 0.047321 0.988205 -0.145641
vn -0.047329 -0.988201 0.145667
vn -0.047329 -0.988201 0.145667
vn 0.000000 0.988206 -0.153133
vn 0.000000 0.988206 -0.153133
vn -0.000000 -0.988202 0.153157
vn -0.000000 -0.988202 0.153157
vn -0.047318 0.988207 -0.145631
vn -0.047318 0.988207 -0.145632
vn 0.047327 -0.988203 0.145657
vn 0.047326 -0.988202 0.145657
vn -0.047329 -0.988201 -0.145665
vn -0.000000 -0.988202 -0.153159
vn -0.000000 -0.988202 -0.153159
vn -0.047328 -0.988201 -0.145665
vn 0.000000 0.988207 0.153126
vn 0.047321 0.988205 0.145639
vn 0.047322 0.988205 0.145639
vn 0.000000 0.988207 0.153126
vn 0.090014 0.988204 0.123892
vn 0.090014 0.988204 0.123892
vn -0.090022 -0.988202 -0.123905
vn -0.090021 -0.988202 -0.123906
vn 0.123884 0.988206 0.090008
vn 0.123884 0.988206 0.090008
vn -0.123904 -0.988203 -0.090018
vn -0.123903 -0.988203 -0.090020
vn 0.145621 0.988208 0.047315
vn 0.145620 0.988208 0.047316
vn -0.145657 -0.988203 -0.047327
vn -0.145657 -0.988203 -0.047326
vn 0.047326 -0.988203 -0.145655
vn 0.047327 -0.988203 -0.145655
vn -0.047317 0.988208 0.145626
vn -0.047317 0.988208 0.145626
vn -0.145648 0.988204 -0.047323
vn -0.153150 0.988203 0.000000
vn -0.153150 0.988203 0.000000
vn -0.145648 0.988204 -0.047322
vn 0.153164 -0.988201 0.000000
vn 0.145665 -0.988201 0.047327
vn 0.145665 -0.988201 0.047328
vn 0.153164 -0.988201 0.000000
vn 0.123904 -0.988202 0.090022
vn 0.123905 -0.988202 0.090020
vn -0.123885 0.988206 -0.090008
vn -0.123886 0.988206 -0.090006
vn 0.090020 -0.988202 0.123905
vn 0.090020 -0.988202 0.123905
vn -0.090003 0.988207 -0.123879
vn -0.090001 0.988207 -0.123880
vn 0.090021 -0.988203 -0.123903
vn 0.090021 -0.988203 -0.123903
vn -0.090005 0.988207 0.123880
vn -0.090003 0.988207 0.123881
vn 0.123909 -0.988201 -0.090025
vn 0.123910 -0.988201 -0.090023
vn -0.123893 0.988204 0.090013
vn -0.123894 0.988205 0.090012
vn 0.145666 -0.988201 -0.047329
vn 0.145666 -0.988201 -0.047330
vn -0.145656 0.988203 0.047326
vn -0.145657 0.988203 0.047325
vn -0.589010 0.032385 0.807477
vn -0.701678 0.055595 0.710321
vn -0.458812 0.050763 0.887082
vn -0.991149 -0.132757 0.000000
vn -0.986157 -0.165817 0.000000
vn -0.976558 -0.215255 0.000000
vn -0.991149 -0.132757 0.000000
vn 0.000000 -1.000000 0.000000
vn 0.000000 -1.000000 0.000000
vn 0.000000 -0.000000 0.000000
vn 0.000000 -0.000000 0.000000
vn 0.167915 -0.202123 0.964858
vn 0.167830 -0.202126 0.964872
vn 0.000000 0.000000 0.000000
vn 0.000000 1.000000 0.000000
vn 0.000000 1.000000 0.000000
vn 0.000000 0.000000 0.000000
vn -0.978265 -0.194605 0.071598
vn -0.978285 -0.194594 0.071360
vn 0.000000 -1.000000 0.000000
vn 0.000000 -0.000000 0.000000
vn 0.000000 -0.000000 0.000000
vn 0.000000 -1.000000 0.000000
vn 0.168117 -0.202114 0.964824
vn -0.642302 -0.399217 0.654274
vn -0.537496 -0.401175 0.741725
vn -0.424472 -0.395796 0.814352
vn 0.167962 -0.202121 0.964850
vn 0.167830 -0.202126 0.964872
vn -0.579037 0.149530 0.801472
vn -0.696010 0.152056 0.701747
vn -0.452888 0.143725 0.879907
vn 0.168118 -0.202114 0.964824
vn -0.978257 -0.194609 0.071694
vn -0.978257 -0.194609 0.071694
vn -0.978270 -0.194602 0.071539
vn -0.978285 -0.194594 0.071360
s 1
g pCylinder5 razzo4
usemtl initialShadingGroup
f 1/1/1 2/2/2 11/3/3 10/4/4
f 2/2/2 3/5/5 12/6/6 11/3/3
f 3/5/5 4/7/7 13/8/8 12/6/6
f 4/7/7 82/9/9 84/508/10 13/8/8
f 5/11/11 6/12/12 15/13/13 14/14/14
f 6/12/12 7/15/15 16/16/16 15/13/13
f 7/15/15 8/17/17 17/18/18 16/16/16
f 8/17/17 9/19/19 18/20/20 17/18/18
f 9/19/19 1/1/1 10/4/4 18/20/20
s 3
f 65/21/21 64/22/22 105/23/23 106/24/24
f 66/25/25 65/21/21 106/24/24 107/26/26
f 67/27/27 66/25/25 107/26/26 108/28/28
f 68/29/29 110/456/30 111/31/31
f 69/32/32 68/29/29 111/31/31 112/33/33
f 70/34/34 69/32/32 112/33/33 113/35/35
f 71/36/36 70/34/34 113/35/35 114/37/37
f 72/38/38 71/36/36 114/37/37 115/39/39
f 64/22/22 72/38/38 115/39/39 105/23/23
s 1
f 21/40/40 20/41/41 23/494/42 22/43/43
f 20/487/41 19/44/44 24/45/45 23/42/42
f 10/4/4 11/3/3 24/45/45 19/44/44
f 11/3/3 12/6/6 27/46/46 24/45/45
f 12/6/6 13/8/8 30/47/47 27/46/46
f 13/8/8 84/508/10 90/506/48 30/47/47
f 14/14/14 15/13/13 36/49/49 33/50/50
f 15/13/13 16/16/16 39/51/51 36/49/49
f 16/16/16 17/18/18 42/52/52 39/51/51
f 17/18/18 18/20/20 45/53/53 42/52/52
f 18/20/20 10/4/4 19/44/44 45/53/53
f 23/42/42 24/45/45 27/46/46 26/54/54
f 22/43/43 23/494/42 26/493/54 25/55/55
f 26/54/54 27/46/46 30/47/47 29/56/56
f 25/55/55 26/493/54 29/492/56 28/57/57
f 29/56/56 30/47/47 90/506/48 97/507/58
f 28/57/57 29/492/56 97/447/58 98/59/59
f 32/462/60 33/50/50 36/49/49 35/61/61
f 31/62/62 32/60/60 35/491/61 34/63/63
f 35/61/61 36/49/49 39/51/51 38/64/64
f 34/63/63 35/491/61 38/490/64 37/65/65
f 38/64/64 39/51/51 42/52/52 41/66/66
f 37/65/65 38/490/64 41/489/66 40/67/67
f 41/66/66 42/52/52 45/53/53 44/68/68
f 40/67/67 41/489/66 44/488/68 43/69/69
f 19/44/44 20/487/41 44/68/68 45/53/53
f 20/41/41 21/40/40 43/69/69 44/488/68
f 21/40/40 86/70/70 96/71/71 43/69/69
s 6
f 47/486/72 46/480/73 55/472/74 56/478/75
f 48/485/76 47/486/72 56/478/75 57/477/77
f 49/484/78 48/485/76 57/477/77 58/476/79
f 50/461/80 102/436/81 104/82/82 59/83/83
f 51/483/84 50/461/80 59/83/83 60/475/85
f 52/482/86 51/483/84 60/475/85 61/474/87
f 53/481/88 52/482/86 61/474/87 62/473/89
f 54/479/90 53/481/88 62/473/89 63/471/91
f 46/480/73 54/479/90 63/471/91 55/472/74
s 8
f 56/75/92 55/74/93 64/464/94 65/470/95
f 57/77/96 56/75/92 65/470/95 66/469/97
f 58/79/98 57/77/96 66/469/97 67/468/99
f 59/460/100 104/435/101 110/30/102 68/459/103
f 60/85/104 59/460/100 68/459/103 69/467/105
f 61/87/106 60/85/104 69/467/105 70/466/107
f 62/89/108 61/87/106 70/466/107 71/465/109
f 63/91/110 62/89/108 71/465/109 72/463/111
f 55/74/93 63/91/110 72/463/111 64/464/94
s 10
f 74/92/112 73/93/113 46/73/114 47/72/115
f 75/94/116 74/92/112 47/72/115 48/76/117
f 76/95/118 75/94/116 48/76/117 49/78/119
f 77/96/120 117/97/121 102/81/122 50/80/123
f 78/98/124 77/96/120 50/80/123 51/84/125
f 79/99/126 78/98/124 51/84/125 52/86/127
f 80/100/128 79/99/126 52/86/127 53/88/129
s 1
f 85/101/130 83/102/131 5/11/11 14/14/14
s 3
f 108/28/28 109/103/132 67/27/27
s 1
f 87/104/133 86/70/70 21/40/40 22/43/43
f 92/105/134 85/101/130 14/14/14 33/50/50
f 88/106/135 87/104/133 22/43/43 25/55/55
f 89/107/136 88/106/135 25/55/55 28/57/57
f 98/59/59 89/107/136 28/57/57
f 99/419/137 92/105/134 33/50/50 32/462/60
f 91/109/138 100/110/139 31/62/62
f 100/110/139 99/108/137 32/60/60 31/62/62
f 93/111/140 91/109/138 31/62/62 34/63/63
f 94/112/141 93/111/140 34/63/63 37/65/65
f 95/113/142 94/112/141 37/65/65 40/67/67
f 96/71/71 95/113/142 40/67/67 43/69/69
s 6
f 103/416/143 101/115/144 49/484/78 58/476/79
s 8
f 109/422/145 103/504/146 58/79/98 67/468/99
s 10
f 101/418/147 116/502/148 76/95/118 49/78/119
s 1
f 118/117/149 127/118/150 128/119/151 119/120/152
f 119/120/152 128/119/151 129/121/153 120/122/154
f 120/122/154 129/121/153 130/123/155 121/124/156
f 121/124/156 130/123/155 84/10/10 82/501/9
f 122/125/157 131/126/158 132/127/159 123/128/160
f 123/128/160 132/127/159 133/129/161 124/130/162
f 124/130/162 133/129/161 134/131/163 125/132/164
f 125/132/164 134/131/163 135/133/165 126/134/166
f 126/134/166 135/133/165 127/118/150 118/117/149
s 3
f 182/458/167 106/24/24 105/23/23 181/451/168
f 183/457/169 107/26/26 106/24/24 182/458/167
f 184/421/170 108/28/28 107/26/26 183/457/169
f 185/455/171 111/31/31 110/456/30
f 186/454/172 112/33/33 111/31/31 185/455/171
f 187/453/173 113/35/35 112/33/33 186/454/172
f 188/452/174 114/37/37 113/35/35 187/453/173
f 189/450/175 115/39/39 114/37/37 188/452/174
f 181/451/168 105/23/23 115/39/39 189/450/175
s 1
f 138/144/176 139/145/177 140/146/178 137/441/179
f 137/147/179 140/449/178 141/148/180 136/149/181
f 127/118/150 136/149/181 141/148/180 128/119/151
f 128/119/151 141/148/180 144/150/182 129/121/153
f 129/121/153 144/150/182 147/151/183 130/123/155
f 130/123/155 147/151/183 90/48/48 84/10/10
f 131/126/158 150/152/184 153/153/185 132/127/159
f 132/127/159 153/153/185 156/154/186 133/129/161
f 133/129/161 156/154/186 159/155/187 134/131/163
f 134/131/163 159/155/187 162/156/188 135/133/165
f 135/133/165 162/156/188 136/149/181 127/118/150
f 140/449/178 143/448/189 144/150/182 141/148/180
f 139/145/177 142/158/190 143/157/189 140/146/178
f 143/448/189 146/446/191 147/151/183 144/150/182
f 142/158/190 145/160/192 146/159/191 143/157/189
f 146/446/191 97/58/58 90/48/48 147/151/183
f 145/160/192 98/59/59 97/447/58 146/159/191
f 149/161/193 152/445/194 153/153/185 150/152/184
f 148/163/195 151/164/196 152/162/194 149/420/193
f 152/445/194 155/444/197 156/154/186 153/153/185
f 151/164/196 154/166/198 155/165/197 152/162/194
f 155/444/197 158/443/199 159/155/187 156/154/186
f 154/166/198 157/168/200 158/167/199 155/165/197
f 158/443/199 161/442/201 162/156/188 159/155/187
f 157/168/200 160/170/202 161/169/201 158/167/199
f 136/149/181 162/156/188 161/442/201 137/147/179
f 137/441/179 161/169/201 160/170/202 138/144/176
f 138/144/176 160/170/202 96/71/71 86/70/70
s 6
f 164/440/203 173/439/204 172/424/205 163/426/206
f 165/438/207 174/437/208 173/439/204 164/440/203
f 166/417/209 175/178/210 174/437/208 165/438/207
f 167/434/211 176/433/212 104/82/82 102/436/81
f 168/432/213 177/431/214 176/433/212 167/434/211
f 169/430/215 178/429/216 177/431/214 168/432/213
f 170/428/217 179/427/218 178/429/216 169/430/215
f 171/425/219 180/423/220 179/427/218 170/428/217
f 163/426/206 172/424/205 180/423/220 171/425/219
s 8
f 173/172/221 182/135/222 181/136/223 172/173/224
f 174/176/225 183/137/226 182/135/222 173/172/221
f 175/415/227 184/138/228 183/137/226 174/176/225
f 176/180/229 185/139/230 110/30/102 104/435/101
f 177/182/231 186/140/232 185/139/230 176/180/229
f 178/184/233 187/141/234 186/140/232 177/182/231
f 179/186/235 188/142/236 187/141/234 178/184/233
f 180/188/237 189/143/238 188/142/236 179/186/235
f 172/173/224 181/136/223 189/143/238 180/188/237
s 10
f 191/189/239 164/171/240 163/174/241 190/190/242
f 192/191/243 165/175/244 164/171/240 191/189/239
f 193/192/245 166/177/246 165/175/244 192/191/243
f 194/193/247 167/179/248 102/81/122 117/97/121
f 195/194/249 168/181/250 167/179/248 194/193/247
f 196/195/251 169/183/252 168/181/250 195/194/249
f 197/196/253 170/185/254 169/183/252 196/195/251
s 1
f 85/101/130 131/126/158 122/125/157 83/102/131
s 3
f 108/28/28 184/421/170 109/103/132
s 1
f 87/104/133 139/145/177 138/144/176 86/70/70
f 92/105/134 150/152/184 131/126/158 85/101/130
f 88/106/135 142/158/190 139/145/177 87/104/133
f 89/107/136 145/160/192 142/158/190 88/106/135
f 98/59/59 145/160/192 89/107/136
f 99/419/137 149/161/193 150/152/184 92/105/134
f 91/109/138 148/163/195 100/110/139
f 100/110/139 148/163/195 149/420/193 99/108/137
f 93/111/140 151/164/196 148/163/195 91/109/138
f 94/112/141 154/166/198 151/164/196 93/111/140
f 95/113/142 157/168/200 154/166/198 94/112/141
f 96/71/71 160/170/202 157/168/200 95/113/142
s 6
f 103/416/143 175/178/210 166/417/209 101/115/144
s 8
f 109/505/145 184/138/228 175/415/227 103/114/146
s 10
f 101/503/147 166/177/246 193/192/245 116/116/148
f 53/88/129 54/90/255 81/197/256 80/100/128
f 46/73/114 73/93/113 81/197/256 54/90/255
f 197/196/253 198/198/257 171/187/258 170/185/254
f 190/190/242 163/174/241 171/187/258 198/198/257
f 200/199/259 199/200/260 73/93/113 74/92/112
f 201/201/261 200/199/259 74/92/112 75/94/116
f 202/202/262 201/201/261 75/94/116 76/95/118
f 116/502/148 203/499/263 202/202/262 76/95/118
f 116/116/148 193/192/245 204/204/264 203/203/263
f 205/205/265 204/204/264 193/192/245 192/191/243
f 206/206/266 205/205/265 192/191/243 191/189/239
f 207/207/267 206/206/266 191/189/239 190/190/242
f 208/208/268 207/207/267 190/190/242 198/198/257
f 209/209/269 208/208/268 198/198/257 197/196/253
f 210/210/270 209/209/269 197/196/253 196/195/251
s 17
f 327/211/271 326/212/272 328/213/273 329/214/274
f 330/215/275 327/211/271 329/214/274 331/216/276
s 10
f 212/217/277 211/218/278 194/193/247 117/97/121
f 213/219/279 212/217/277 117/97/121 77/96/120
f 214/220/280 213/219/279 77/96/120 78/98/124
f 215/221/281 214/220/280 78/98/124 79/99/126
f 216/222/282 215/221/281 79/99/126 80/100/128
f 217/223/283 216/222/282 80/100/128 81/197/256
f 199/200/260 217/223/283 81/197/256 73/93/113
s 18
f 258/374/284 259/225/285 260/372/286 261/227/287
f 259/225/285 258/374/284 262/355/288 263/229/289
f 261/227/287 260/372/286 264/370/290 265/231/291
f 265/231/291 264/370/290 266/368/292 267/233/293
f 267/233/293 266/368/292 268/366/294 269/498/295
f 269/235/295 268/497/294 270/345/296 271/237/297
f 272/364/298 273/239/299 274/354/300 275/241/301
f 273/239/299 272/364/298 276/362/302 277/243/303
f 277/243/303 276/362/302 278/360/304 279/245/305
f 279/245/305 278/360/304 280/357/306 281/247/307
f 281/247/307 280/357/306 263/229/289 262/355/288
f 275/241/301 274/354/300 282/344/308 283/249/309
f 284/352/310 285/251/311 286/335/312 287/253/313
f 285/251/311 284/352/310 288/350/314 289/255/315
f 289/255/315 288/350/314 290/347/316 291/257/317
f 291/257/317 290/347/316 271/237/297 270/345/296
f 283/249/309 282/344/308 292/342/318 293/259/319
f 293/259/319 292/342/318 294/340/320 295/261/321
f 295/261/321 294/340/320 296/337/322 297/263/323
f 297/263/323 296/337/322 287/253/313 286/335/312
s 1
f 2/2/2 1/1/1 218/414/324 220/411/325
f 3/5/5 2/2/2 220/411/325 222/409/326
f 4/7/7 3/5/5 222/409/326 224/407/327
f 5/11/11 83/102/131 239/394/328 229/403/329
f 6/12/12 5/11/11 229/403/329 230/401/330
f 7/15/15 6/12/12 230/401/330 232/399/331
f 8/17/17 7/15/15 232/399/331 234/396/332
f 9/19/19 8/17/17 234/396/332 236/395/333
f 1/1/1 9/19/19 236/395/333 218/414/324
s 10
f 221/274/334 219/413/335 298/276/336 299/277/337
f 223/278/338 221/274/334 299/277/337 300/279/339
f 225/280/340 223/278/338 300/279/339 301/281/341
f 228/282/342 238/393/343 312/284/344 313/285/345
f 231/286/346 228/282/342 313/285/345 314/287/347
f 233/288/348 231/286/346 314/287/347 315/289/349
f 235/290/350 233/288/348 315/289/349 316/291/351
f 237/292/352 235/290/350 316/291/351 317/293/353
f 219/413/335 237/292/352 317/293/353 298/276/336
s 1
f 226/405/354 82/9/9 4/7/7 224/407/327
s 10
f 301/281/341 302/495/355 227/296/356 225/280/340
s 1
f 119/120/152 242/390/357 240/392/358 118/117/149
f 120/122/154 244/387/359 242/390/357 119/120/152
f 121/124/156 247/388/360 244/387/359 120/122/154
f 122/125/157 248/384/361 239/394/328 83/102/131
f 123/128/160 250/382/362 248/384/361 122/125/157
f 124/130/162 252/380/363 250/382/362 123/128/160
f 125/132/164 254/377/364 252/380/363 124/130/162
f 126/134/166 256/378/365 254/377/364 125/132/164
f 118/117/149 240/392/358 256/378/365 126/134/166
s 10
f 243/389/366 305/307/367 306/308/368 241/309/369
f 245/386/370 304/311/371 305/307/367 243/389/366
f 246/385/372 303/313/373 304/311/371 245/386/370
f 249/383/374 311/315/375 312/284/344 238/393/343
f 251/381/376 310/317/377 311/315/375 249/383/374
f 253/379/378 309/319/379 310/317/377 251/381/376
f 255/376/380 308/321/381 309/319/379 253/379/378
f 257/375/382 307/323/383 308/321/381 255/376/380
f 241/309/369 306/308/368 307/323/383 257/375/382
s 1
f 226/500/354 247/388/360 121/124/156 82/501/9
s 10
f 302/295/355 303/313/373 246/385/372 227/496/356
s 24
f 219/275/384 221/412/385 260/226/386 259/373/387
s 25
f 220/265/388 218/264/389 258/224/390 261/371/391
f 218/264/389 236/273/392 262/228/393 258/224/390
s 24
f 237/398/394 219/275/384 259/373/387 263/358/395
f 221/412/385 223/410/396 264/230/397 260/226/386
s 25
f 222/266/398 220/265/388 261/371/391 265/369/399
s 24
f 223/410/396 225/408/400 266/232/401 264/230/397
s 25
f 224/267/402 222/266/398 265/369/399 267/367/403
s 24
f 225/408/400 227/406/404 268/234/405 266/232/401
s 25
f 226/294/406 224/267/402 267/367/403 269/365/407
s 24
f 227/406/404 246/312/408 270/236/409 268/234/405
s 25
f 247/300/410 226/294/406 269/365/407 271/348/411
f 229/269/412 239/268/413 274/240/414 273/363/415
s 24
f 238/283/416 228/404/417 272/238/418 275/353/419
f 228/404/417 231/402/420 276/242/421 272/238/418
s 25
f 230/270/422 229/269/412 273/363/415 277/361/423
s 24
f 231/402/420 233/400/424 278/244/425 276/242/421
s 25
f 232/271/426 230/270/422 277/361/423 279/359/427
s 24
f 233/400/424 235/397/428 280/246/429 278/244/425
s 25
f 234/272/430 232/271/426 279/359/427 281/356/431
s 24
f 235/397/428 237/398/394 263/358/395 280/246/429
s 25
f 236/273/392 234/272/430 281/356/431 262/228/393
f 239/268/413 248/301/432 282/248/433 274/240/414
s 24
f 249/314/434 238/283/416 275/353/419 283/343/435
f 241/391/436 257/322/437 286/252/438 285/351/439
s 25
f 256/305/440 240/298/441 284/250/442 287/338/443
f 240/298/441 242/297/444 288/254/445 284/250/442
s 24
f 243/306/446 241/391/436 285/351/439 289/349/447
s 25
f 242/297/444 244/299/448 290/256/449 288/254/445
s 24
f 245/310/450 243/306/446 289/349/447 291/346/451
s 25
f 244/299/448 247/300/410 271/348/411 290/256/449
s 24
f 246/312/408 245/310/450 291/346/451 270/236/409
s 25
f 248/301/432 250/302/452 292/258/453 282/248/433
s 24
f 251/316/454 249/314/434 283/343/435 293/341/455
s 25
f 250/302/452 252/303/456 294/260/457 292/258/453
s 24
f 253/318/458 251/316/454 293/341/455 295/339/459
s 25
f 252/303/456 254/304/460 296/262/461 294/260/457
s 24
f 255/320/462 253/318/458 295/339/459 297/336/463
s 25
f 254/304/460 256/305/440 287/338/443 296/262/461
s 24
f 257/322/437 255/320/462 297/336/463 286/252/438
s 10
f 299/277/337 298/276/336 199/200/260 200/199/259
f 300/279/339 299/277/337 200/199/259 201/201/261
f 301/281/341 300/279/339 201/201/261 202/202/262
f 202/202/262 203/499/263 302/495/355 301/281/341
f 203/203/263 204/204/264 303/313/373 302/295/355
f 304/311/371 303/313/373 204/204/264 205/205/265
f 305/307/367 304/311/371 205/205/265 206/206/266
f 306/308/368 305/307/367 206/206/266 207/207/267
f 307/323/383 306/308/368 207/207/267 208/208/268
f 308/321/381 307/323/383 208/208/268 209/209/269
f 309/319/379 308/321/381 209/209/269 210/210/270
s 17
f 333/324/464 332/325/465 326/212/272 327/211/271
f 334/326/466 333/324/464 327/211/271 330/215/275
s 10
f 312/284/344 311/315/375 211/218/278 212/217/277
f 313/285/345 312/284/344 212/217/277 213/219/279
f 314/287/347 313/285/345 213/219/279 214/220/280
f 315/289/349 314/287/347 214/220/280 215/221/281
f 316/291/351 315/289/349 215/221/281 216/222/282
f 317/293/353 316/291/351 216/222/282 217/223/283
f 298/276/336 317/293/353 217/223/283 199/200/260
s 30
f 210/210/467 196/195/468 319/327/469 318/328/470
f 196/195/468 195/194/471 320/329/472 319/327/469
f 195/194/471 194/193/473 322/330/474 320/329/472
s 10
f 194/193/247 211/218/278 321/331/475 322/330/476
s off
f 310/317/477 309/319/478 323/332/479 324/333/480
s 10
f 309/319/379 210/210/270 318/328/481 323/332/482
s off
f 311/315/483 310/317/484 324/333/485 325/334/486
s 10
f 211/218/278 311/315/375 325/334/487 321/331/475
s 17
f 319/327/488 320/329/489 329/214/274 328/213/273
f 320/329/489 322/330/490 331/216/276 329/214/274
s 10
f 322/330/476 321/331/475 330/215/491 331/216/492
s 17
f 324/333/493 323/332/494 332/325/465 333/324/464
f 325/334/495 324/333/493 333/324/464 334/326/466
s 10
f 321/331/475 325/334/487 334/326/496 330/215/491
f 319/327/497 328/213/498 326/212/499 318/328/481
f 318/328/481 326/212/499 332/325/500 323/332/482
g default
v 109.520502 -77.539352 3.369357
v 110.884881 -77.539352 3.369358
v 109.520502 -70.305527 3.369357
v 113.441847 -70.305527 3.369358
v 109.520502 -70.305527 -3.369357
v 113.441847 -70.305527 -3.369358
v 109.520502 -77.539352 -3.369357
v 110.884881 -77.539352 -3.369358
v 113.377253 -77.539352 -3.369358
v 113.377253 -77.539352 3.369358
v 117.838338 -70.305527 -3.369358
v 117.838338 -70.305527 3.369358
v 118.152795 -101.259041 -1.802784
v 118.152795 -101.259041 1.802784
v 119.727092 -99.222303 -1.802784
v 119.727092 -99.222303 1.802784
v 104.011221 -77.539352 3.369357
v 102.646842 -77.539352 3.369358
v 104.011221 -70.305527 3.369357
v 100.089876 -70.305527 3.369358
v 104.011221 -70.305527 -3.369357
v 100.089876 -70.305527 -3.369358
v 104.011221 -77.539352 -3.369357
v 102.646842 -77.539352 -3.369358
v 100.154470 -77.539352 -3.369358
v 100.154470 -77.539352 3.369358
v 95.693386 -70.305527 -3.369358
v 95.693386 -70.305527 3.369358
v 95.378928 -101.259041 -1.802784
v 95.378928 -101.259041 1.802784
v 93.804631 -99.222303 -1.802784
v 93.804631 -99.222303 1.802784
vt 0.837830 0.444986
vt 0.754419 0.444986
vt 0.773810 0.297480
vt 0.818439 0.297480
vt 0.888735 0.903747
vt 0.805557 0.903747
vt 0.824893 0.724424
vt 0.869398 0.724424
vt 0.824893 0.711794
vt 0.869398 0.711794
vt 0.836239 0.218994
vt 0.855630 0.071488
vt 0.900259 0.071488
vt 0.919650 0.218994
vt 0.340206 0.902019
vt 0.359543 0.722695
vt 0.404048 0.722695
vt 0.423384 0.902019
vt 0.404048 0.710065
vt 0.359543 0.710065
vt 0.007812 0.311798
vt 0.031957 0.311798
vt 0.031957 0.394385
vt 0.007812 0.394385
vt 0.059027 0.311798
vt 0.059027 0.394385
vt 0.800443 0.109281
vt 0.808844 0.109281
vt 0.808844 0.191868
vt 0.800443 0.191868
vt 0.824190 0.109281
vt 0.824190 0.191868
vt 0.989729 0.276809
vt 0.989729 0.359396
vt 0.965584 0.359396
vt 0.965584 0.276809
vt 0.938514 0.359396
vt 0.938514 0.276809
vt 0.952033 0.105551
vt 0.952033 0.188138
vt 0.943633 0.188138
vt 0.943633 0.105551
vt 0.928286 0.188138
vt 0.928286 0.105551
vt 0.483391 0.899443
vt 0.495260 0.899443
vt 0.517503 0.962371
vt 0.483391 0.962371
vt 0.516941 0.899443
vt 0.555749 0.962371
vt 0.558484 0.693102
vt 0.572179 0.710820
vt 0.580552 0.389309
vt 0.614664 0.389309
vt 0.592421 0.452237
vt 0.580552 0.452237
vt 0.652910 0.389309
vt 0.614102 0.452237
vt 0.669340 0.640860
vt 0.655645 0.658578
vt 0.096601 0.812655
vt 0.096601 0.875583
vt 0.062489 0.875583
vt 0.084732 0.812655
vt 0.024243 0.875583
vt 0.063051 0.812655
vt 0.007812 0.624032
vt 0.021508 0.606314
vt 0.991506 0.710957
vt 0.991506 0.773885
vt 0.979637 0.773885
vt 0.957394 0.710957
vt 0.957956 0.773885
vt 0.919148 0.710957
vt 0.916413 0.980226
vt 0.902718 0.962508
vn -0.000000 0.000000 1.000000
vn -0.000000 0.000000 1.000000
vn -0.000000 0.000000 1.000000
vn -0.000000 0.000000 1.000000
vn 0.000000 1.000000 0.000000
vn 0.000000 1.000000 0.000000
vn 0.000000 1.000000 0.000000
vn 0.000000 1.000000 0.000000
vn -0.000000 0.000000 -1.000000
vn -0.000000 0.000000 -1.000000
vn -0.000000 0.000000 -1.000000
vn -0.000000 0.000000 -1.000000
vn 0.000000 -1.000000 0.000000
vn 0.000000 -1.000000 0.000000
vn 0.000000 -1.000000 0.000000
vn 0.000000 -1.000000 0.000000
vn 0.791200 -0.611558 0.000000
vn 0.791200 -0.611558 0.000000
vn 0.791200 -0.611558 0.000000
vn 0.791200 -0.611558 0.000000
vn 0.000000 -1.000000 0.000000
vn 0.000000 -1.000000 0.000000
vn 0.000000 -1.000000 0.000000
vn 0.000000 -1.000000 0.000000
vn -0.000000 0.000000 -1.000000
vn -0.000000 0.000000 -1.000000
vn -0.000000 0.000000 -1.000000
vn -0.000000 0.000000 -1.000000
vn 0.000000 1.000000 0.000000
vn 0.000000 1.000000 0.000000
vn 0.000000 1.000000 0.000000
vn 0.000000 1.000000 0.000000
vn -0.000000 0.000000 1.000000
vn -0.000000 0.000000 1.000000
vn -0.000000 0.000000 1.000000
vn -0.000000 0.000000 1.000000
vn -0.980329 -0.197372 0.000000
vn -0.980329 -0.197372 0.000000
vn -0.980329 -0.197372 0.000000
vn -0.980329 -0.197372 0.000000
vn 0.076228 -0.049626 -0.995855
vn 0.076228 -0.049626 -0.995855
vn 0.076228 -0.049626 -0.995855
vn 0.076228 -0.049626 -0.995855
vn 0.997874 0.065178 0.000000
vn 0.997874 0.065178 0.000000
vn 0.997874 0.065178 0.000000
vn 0.997874 0.065178 0.000000
vn 0.076228 -0.049626 0.995855
vn 0.076228 -0.049626 0.995855
vn 0.076228 -0.049626 0.995855
vn 0.076228 -0.049626 0.995855
vn 0.000000 0.000000 1.000000
vn 0.000000 0.000000 1.000000
vn 0.000000 0.000000 1.000000
vn 0.000000 0.000000 1.000000
vn 0.000000 1.000000 0.000000
vn 0.000000 1.000000 0.000000
vn 0.000000 1.000000 0.000000
vn 0.000000 1.000000 0.000000
vn 0.000000 0.000000 -1.000000
vn 0.000000 0.000000 -1.000000
vn 0.000000 0.000000 -1.000000
vn 0.000000 0.000000 -1.000000
vn 0.000000 -1.000000 0.000000
vn 0.000000 -1.000000 0.000000
vn 0.000000 -1.000000 0.000000
vn 0.000000 -1.000000 0.000000
vn -0.791200 -0.611558 0.000000
vn -0.791200 -0.611558 0.000000
vn -0.791200 -0.611558 0.000000
vn -0.791200 -0.611558 0.000000
vn 0.000000 -1.000000 0.000000
vn 0.000000 -1.000000 0.000000
vn 0.000000 -1.000000 0.000000
vn 0.000000 -1.000000 0.000000
vn 0.000000 0.000000 -1.000000
vn 0.000000 0.000000 -1.000000
vn 0.000000 0.000000 -1.000000
vn 0.000000 0.000000 -1.000000
vn 0.000000 1.000000 0.000000
vn 0.000000 1.000000 0.000000
vn 0.000000 1.000000 0.000000
vn 0.000000 1.000000 0.000000
vn 0.000000 0.000000 1.000000
vn 0.000000 0.000000 1.000000
vn 0.000000 0.000000 1.000000
vn 0.000000 0.000000 1.000000
vn 0.980329 -0.197372 0.000000
vn 0.980329 -0.197372 0.000000
vn 0.980329 -0.197372 0.000000
vn 0.980329 -0.197372 0.000000
vn -0.076228 -0.049626 -0.995855
vn -0.076228 -0.049626 -0.995855
vn -0.076228 -0.049626 -0.995855
vn -0.076228 -0.049626 -0.995855
vn -0.997874 0.065178 0.000000
vn -0.997874 0.065178 0.000000
vn -0.997874 0.065178 0.000000
vn -0.997874 0.065178 0.000000
vn -0.076228 -0.049626 0.995855
vn -0.076228 -0.049626 0.995855
vn -0.076228 -0.049626 0.995855
vn -0.076228 -0.049626 0.995855
s off
g razzo4 pCube8
usemtl initialShadingGroup
f 335/553/501 336/554/502 338/555/503 337/556/504
f 337/529/505 338/530/506 340/531/507 339/532/508
f 339/561/509 340/562/510 342/563/511 341/564/512
f 341/535/513 342/536/514 336/537/515 335/538/516
f 348/517/517 347/518/518 349/516/519 350/515/520
f 336/537/521 342/536/522 343/539/523 344/540/524
f 342/563/525 340/562/526 345/565/527 343/566/528
f 340/531/529 338/530/530 346/533/531 345/534/532
f 338/555/533 336/554/534 344/557/535 346/558/536
f 344/509/537 343/510/538 347/511/539 348/512/540
f 343/566/541 345/565/542 349/567/543 347/568/544
f 345/513/545 346/514/546 350/515/547 349/516/548
f 346/558/549 344/557/550 348/559/551 350/560/552
f 351/569/553 353/570/554 354/571/555 352/572/556
f 353/541/557 355/542/558 356/543/559 354/544/560
f 355/577/561 357/578/562 358/579/563 356/580/564
f 357/547/565 351/548/566 352/549/567 358/550/568
f 364/527/569 366/525/570 365/524/571 363/528/572
f 352/549/573 360/551/574 359/552/575 358/550/576
f 358/579/577 359/581/578 361/582/579 356/580/580
f 356/543/581 361/545/582 362/546/583 354/544/584
f 354/571/585 362/573/586 360/574/587 352/572/588
f 360/519/589 364/520/590 363/521/591 359/522/592
f 359/581/593 363/583/594 365/584/595 361/582/596
f 361/523/597 365/524/598 366/525/599 362/526/600
f 362/573/601 366/575/602 364/576/603 360/574/604
